<svg width="64" height="76" viewBox="0 0 64 76" fill="none" xmlns="http://www.w3.org/2000/svg">
<g clip-path="url(#clip0_2218_29522)">
<path fill-rule="evenodd" clip-rule="evenodd" d="M21.6607 59.0038C34.194 51.7268 42.3466 36.5457 39.9401 26.8346C37.5337 17.1234 25.6131 11.1825 27.3006 10.5483C28.9882 9.91406 36.5102 16.2834 38.2299 18.7367C49.4084 34.6833 35.3891 52.0969 22.8467 59.6817C24.2876 59.4109 25.7885 59.1376 27.2855 59.1351C29.5262 59.1317 31.7585 59.7288 33.7903 61.7349C34.0113 61.9536 34.0751 62.324 33.9313 62.5608C33.7876 62.7975 33.491 62.8134 33.2699 62.5947C31.4529 60.8 29.4522 60.3005 27.4471 60.3037C25.9376 60.306 24.4242 60.5928 22.9741 60.8676C22.4044 60.9756 21.8445 61.0817 21.2984 61.168C21.2652 61.1734 21.2076 61.1863 21.1361 61.2023C20.9317 61.2481 20.6141 61.3193 20.4312 61.3117C20.1953 61.3008 20.0288 61.1715 19.9446 61.0719C19.8705 60.9831 19.7924 60.8524 19.7734 60.6569C19.7687 60.62 19.7608 60.4655 19.8448 60.268C19.9927 59.9156 20.6489 58.6217 21.0259 57.8784C21.1655 57.6029 21.2669 57.4031 21.2898 57.3549C22.7446 54.2952 23.6876 51.0385 24.2445 47.4173C24.2915 47.1144 24.5404 46.9568 24.7999 47.0668C25.0594 47.1769 25.2327 47.5124 25.1857 47.8153C24.6104 51.5492 23.6372 54.9067 22.1378 58.0613C22.1148 58.1097 22.0122 58.3117 21.8712 58.5891C21.8076 58.7144 21.7362 58.855 21.6607 59.0038Z" fill="#585A61"/>
<g clip-path="url(#clip1_2218_29522)">
</g>
</g>
<defs>
<clipPath id="clip0_2218_29522">
<rect width="64" height="48" fill="white" transform="translate(0.629761 62.6987) rotate(-75)"/>
</clipPath>
<clipPath id="clip1_2218_29522">
<rect width="111.6" height="66.5" fill="white" transform="translate(-23 -3)"/>
</clipPath>
</defs>
</svg>
