<svg width="127" height="21" viewBox="0 0 127 21" fill="none" xmlns="http://www.w3.org/2000/svg">
<path d="M21.0842 19.62H16.1282L14.9242 16.12H6.91618L5.71218 19.62H0.78418L7.14018 1H14.7282L21.0842 19.62ZM10.9202 4.416L8.17618 12.396H13.6642L10.9202 4.416Z" fill="url(#paint0_linear_2218_29536)"/>
<path d="M40.0936 16.26C40.0936 16.932 40.1216 17.4827 40.1776 17.912C40.2336 18.3227 40.3269 18.892 40.4576 19.62H35.4736C35.2496 18.8547 35.1376 17.7347 35.1376 16.26V15.504C35.1376 14.6453 34.8856 13.992 34.3816 13.544C33.8962 13.096 33.2336 12.872 32.3936 12.872H29.0056V19.62H24.0216V1H34.3256C36.3602 1 37.9096 1.476 38.9736 2.428C40.0376 3.36133 40.5696 4.60267 40.5696 6.152C40.5696 7.44 40.1962 8.52267 39.4496 9.4C38.7029 10.2773 37.7322 10.8373 36.5376 11.08C37.6389 11.3227 38.5069 11.7613 39.1416 12.396C39.7762 13.012 40.0936 13.9547 40.0936 15.224V16.26ZM33.0096 9.344C33.8496 9.344 34.4562 9.148 34.8296 8.756C35.2216 8.364 35.4176 7.76667 35.4176 6.964C35.4176 6.236 35.2216 5.69467 34.8296 5.34C34.4562 4.96667 33.8589 4.78 33.0376 4.78H29.0056V9.344H33.0096Z" fill="url(#paint1_linear_2218_29536)"/>
<path d="M60.7709 16.26C60.7709 16.932 60.7989 17.4827 60.8549 17.912C60.9109 18.3227 61.0042 18.892 61.1349 19.62H56.1509C55.9269 18.8547 55.8149 17.7347 55.8149 16.26V15.504C55.8149 14.6453 55.5629 13.992 55.0589 13.544C54.5736 13.096 53.9109 12.872 53.0709 12.872H49.6829V19.62H44.6989V1H55.0029C57.0376 1 58.5869 1.476 59.6509 2.428C60.7149 3.36133 61.2469 4.60267 61.2469 6.152C61.2469 7.44 60.8736 8.52267 60.1269 9.4C59.3802 10.2773 58.4096 10.8373 57.2149 11.08C58.3162 11.3227 59.1842 11.7613 59.8189 12.396C60.4536 13.012 60.7709 13.9547 60.7709 15.224V16.26ZM53.6869 9.344C54.5269 9.344 55.1336 9.148 55.5069 8.756C55.8989 8.364 56.0949 7.76667 56.0949 6.964C56.0949 6.236 55.8989 5.69467 55.5069 5.34C55.1336 4.96667 54.5362 4.78 53.7149 4.78H49.6829V9.344H53.6869Z" fill="url(#paint2_linear_2218_29536)"/>
<path d="M76.5828 1V4.892H73.3068V15.728H76.5828V19.62H65.1028V15.728H68.3788V4.892H65.1028V1H76.5828Z" fill="url(#paint3_linear_2218_29536)"/>
<path d="M80.2267 1H85.1827V11.892C85.1827 13.46 85.4721 14.5427 86.0507 15.14C86.6294 15.7373 87.5721 16.036 88.8787 16.036C90.2041 16.036 91.1561 15.7373 91.7347 15.14C92.3321 14.5427 92.6307 13.46 92.6307 11.892V1H97.5587V12.536C97.5587 15.0187 96.8307 16.8947 95.3747 18.164C93.9187 19.4333 91.7534 20.068 88.8787 20.068C86.0227 20.068 83.8667 19.4333 82.4107 18.164C80.9547 16.8947 80.2267 15.0187 80.2267 12.536V1Z" fill="url(#paint4_linear_2218_29536)"/>
<path d="M126.087 1V19.62H121.159V4.192L116.679 19.62H111.163L106.655 4.08V19.62H101.727V1H110.211L113.991 14.524L117.799 1H126.087Z" fill="url(#paint5_linear_2218_29536)"/>
<defs>
<linearGradient id="paint0_linear_2218_29536" x1="64" y1="-7.37988" x2="64" y2="31.6201" gradientUnits="userSpaceOnUse">
<stop stop-color="#2453B3"/>
<stop offset="1" stop-color="#3071F2"/>
</linearGradient>
<linearGradient id="paint1_linear_2218_29536" x1="64" y1="-7.37988" x2="64" y2="31.6201" gradientUnits="userSpaceOnUse">
<stop stop-color="#2453B3"/>
<stop offset="1" stop-color="#3071F2"/>
</linearGradient>
<linearGradient id="paint2_linear_2218_29536" x1="64" y1="-7.37988" x2="64" y2="31.6201" gradientUnits="userSpaceOnUse">
<stop stop-color="#2453B3"/>
<stop offset="1" stop-color="#3071F2"/>
</linearGradient>
<linearGradient id="paint3_linear_2218_29536" x1="64" y1="-7.37988" x2="64" y2="31.6201" gradientUnits="userSpaceOnUse">
<stop stop-color="#2453B3"/>
<stop offset="1" stop-color="#3071F2"/>
</linearGradient>
<linearGradient id="paint4_linear_2218_29536" x1="64" y1="-7.37988" x2="64" y2="31.6201" gradientUnits="userSpaceOnUse">
<stop stop-color="#2453B3"/>
<stop offset="1" stop-color="#3071F2"/>
</linearGradient>
<linearGradient id="paint5_linear_2218_29536" x1="64" y1="-7.37988" x2="64" y2="31.6201" gradientUnits="userSpaceOnUse">
<stop stop-color="#2453B3"/>
<stop offset="1" stop-color="#3071F2"/>
</linearGradient>
</defs>
</svg>
