<svg width="40" height="40" viewBox="0 0 40 40" fill="none" xmlns="http://www.w3.org/2000/svg">
<circle cx="20" cy="20" r="16" stroke="#FAB11E" stroke-width="2.5"/>
<g opacity="0.5">
<mask id="path-2-outside-1_1046_25148" maskUnits="userSpaceOnUse" x="15" y="11" width="10" height="18" fill="black">
<rect fill="white" x="15" y="11" width="10" height="18"/>
<path d="M19.9395 27.6436C20.2822 27.6436 20.5547 27.459 20.5547 26.9932V26.0176C22.4795 25.8418 24.1055 24.7607 24.1055 22.6514C24.1055 20.7529 22.8135 19.9619 21.0205 19.4961L19.0957 18.9863C18.0234 18.7139 17.2939 18.0986 17.2939 17.0527C17.2939 15.875 18.2607 15.0225 19.8867 15.0225C21.3105 15.0225 22.0576 15.6904 22.6465 16.6133C22.8311 16.8857 23.0068 17.1582 23.3672 17.1582C23.6572 17.1582 23.9297 16.9912 23.9297 16.5693C23.9297 16.1035 23.6221 15.5059 23.0596 14.9873C22.5234 14.4951 21.7061 14.0557 20.6338 13.915V13.0186C20.6338 12.5703 20.3613 12.3682 20.0098 12.3682C19.6846 12.3682 19.4033 12.5527 19.4033 13.0186V13.8887C17.3906 14.0557 15.9932 15.2422 15.9932 17.1143C15.9932 18.9688 17.3379 19.8477 18.7617 20.2168L20.7305 20.7266C22.0752 21.0869 22.7783 21.623 22.7783 22.7305C22.7783 23.9521 21.8818 24.8838 20.0273 24.8838C18.542 24.8838 17.6631 24.2773 16.9688 23.249C16.7578 22.959 16.626 22.7217 16.3008 22.7217C15.9844 22.7217 15.7295 22.9326 15.7295 23.3545C15.7295 23.8555 16.0898 24.4883 16.7227 24.998C17.3379 25.4902 18.2168 25.8857 19.3242 26V26.9932C19.3242 27.4502 19.5967 27.6436 19.9395 27.6436Z"/>
</mask>
<path d="M19.9395 27.6436C20.2822 27.6436 20.5547 27.459 20.5547 26.9932V26.0176C22.4795 25.8418 24.1055 24.7607 24.1055 22.6514C24.1055 20.7529 22.8135 19.9619 21.0205 19.4961L19.0957 18.9863C18.0234 18.7139 17.2939 18.0986 17.2939 17.0527C17.2939 15.875 18.2607 15.0225 19.8867 15.0225C21.3105 15.0225 22.0576 15.6904 22.6465 16.6133C22.8311 16.8857 23.0068 17.1582 23.3672 17.1582C23.6572 17.1582 23.9297 16.9912 23.9297 16.5693C23.9297 16.1035 23.6221 15.5059 23.0596 14.9873C22.5234 14.4951 21.7061 14.0557 20.6338 13.915V13.0186C20.6338 12.5703 20.3613 12.3682 20.0098 12.3682C19.6846 12.3682 19.4033 12.5527 19.4033 13.0186V13.8887C17.3906 14.0557 15.9932 15.2422 15.9932 17.1143C15.9932 18.9688 17.3379 19.8477 18.7617 20.2168L20.7305 20.7266C22.0752 21.0869 22.7783 21.623 22.7783 22.7305C22.7783 23.9521 21.8818 24.8838 20.0273 24.8838C18.542 24.8838 17.6631 24.2773 16.9688 23.249C16.7578 22.959 16.626 22.7217 16.3008 22.7217C15.9844 22.7217 15.7295 22.9326 15.7295 23.3545C15.7295 23.8555 16.0898 24.4883 16.7227 24.998C17.3379 25.4902 18.2168 25.8857 19.3242 26V26.9932C19.3242 27.4502 19.5967 27.6436 19.9395 27.6436Z" fill="#FAB11E"/>
<path d="M20.5547 26.0176L20.5092 25.5197L20.0547 25.5612V26.0176H20.5547ZM21.0205 19.4961L20.8925 19.9794L20.8948 19.98L21.0205 19.4961ZM19.0957 18.9863L19.2237 18.503L19.2188 18.5017L19.0957 18.9863ZM22.6465 16.6133L22.2248 16.8823L22.2325 16.8937L22.6465 16.6133ZM23.0596 14.9873L23.3985 14.6197L23.3977 14.619L23.0596 14.9873ZM20.6338 13.915H20.1338V14.3537L20.5688 14.4108L20.6338 13.915ZM19.4033 13.8887L19.4447 14.387L19.9033 14.3489V13.8887H19.4033ZM18.7617 20.2168L18.6362 20.7008L18.6364 20.7008L18.7617 20.2168ZM20.7305 20.7266L20.8599 20.2436L20.8558 20.2425L20.7305 20.7266ZM16.9688 23.249L17.3831 22.9692L17.3783 22.962L17.3731 22.9549L16.9688 23.249ZM16.7227 24.998L16.409 25.3874L16.4103 25.3885L16.7227 24.998ZM19.3242 26H19.8242V25.5489L19.3755 25.5026L19.3242 26ZM19.9395 28.1436C20.1955 28.1436 20.4875 28.0743 20.7182 27.8572C20.9549 27.6346 21.0547 27.3249 21.0547 26.9932H20.0547C20.0547 27.0615 20.0446 27.0995 20.0383 27.1165C20.0327 27.1316 20.0294 27.1323 20.033 27.1288C20.0418 27.1206 20.0262 27.1436 19.9395 27.1436V28.1436ZM21.0547 26.9932V26.0176H20.0547V26.9932H21.0547ZM20.6002 26.5155C21.6358 26.4209 22.6314 26.0799 23.3777 25.4388C24.1371 24.7864 24.6055 23.8495 24.6055 22.6514H23.6055C23.6055 23.5626 23.2608 24.2209 22.7261 24.6803C22.1781 25.151 21.3984 25.4384 20.5092 25.5197L20.6002 26.5155ZM24.6055 22.6514C24.6055 21.571 24.23 20.76 23.5702 20.1651C22.9336 19.5912 22.069 19.2519 21.1462 19.0122L20.8948 19.98C21.765 20.2061 22.4429 20.4952 22.9005 20.9078C23.335 21.2996 23.6055 21.8333 23.6055 22.6514H24.6055ZM21.1485 19.0128L19.2237 18.503L18.9677 19.4697L20.8925 19.9794L21.1485 19.0128ZM19.2188 18.5017C18.7377 18.3795 18.3799 18.1912 18.1475 17.9572C17.9262 17.7344 17.7939 17.4467 17.7939 17.0527H16.7939C16.7939 17.7047 17.0264 18.2475 17.4379 18.6619C17.8384 19.0651 18.3815 19.3207 18.9726 19.4709L19.2188 18.5017ZM17.7939 17.0527C17.7939 16.6121 17.9696 16.2483 18.2953 15.9845C18.6297 15.7137 19.1571 15.5225 19.8867 15.5225V14.5225C18.9903 14.5225 18.2214 14.7575 17.6659 15.2074C17.1017 15.6643 16.7939 16.3157 16.7939 17.0527H17.7939ZM19.8867 15.5225C20.5148 15.5225 20.961 15.6681 21.309 15.8922C21.6636 16.1206 21.9511 16.4531 22.225 16.8822L23.068 16.3443C22.753 15.8506 22.3725 15.3877 21.8505 15.0515C21.3217 14.7109 20.6824 14.5225 19.8867 14.5225V15.5225ZM22.2325 16.8937C22.3796 17.1109 22.6979 17.6582 23.3672 17.6582V16.6582C23.3427 16.6582 23.3308 16.6541 23.3243 16.6513C23.3161 16.6478 23.3012 16.6398 23.2778 16.6184C23.2189 16.5648 23.1637 16.4853 23.0604 16.3329L22.2325 16.8937ZM23.3672 17.6582C23.6028 17.6582 23.8744 17.5904 24.0928 17.3926C24.3206 17.1864 24.4297 16.8941 24.4297 16.5693H23.4297C23.4297 16.621 23.4214 16.646 23.4185 16.6532C23.4162 16.659 23.4165 16.656 23.4216 16.6513C23.4313 16.6426 23.4216 16.6582 23.3672 16.6582V17.6582ZM24.4297 16.5693C24.4297 15.9096 24.0155 15.1885 23.3985 14.6197L22.7207 15.3549C23.2287 15.8232 23.4297 16.2974 23.4297 16.5693H24.4297ZM23.3977 14.619C22.7856 14.0571 21.8728 13.5733 20.6988 13.4193L20.5688 14.4108C21.5393 14.5381 22.2613 14.9332 22.7214 15.3556L23.3977 14.619ZM21.1338 13.915V13.0186H20.1338V13.915H21.1338ZM21.1338 13.0186C21.1338 12.6905 21.0311 12.3845 20.7982 12.1629C20.5702 11.9462 20.2782 11.8682 20.0098 11.8682V12.8682C20.0504 12.8682 20.0771 12.8741 20.092 12.8792C20.0993 12.8818 20.1037 12.8841 20.1059 12.8854C20.1081 12.8867 20.1089 12.8874 20.1091 12.8876C20.1092 12.8877 20.1098 12.8883 20.1111 12.8902C20.1123 12.8921 20.115 12.8966 20.1181 12.9048C20.1244 12.9215 20.1338 12.9568 20.1338 13.0186H21.1338ZM20.0098 11.8682C19.757 11.8682 19.4696 11.9404 19.242 12.1545C19.008 12.3746 18.9033 12.6821 18.9033 13.0186H19.9033C19.9033 12.952 19.9134 12.9148 19.9198 12.8979C19.9256 12.8827 19.9295 12.8807 19.9272 12.8829C19.9215 12.8882 19.9373 12.8682 20.0098 12.8682V11.8682ZM18.9033 13.0186V13.8887H19.9033V13.0186H18.9033ZM19.362 13.3904C18.2713 13.4809 17.3056 13.8511 16.6054 14.4937C15.8974 15.1435 15.4932 16.0436 15.4932 17.1143H16.4932C16.4932 16.3129 16.7877 15.6837 17.2816 15.2304C17.7832 14.77 18.5226 14.4635 19.4447 14.387L19.362 13.3904ZM15.4932 17.1143C15.4932 18.1777 15.8848 18.9905 16.4958 19.5818C17.0934 20.1602 17.8752 20.5035 18.6362 20.7008L18.8872 19.7328C18.2244 19.561 17.622 19.2802 17.1913 18.8633C16.7739 18.4593 16.4932 17.9053 16.4932 17.1143H15.4932ZM18.6364 20.7008L20.6051 21.2106L20.8558 20.2425L18.887 19.7328L18.6364 20.7008ZM20.601 21.2095C21.2477 21.3828 21.6652 21.581 21.9195 21.8157C22.1489 22.0276 22.2783 22.2992 22.2783 22.7305H23.2783C23.2783 22.0543 23.0561 21.5042 22.5979 21.081C22.1643 20.6807 21.5579 20.4307 20.8599 20.2436L20.601 21.2095ZM22.2783 22.7305C22.2783 23.2116 22.1063 23.6036 21.7754 23.8835C21.4357 24.1708 20.8756 24.3838 20.0273 24.3838V25.3838C21.0336 25.3838 21.8489 25.131 22.4212 24.647C23.0021 24.1557 23.2783 23.471 23.2783 22.7305H22.2783ZM20.0273 24.3838C19.3557 24.3838 18.853 24.2476 18.4488 24.0175C18.0421 23.786 17.7011 23.4402 17.3831 22.9692L16.5544 23.5288C16.9307 24.0862 17.3764 24.5577 17.9541 24.8866C18.5342 25.2168 19.2137 25.3838 20.0273 25.3838V24.3838ZM17.3731 22.9549C17.2931 22.8448 17.1659 22.6517 17.0231 22.5152C16.8462 22.346 16.6128 22.2217 16.3008 22.2217V23.2217C16.3185 23.2217 16.319 23.2243 16.3128 23.2216C16.3082 23.2196 16.3138 23.2205 16.3321 23.238C16.3526 23.2576 16.3797 23.2889 16.4206 23.3436C16.4677 23.4066 16.4993 23.4536 16.5644 23.5431L17.3731 22.9549ZM16.3008 22.2217C16.0306 22.2217 15.7512 22.3136 15.5392 22.5301C15.3263 22.7475 15.2295 23.0413 15.2295 23.3545H16.2295C16.2295 23.2992 16.2378 23.2658 16.244 23.2489C16.2471 23.2404 16.2499 23.2354 16.2514 23.2329C16.2522 23.2316 16.2528 23.2308 16.2532 23.2304C16.2535 23.2299 16.2537 23.2297 16.2537 23.2297C16.2538 23.2297 16.2537 23.2297 16.2537 23.2298C16.2536 23.2298 16.2536 23.2298 16.2537 23.2297C16.2539 23.2296 16.2551 23.2288 16.2579 23.2278C16.2634 23.2256 16.277 23.2217 16.3008 23.2217V22.2217ZM15.2295 23.3545C15.2295 24.067 15.715 24.8284 16.409 25.3874L17.0363 24.6087C16.4647 24.1482 16.2295 23.6439 16.2295 23.3545H15.2295ZM16.4103 25.3885C17.1042 25.9436 18.0749 26.3738 19.2729 26.4974L19.3755 25.5026C18.3587 25.3977 17.5716 25.0369 17.035 24.6076L16.4103 25.3885ZM18.8242 26V26.9932H19.8242V26H18.8242ZM18.8242 26.9932C18.8242 27.323 18.9254 27.6303 19.1588 27.8522C19.3871 28.0691 19.6779 28.1436 19.9395 28.1436V27.1436C19.8582 27.1436 19.8415 27.1213 19.8478 27.1273C19.85 27.1295 19.8461 27.1274 19.8403 27.112C19.8339 27.095 19.8242 27.0582 19.8242 26.9932H18.8242Z" fill="#FAB11E" mask="url(#path-2-outside-1_1046_25148)"/>
</g>
</svg>
