<svg width="40" height="40" viewBox="0 0 40 40" fill="none" xmlns="http://www.w3.org/2000/svg">
<g clip-path="url(#clip0_1046_25161)">
<path d="M5.15431 19.1398C5.07259 22.3033 5.93077 25.4199 7.62033 28.0956C9.30989 30.7714 11.755 32.886 14.6463 34.1721C17.5377 35.4582 20.7455 35.858 23.8641 35.321C26.9827 34.784 29.872 33.3343 32.1667 31.1552C34.4614 28.9761 36.0584 26.1655 36.7557 23.0787C37.453 19.992 37.2193 16.7678 36.0842 13.8139C34.9492 10.86 32.9636 8.30903 30.3787 6.48356C27.7938 4.65809 24.7256 3.64013 21.5622 3.5584" stroke="#2DB560" stroke-width="2.5" stroke-linecap="round"/>
<path d="M13.7751 5.3536C11.4361 6.56823 9.43332 8.34185 7.94482 10.5168" stroke="#2DB560" stroke-width="2.5" stroke-linecap="round"/>
<path d="M2.14893 23.553L5.14893 18.553L9.14893 22.553" stroke="#2DB560" stroke-width="2.5" stroke-linecap="round" stroke-linejoin="round"/>
<path opacity="0.5" d="M20.2827 22.9851H16.9334C18.3593 21.7962 19.3602 20.8193 19.9241 20.0568L19.9247 20.056C20.5424 19.2123 20.8627 18.3651 20.8627 17.5176C20.8627 16.6782 20.5976 16.0026 20.048 15.5193C19.5019 15.0309 18.7474 14.8 17.8124 14.8C17.029 14.8 16.2828 14.9338 15.5752 15.2022L15.5751 15.2022L15.5718 15.2035C15.3909 15.2759 15.2416 15.3842 15.1388 15.535C15.0359 15.6859 14.99 15.864 14.99 16.0581C14.99 16.2359 15.0751 16.3804 15.2251 16.472L15.2337 16.4773L15.2428 16.4817C15.393 16.5537 15.5526 16.5612 15.7077 16.4992L15.7078 16.4994L15.715 16.4961C16.4216 16.1806 17.0778 16.027 17.6857 16.027C18.2902 16.027 18.7156 16.1703 18.9952 16.4249C19.2716 16.6767 19.4239 17.0537 19.4239 17.5905C19.4239 18.2199 19.1502 18.9072 18.567 19.6565C17.9825 20.3992 16.8669 21.4367 15.2054 22.7728C14.9383 22.9805 14.8 23.2612 14.8 23.5986C14.8 23.7648 14.8692 23.9085 14.9882 24.0227C15.1103 24.1399 15.2614 24.2 15.4307 24.2H20.2827C20.4505 24.2 20.6004 24.1406 20.7163 24.0191C20.833 23.9055 20.9008 23.7631 20.9008 23.5986C20.9008 23.4288 20.8349 23.2799 20.7126 23.1625C20.5936 23.0483 20.4478 22.9851 20.2827 22.9851ZM23.4025 20.9419L26.2283 17.113V20.9419H23.4025ZM21.9625 21.9476L21.9623 21.9478L21.9699 21.9551C22.092 22.0723 22.2432 22.1324 22.4125 22.1324H26.2283V23.5257C26.2283 23.7137 26.294 23.8807 26.4292 24.0105L26.429 24.0106L26.4355 24.0164C26.5734 24.1377 26.7387 24.2 26.9224 24.2C27.1111 24.2 27.2811 24.1397 27.4156 24.0105C27.5526 23.879 27.6291 23.7147 27.6291 23.5257V22.1324H28.5946C28.7536 22.1324 28.8969 22.0776 29.0118 21.9672C29.1342 21.8498 29.2 21.7009 29.2 21.5311C29.2 21.373 29.1411 21.233 29.0283 21.1229C28.9123 21.0013 28.7624 20.9419 28.5946 20.9419H27.6291V15.5959C27.6291 15.409 27.5541 15.2478 27.4157 15.1232C27.2832 14.9877 27.1136 14.9216 26.9224 14.9216C26.525 14.9216 26.201 15.0786 25.9751 15.3933L22.074 20.695L22.0738 20.6953C21.8894 20.9468 21.7944 21.2271 21.7944 21.5311C21.7944 21.6903 21.8538 21.8317 21.9625 21.9476Z" fill="#2DB560" stroke="#2DB560" stroke-width="0.4"/>
</g>
<defs>
<clipPath id="clip0_1046_25161">
<rect width="40" height="40" fill="white"/>
</clipPath>
</defs>
</svg>
