<svg width="40" height="40" viewBox="0 0 40 40" fill="none" xmlns="http://www.w3.org/2000/svg">
<path d="M9.44068 22.3732V14.0593C9.44068 7.95143 14.3921 3 20.5 3C26.6079 3 31.5593 7.95143 31.5593 14.0593V22.3732C31.5593 24.0982 31.9812 25.797 32.7882 27.3216L33.6656 28.9791C34.271 30.1229 33.4419 31.5 32.1477 31.5H8.85233C7.55815 31.5 6.72895 30.1229 7.33442 28.9791L8.21176 27.3216C9.01878 25.797 9.44068 24.0982 9.44068 22.3732Z" stroke="#35C6DB" stroke-width="2.5" stroke-linecap="round" stroke-linejoin="round"/>
<path opacity="0.5" d="M24.5 32C24.5 34.2091 22.7091 36 20.5 36C18.2909 36 16.5 34.2091 16.5 32" stroke="#35C6DB" stroke-width="2.5"/>
</svg>
