<svg width="628" height="400" viewBox="0 0 628 400" fill="none" xmlns="http://www.w3.org/2000/svg">
<g filter="url(#filter0_d_2149_28781)">
<rect x="147.645" y="8.64458" width="826.711" height="296.422" rx="14.5723" fill="white" stroke="#E6E6ED" stroke-width="0.710843"/>
<path d="M148 65.8675H974V99.9879H148V65.8675Z" fill="#F7F7FC"/>
<path d="M171.563 86.8193H176.704V85.5632H173.061V78.5476H171.563V86.8193ZM180.76 86.9404C182.578 86.9404 183.733 85.6601 183.733 83.7416C183.733 81.8191 182.578 80.5348 180.76 80.5348C178.943 80.5348 177.787 81.8191 177.787 83.7416C177.787 85.6601 178.943 86.9404 180.76 86.9404ZM180.768 85.7692C179.763 85.7692 179.27 84.8725 179.27 83.7376C179.27 82.6027 179.763 81.6939 180.768 81.6939C181.758 81.6939 182.25 82.6027 182.25 83.7376C182.25 84.8725 181.758 85.7692 180.768 85.7692ZM187.793 86.9404C189.352 86.9404 190.346 86.0155 190.451 84.6989H189.054C188.928 85.3653 188.448 85.749 187.806 85.749C186.893 85.749 186.303 84.9856 186.303 83.7174C186.303 82.4654 186.905 81.7141 187.806 81.7141C188.508 81.7141 188.941 82.1665 189.054 82.7642H190.451C190.35 81.4193 189.3 80.5348 187.785 80.5348C185.968 80.5348 184.821 81.8474 184.821 83.7416C184.821 85.6197 185.94 86.9404 187.793 86.9404ZM193.551 86.9445C194.524 86.9445 195.105 86.4881 195.372 85.9671H195.421V86.8193H196.826V82.6673C196.826 81.0275 195.489 80.5348 194.306 80.5348C193.001 80.5348 192 81.1164 191.676 82.2473L193.042 82.4411C193.187 82.017 193.599 81.6535 194.314 81.6535C194.992 81.6535 195.364 82.0009 195.364 82.6108V82.635C195.364 83.055 194.924 83.0752 193.829 83.1924C192.626 83.3216 191.475 83.6811 191.475 85.0785C191.475 86.2983 192.367 86.9445 193.551 86.9445ZM193.93 85.8701C193.32 85.8701 192.884 85.5915 192.884 85.0543C192.884 84.4929 193.373 84.2586 194.027 84.1657C194.411 84.1132 195.178 84.0163 195.368 83.8628V84.5939C195.368 85.2845 194.811 85.8701 193.93 85.8701ZM201.508 80.6156H200.284V79.1292H198.822V80.6156H197.941V81.7464H198.822V85.1956C198.814 86.3629 199.662 86.9364 200.761 86.9041C201.177 86.892 201.463 86.8112 201.621 86.7587L201.374 85.6157C201.294 85.6359 201.128 85.6722 200.946 85.6722C200.579 85.6722 200.284 85.543 200.284 84.9533V81.7464H201.508V80.6156ZM202.844 86.8193H204.306V80.6156H202.844V86.8193ZM203.579 79.7351C204.044 79.7351 204.423 79.3797 204.423 78.9435C204.423 78.5032 204.044 78.1478 203.579 78.1478C203.111 78.1478 202.731 78.5032 202.731 78.9435C202.731 79.3797 203.111 79.7351 203.579 79.7351ZM208.63 86.9404C210.447 86.9404 211.602 85.6601 211.602 83.7416C211.602 81.8191 210.447 80.5348 208.63 80.5348C206.812 80.5348 205.657 81.8191 205.657 83.7416C205.657 85.6601 206.812 86.9404 208.63 86.9404ZM208.638 85.7692C207.632 85.7692 207.139 84.8725 207.139 83.7376C207.139 82.6027 207.632 81.6939 208.638 81.6939C209.627 81.6939 210.12 82.6027 210.12 83.7376C210.12 84.8725 209.627 85.7692 208.638 85.7692ZM214.419 83.1843C214.419 82.2876 214.96 81.7707 215.732 81.7707C216.487 81.7707 216.939 82.2675 216.939 83.0954V86.8193H218.401V82.8692C218.405 81.3829 217.557 80.5348 216.277 80.5348C215.348 80.5348 214.71 80.9791 214.427 81.6697H214.354V80.6156H212.957V86.8193H214.419V83.1843Z" fill="#888A95"/>
<path d="M386.197 86.8193C388.718 86.8193 390.212 85.2603 390.212 82.6754C390.212 80.0986 388.718 78.5476 386.254 78.5476H383.394V86.8193H386.197ZM384.893 85.5228V79.8441H386.169C387.849 79.8441 388.726 80.7811 388.726 82.6754C388.726 84.5777 387.849 85.5228 386.125 85.5228H384.893ZM393.47 86.9445C394.443 86.9445 395.025 86.4881 395.292 85.9671H395.34V86.8193H396.746V82.6673C396.746 81.0275 395.409 80.5348 394.225 80.5348C392.921 80.5348 391.919 81.1164 391.596 82.2473L392.961 82.4411C393.107 82.017 393.519 81.6535 394.233 81.6535C394.912 81.6535 395.284 82.0009 395.284 82.6108V82.635C395.284 83.055 394.843 83.0752 393.749 83.1924C392.545 83.3216 391.394 83.6811 391.394 85.0785C391.394 86.2983 392.287 86.9445 393.47 86.9445ZM393.85 85.8701C393.24 85.8701 392.804 85.5915 392.804 85.0543C392.804 84.4929 393.292 84.2586 393.947 84.1657C394.33 84.1132 395.098 84.0163 395.288 83.8628V84.5939C395.288 85.2845 394.73 85.8701 393.85 85.8701ZM399.016 89.1457C400.155 89.1457 400.813 88.56 401.165 87.5705L403.657 80.6236L402.094 80.6156L400.66 85.3007H400.595L399.166 80.6156H397.615L399.864 86.9485L399.739 87.2837C399.468 87.9906 399.04 88.039 398.402 87.8532L398.063 88.9922C398.261 89.073 398.616 89.1457 399.016 89.1457Z" fill="#888A95"/>
<path d="M411.154 80.8313L413.819 78.1656L416.485 80.8313" stroke="#A6A8B3" stroke-width="1.06627" stroke-linecap="round" stroke-linejoin="round"/>
<path d="M411.154 85.8072L413.819 88.4729L416.485 85.8072" stroke="#A6A8B3" stroke-width="1.06627" stroke-linecap="round" stroke-linejoin="round"/>
<path d="M468.655 86.8193C471.175 86.8193 472.67 85.2603 472.67 82.6754C472.67 80.0986 471.175 78.5476 468.712 78.5476H465.852V86.8193H468.655ZM467.35 85.5228V79.8441H468.627C470.307 79.8441 471.183 80.7811 471.183 82.6754C471.183 84.5777 470.307 85.5228 468.582 85.5228H467.35ZM475.928 86.9445C476.901 86.9445 477.483 86.4881 477.749 85.9671H477.798V86.8193H479.203V82.6673C479.203 81.0275 477.866 80.5348 476.683 80.5348C475.378 80.5348 474.377 81.1164 474.054 82.2473L475.419 82.4411C475.564 82.017 475.976 81.6535 476.691 81.6535C477.37 81.6535 477.741 82.0009 477.741 82.6108V82.635C477.741 83.055 477.301 83.0752 476.206 83.1924C475.003 83.3216 473.852 83.6811 473.852 85.0785C473.852 86.2983 474.744 86.9445 475.928 86.9445ZM476.307 85.8701C475.697 85.8701 475.261 85.5915 475.261 85.0543C475.261 84.4929 475.75 84.2586 476.404 84.1657C476.788 84.1132 477.555 84.0163 477.745 83.8628V84.5939C477.745 85.2845 477.188 85.8701 476.307 85.8701ZM483.885 80.6156H482.661V79.1292H481.199V80.6156H480.319V81.7464H481.199V85.1956C481.191 86.3629 482.039 86.9364 483.138 86.9041C483.554 86.892 483.84 86.8112 483.998 86.7587L483.752 85.6157C483.671 85.6359 483.505 85.6722 483.323 85.6722C482.956 85.6722 482.661 85.543 482.661 84.9533V81.7464H483.885V80.6156ZM487.901 86.9404C489.347 86.9404 490.341 86.2336 490.599 85.1553L489.234 85.0018C489.036 85.5268 488.551 85.8015 487.921 85.8015C486.976 85.8015 486.35 85.1795 486.338 84.1173H490.66V83.6689C490.66 81.492 489.351 80.5348 487.824 80.5348C486.047 80.5348 484.888 81.8393 484.888 83.7538C484.888 85.7005 486.031 86.9404 487.901 86.9404ZM486.342 83.1318C486.387 82.3402 486.972 81.6737 487.845 81.6737C488.685 81.6737 489.25 82.2876 489.258 83.1318H486.342Z" fill="#888A95"/>
<path d="M498.611 80.4397L501.277 77.7741L503.943 80.4397" stroke="#A6A8B3" stroke-width="1.06627" stroke-linecap="round" stroke-linejoin="round"/>
<path d="M498.611 85.4157L501.277 88.0813L503.943 85.4157" stroke="#A6A8B3" stroke-width="1.06627" stroke-linecap="round" stroke-linejoin="round"/>
<path d="M550.79 79.8037H553.346V86.8193H554.833V79.8037H557.389V78.5476H550.79V79.8037ZM558.711 86.8193H560.173V80.6156H558.711V86.8193ZM559.446 79.7351C559.91 79.7351 560.29 79.3797 560.29 78.9435C560.29 78.5032 559.91 78.1478 559.446 78.1478C558.977 78.1478 558.598 78.5032 558.598 78.9435C558.598 79.3797 558.977 79.7351 559.446 79.7351ZM561.79 86.8193H563.252V83.047C563.252 82.2836 563.761 81.7666 564.391 81.7666C565.009 81.7666 565.433 82.1826 565.433 82.8208V86.8193H566.867V82.95C566.867 82.2513 567.283 81.7666 567.99 81.7666C568.579 81.7666 569.048 82.114 569.048 82.8814V86.8193H570.514V82.6552C570.514 81.2698 569.714 80.5348 568.575 80.5348C567.675 80.5348 566.988 80.9791 566.713 81.6697H566.649C566.41 80.9669 565.809 80.5348 564.973 80.5348C564.141 80.5348 563.519 80.9629 563.26 81.6697H563.187V80.6156H561.79V86.8193ZM574.857 86.9404C576.303 86.9404 577.297 86.2336 577.555 85.1553L576.19 85.0018C575.992 85.5268 575.508 85.8015 574.878 85.8015C573.932 85.8015 573.306 85.1795 573.294 84.1173H577.616V83.6689C577.616 81.492 576.307 80.5348 574.781 80.5348C573.004 80.5348 571.844 81.8393 571.844 83.7538C571.844 85.7005 572.987 86.9404 574.857 86.9404ZM573.298 83.1318C573.343 82.3402 573.928 81.6737 574.801 81.6737C575.641 81.6737 576.206 82.2876 576.214 83.1318H573.298Z" fill="#888A95"/>
<path d="M584.913 80.4397L587.578 77.7741L590.244 80.4397" stroke="#A6A8B3" stroke-width="1.06627" stroke-linecap="round" stroke-linejoin="round"/>
<path d="M584.913 85.4157L587.578 88.0813L590.244 85.4157" stroke="#A6A8B3" stroke-width="1.06627" stroke-linecap="round" stroke-linejoin="round"/>
<line x1="165.06" y1="150.633" x2="956.94" y2="150.633" stroke="#E6E6ED" stroke-width="0.710843"/>
<path d="M171.749 129.861H172.75V127.18L173.784 126.016L176.66 129.861H177.872L174.398 125.322L177.872 121.59H176.563L172.847 125.693H172.75V121.59H171.749V129.861ZM179.992 126.13C179.992 125.047 180.663 124.433 181.575 124.433C182.46 124.433 182.997 125.011 182.997 125.984V129.861H183.95V125.92C183.95 124.336 183.106 123.577 181.85 123.577C180.913 123.577 180.331 123.997 180.041 124.627H179.96V123.658H179.039V129.861H179.992V126.13ZM188.212 129.991C189.892 129.991 191.023 128.714 191.023 126.792C191.023 124.853 189.892 123.577 188.212 123.577C186.532 123.577 185.401 124.853 185.401 126.792C185.401 128.714 186.532 129.991 188.212 129.991ZM188.212 129.134C186.936 129.134 186.354 128.036 186.354 126.792C186.354 125.548 186.936 124.433 188.212 124.433C189.488 124.433 190.07 125.548 190.07 126.792C190.07 128.036 189.488 129.134 188.212 129.134ZM193.673 129.861H194.61L195.967 125.096H196.064L197.421 129.861H198.358L200.248 123.658H199.246L197.906 128.391H197.841L196.532 123.658H195.515L194.19 128.407H194.125L192.784 123.658H191.783L193.673 129.861ZM205.903 125.047C205.604 124.167 204.933 123.577 203.705 123.577C202.397 123.577 201.427 124.32 201.427 125.37C201.427 126.226 201.936 126.8 203.075 127.067L204.109 127.309C204.735 127.454 205.03 127.753 205.03 128.181C205.03 128.714 204.465 129.151 203.576 129.151C202.797 129.151 202.308 128.815 202.138 128.149L201.234 128.375C201.456 129.429 202.324 129.991 203.592 129.991C205.034 129.991 206.016 129.203 206.016 128.133C206.016 127.268 205.474 126.723 204.368 126.453L203.447 126.226C202.712 126.045 202.381 125.798 202.381 125.322C202.381 124.789 202.946 124.401 203.705 124.401C204.537 124.401 204.881 124.861 205.046 125.289L205.903 125.047ZM208.404 121.59H207.45V129.861H208.404V121.59ZM212.75 129.991C214.011 129.991 214.931 129.361 215.222 128.424L214.301 128.165C214.059 128.811 213.498 129.134 212.75 129.134C211.632 129.134 210.86 128.411 210.816 127.083H215.319V126.679C215.319 124.369 213.946 123.577 212.654 123.577C210.973 123.577 209.859 124.902 209.859 126.808C209.859 128.714 210.957 129.991 212.75 129.991ZM210.816 126.259C210.88 125.293 211.563 124.433 212.654 124.433C213.687 124.433 214.35 125.209 214.35 126.259H210.816ZM217.194 132.188C218.055 132.188 218.66 131.731 219.02 130.766L221.661 123.674L220.619 123.658L218.907 128.601H218.842L217.13 123.658H216.096L218.39 129.894L218.212 130.378C217.865 131.324 217.437 131.412 216.742 131.235L216.5 132.075C216.596 132.123 216.871 132.188 217.194 132.188ZM226.46 126.372C226.46 128.407 227.01 130.104 227.995 131.542H228.835C228.06 130.475 227.446 128.294 227.446 126.372C227.446 124.449 228.06 122.268 228.835 121.202H227.995C227.01 122.64 226.46 124.336 226.46 126.372ZM232.924 129.861C235.444 129.861 236.866 128.294 236.866 125.709C236.866 123.141 235.444 121.59 233.037 121.59H230.371V129.861H232.924ZM231.373 128.973V122.478H232.972C234.911 122.478 235.896 123.706 235.896 125.709C235.896 127.729 234.911 128.973 232.859 128.973H231.373ZM240.048 129.861H241.082L242.908 123.27H242.972L244.798 129.861H245.832L248.094 121.59H247.076L245.347 128.327H245.266L243.506 121.59H242.375L240.614 128.327H240.533L238.804 121.59H237.786L240.048 129.861ZM255.901 121.59H254.915V128.1H254.835L250.311 121.59H249.342V129.861H250.343V123.367H250.424L254.932 129.861H255.901V121.59ZM260.668 121.59H259.666L257.598 122.963V123.981L259.618 122.64H259.666V129.861H260.668V121.59ZM265.098 125.726C265.098 123.69 264.549 121.994 263.564 120.556H262.724C263.499 121.622 264.113 123.803 264.113 125.726C264.113 127.648 263.499 129.829 262.724 130.895H263.564C264.549 129.458 265.098 127.761 265.098 125.726ZM273.936 125.281H270.318V126.17H273.936V125.281ZM279.281 129.861L280.113 127.519H283.457L284.289 129.861H285.339L282.302 121.59H281.268L278.231 129.861H279.281ZM280.428 126.63L281.753 122.898H281.817L283.142 126.63H280.428ZM286.628 121.59V129.861H287.565V123.577H287.645L290.23 129.861H291.135L293.72 123.577H293.801V129.861H294.738V121.59H293.542L290.731 128.456H290.634L287.823 121.59H286.628ZM296.471 129.861H302.174V128.973H297.667L302.126 122.317V121.59H296.423V122.478H300.93L296.471 129.134V129.861ZM303.855 129.861H308.701V128.973H304.856V121.59H303.855V129.861Z" fill="#0A0A0A"/>
<path d="M385.083 129.861H386.117L387.942 123.27H388.007L389.832 129.861H390.866L393.128 121.59H392.11L390.382 128.327H390.301L388.54 121.59H387.409L385.648 128.327H385.567L383.839 121.59H382.821L385.083 129.861ZM396.27 129.991C397.531 129.991 398.451 129.361 398.742 128.424L397.821 128.165C397.579 128.811 397.018 129.134 396.27 129.134C395.152 129.134 394.38 128.411 394.336 127.083H398.839V126.679C398.839 124.369 397.466 123.577 396.173 123.577C394.493 123.577 393.379 124.902 393.379 126.808C393.379 128.714 394.477 129.991 396.27 129.991ZM394.336 126.259C394.4 125.293 395.083 124.433 396.173 124.433C397.207 124.433 397.87 125.209 397.87 126.259H394.336ZM402.632 129.991C403.827 129.991 404.231 129.248 404.441 128.908H404.554V129.861H405.475V121.59H404.522V124.643H404.441C404.231 124.32 403.859 123.577 402.648 123.577C401.081 123.577 399.998 124.821 399.998 126.776C399.998 128.747 401.081 129.991 402.632 129.991ZM402.761 129.134C401.565 129.134 400.951 128.084 400.951 126.76C400.951 125.451 401.549 124.433 402.761 124.433C403.924 124.433 404.538 125.37 404.538 126.76C404.538 128.165 403.908 129.134 402.761 129.134Z" fill="#0A0A0A"/>
<path d="M470.561 123.658H471.531C471.486 122.41 470.335 121.477 468.736 121.477C467.153 121.477 465.909 122.398 465.909 123.787C465.909 124.902 466.716 125.564 468.009 125.936L469.027 126.226C469.899 126.469 470.674 126.776 470.674 127.6C470.674 128.504 469.802 129.102 468.655 129.102C467.669 129.102 466.797 128.666 466.716 127.729H465.682C465.779 129.086 466.878 130.007 468.655 130.007C470.561 130.007 471.644 128.957 471.644 127.616C471.644 126.065 470.174 125.564 469.317 125.338L468.477 125.112C467.863 124.95 466.878 124.627 466.878 123.739C466.878 122.947 467.605 122.365 468.703 122.365C469.705 122.365 470.464 122.842 470.561 123.658ZM475.762 129.991C477.023 129.991 477.943 129.361 478.234 128.424L477.313 128.165C477.071 128.811 476.51 129.134 475.762 129.134C474.644 129.134 473.872 128.411 473.828 127.083H478.331V126.679C478.331 124.369 476.958 123.577 475.665 123.577C473.985 123.577 472.871 124.902 472.871 126.808C472.871 128.714 473.969 129.991 475.762 129.991ZM473.828 126.259C473.892 125.293 474.575 124.433 475.665 124.433C476.699 124.433 477.362 125.209 477.362 126.259H473.828ZM479.781 132.188H480.734V128.908H480.815C481.025 129.248 481.429 129.991 482.624 129.991C484.175 129.991 485.258 128.747 485.258 126.776C485.258 124.821 484.175 123.577 482.608 123.577C481.397 123.577 481.025 124.32 480.815 124.643H480.702V123.658H479.781V132.188ZM480.718 126.76C480.718 125.37 481.332 124.433 482.495 124.433C483.707 124.433 484.305 125.451 484.305 126.76C484.305 128.084 483.691 129.134 482.495 129.134C481.348 129.134 480.718 128.165 480.718 126.76ZM489.894 129.861H495.113V128.973H491.268V128.908L493.126 126.921C494.547 125.398 494.967 124.688 494.967 123.771C494.967 122.495 493.933 121.477 492.479 121.477C491.029 121.477 489.927 122.462 489.927 123.916H490.88C490.88 122.975 491.49 122.349 492.447 122.349C493.344 122.349 494.03 122.898 494.03 123.771C494.03 124.534 493.582 125.1 492.625 126.146L489.894 129.134V129.861ZM496.781 129.861H501.999V128.973H498.154V128.908L500.012 126.921C501.434 125.398 501.854 124.688 501.854 123.771C501.854 122.495 500.82 121.477 499.366 121.477C497.916 121.477 496.813 122.462 496.813 123.916H497.766C497.766 122.975 498.376 122.349 499.333 122.349C500.23 122.349 500.917 122.898 500.917 123.771C500.917 124.534 500.468 125.1 499.511 126.146L496.781 129.134V129.861Z" fill="#0A0A0A"/>
<path d="M554.102 121.59H553.1L551.032 122.963V123.981L553.052 122.64H553.1V129.861H554.102V121.59ZM556.739 129.861H557.789L561.473 122.527V121.59H556.174V122.478H560.439V122.543L556.739 129.861ZM563.3 128.803C563.7 128.803 564.027 128.476 564.027 128.076C564.027 127.676 563.7 127.349 563.3 127.349C562.9 127.349 562.573 127.676 562.573 128.076C562.573 128.476 562.9 128.803 563.3 128.803ZM563.3 124.619C563.7 124.619 564.027 124.292 564.027 123.892C564.027 123.492 563.7 123.165 563.3 123.165C562.9 123.165 562.573 123.492 562.573 123.892C562.573 124.292 562.9 124.619 563.3 124.619ZM565.528 128.165H569.421V129.861H570.374V128.165H571.505V127.277H570.374V121.59H569.163L565.528 127.341V128.165ZM569.421 127.277H566.61V127.212L569.357 122.866H569.421V127.277ZM575.604 129.975C577.179 129.975 578.334 128.811 578.334 127.228C578.334 125.625 577.219 124.449 575.701 124.449C575.143 124.449 574.602 124.647 574.263 124.918H574.214L574.505 122.478H577.962V121.59H573.665L573.164 125.661L574.101 125.774C574.444 125.528 575.03 125.35 575.539 125.354C576.593 125.362 577.365 126.162 577.365 127.244C577.365 128.306 576.621 129.086 575.604 129.086C574.755 129.086 574.081 128.541 574.004 127.794H573.035C573.095 129.054 574.182 129.975 575.604 129.975ZM586.708 125.281H583.089V126.17H586.708V125.281ZM591.567 129.861H596.786V128.973H592.941V128.908L594.798 126.921C596.22 125.398 596.64 124.688 596.64 123.771C596.64 122.495 595.606 121.477 594.152 121.477C592.702 121.477 591.6 122.462 591.6 123.916H592.553C592.553 122.975 593.163 122.349 594.12 122.349C595.017 122.349 595.703 122.898 595.703 123.771C595.703 124.534 595.255 125.1 594.298 126.146L591.567 129.134V129.861ZM601.362 121.59H600.36L598.292 122.963V123.981L600.312 122.64H600.36V129.861H601.362V121.59ZM604.451 128.803C604.851 128.803 605.178 128.476 605.178 128.076C605.178 127.676 604.851 127.349 604.451 127.349C604.052 127.349 603.724 127.676 603.724 128.076C603.724 128.476 604.052 128.803 604.451 128.803ZM604.451 124.619C604.851 124.619 605.178 124.292 605.178 123.892C605.178 123.492 604.851 123.165 604.451 123.165C604.052 123.165 603.724 123.492 603.724 123.892C603.724 124.292 604.052 124.619 604.451 124.619ZM609.781 121.59H608.779L606.711 122.963V123.981L608.731 122.64H608.779V129.861H609.781V121.59ZM614.744 129.975C616.32 129.975 617.475 128.811 617.475 127.228C617.475 125.625 616.36 124.449 614.841 124.449C614.284 124.449 613.743 124.647 613.404 124.918H613.355L613.646 122.478H617.103V121.59H612.806L612.305 125.661L613.242 125.774C613.585 125.528 614.171 125.35 614.68 125.354C615.734 125.362 616.505 126.162 616.505 127.244C616.505 128.306 615.762 129.086 614.744 129.086C613.896 129.086 613.222 128.541 613.145 127.794H612.176C612.236 129.054 613.323 129.975 614.744 129.975Z" fill="#0A0A0A"/>
<line x1="165.06" y1="201.813" x2="956.94" y2="201.813" stroke="#E6E6ED" stroke-width="0.710843"/>
<path d="M171.749 181.042H176.595V180.154H172.75V172.771H171.749V181.042ZM180.618 181.171C181.878 181.171 182.799 180.541 183.09 179.604L182.169 179.346C181.927 179.992 181.365 180.315 180.618 180.315C179.499 180.315 178.728 179.592 178.683 178.263H183.187V177.86C183.187 175.549 181.814 174.758 180.521 174.758C178.841 174.758 177.726 176.082 177.726 177.989C177.726 179.895 178.825 181.171 180.618 181.171ZM178.683 177.439C178.748 176.474 179.431 175.614 180.521 175.614C181.555 175.614 182.217 176.389 182.217 177.439H178.683ZM185.062 183.369C185.922 183.369 186.528 182.912 186.887 181.947L189.529 174.855L188.487 174.838L186.774 179.782H186.71L184.997 174.838H183.963L186.257 181.074L186.08 181.559C185.732 182.504 185.304 182.593 184.61 182.415L184.367 183.255C184.464 183.304 184.739 183.369 185.062 183.369ZM191.743 172.771H190.79V181.042H191.743V172.771ZM195.315 181.188C196.397 181.188 196.962 180.606 197.156 180.202H197.205V181.042H198.158V176.955C198.158 174.984 196.655 174.758 195.864 174.758C194.927 174.758 193.861 175.081 193.376 176.212L194.281 176.535C194.491 176.082 194.987 175.598 195.896 175.598C196.773 175.598 197.205 176.062 197.205 176.858V176.89C197.205 177.351 196.736 177.31 195.605 177.456C194.454 177.605 193.198 177.86 193.198 179.281C193.198 180.493 194.135 181.188 195.315 181.188ZM195.46 180.331C194.701 180.331 194.151 179.992 194.151 179.33C194.151 178.603 194.814 178.377 195.557 178.28C195.961 178.231 197.043 178.118 197.205 177.924V178.797C197.205 179.572 196.591 180.331 195.46 180.331ZM200.851 177.31C200.851 176.228 201.521 175.614 202.434 175.614C203.319 175.614 203.856 176.191 203.856 177.165V181.042H204.809V177.1C204.809 175.517 203.965 174.758 202.709 174.758C201.772 174.758 201.19 175.178 200.899 175.808H200.819V174.838H199.898V181.042H200.851V177.31ZM208.893 181.171C210.089 181.171 210.493 180.428 210.703 180.089H210.816V181.042H211.737V172.771H210.784V175.824H210.703C210.493 175.501 210.121 174.758 208.909 174.758C207.342 174.758 206.26 176.002 206.26 177.956C206.26 179.927 207.342 181.171 208.893 181.171ZM209.023 180.315C207.827 180.315 207.213 179.265 207.213 177.94C207.213 176.632 207.811 175.614 209.023 175.614C210.186 175.614 210.8 176.551 210.8 177.94C210.8 179.346 210.17 180.315 209.023 180.315ZM217.153 177.553C217.153 179.588 217.702 181.285 218.688 182.722H219.528C218.752 181.656 218.138 179.475 218.138 177.553C218.138 175.63 218.752 173.449 219.528 172.383H218.688C217.702 173.821 217.153 175.517 217.153 177.553ZM223.616 181.042C226.136 181.042 227.558 179.475 227.558 176.89C227.558 174.321 226.136 172.771 223.729 172.771H221.063V181.042H223.616ZM222.065 180.154V173.659H223.665C225.603 173.659 226.589 174.887 226.589 176.89C226.589 178.91 225.603 180.154 223.551 180.154H222.065ZM229.238 181.042H230.24V178.021H232.049C233.976 178.021 234.844 176.85 234.844 175.388C234.844 173.926 233.976 172.771 232.033 172.771H229.238V181.042ZM230.24 177.133V173.659H232.001C233.346 173.659 233.859 174.394 233.859 175.388C233.859 176.381 233.346 177.133 232.017 177.133H230.24ZM236.458 181.042H237.459V177.811H239.269C239.341 177.811 239.41 177.811 239.479 177.807L241.224 181.042H242.387L240.517 177.625C241.571 177.266 242.064 176.406 242.064 175.307C242.064 173.845 241.191 172.771 239.253 172.771H236.458V181.042ZM237.459 176.906V173.659H239.22C240.561 173.659 241.078 174.313 241.078 175.307C241.078 176.301 240.561 176.906 239.236 176.906H237.459ZM246.495 172.771H245.494L243.426 174.144V175.162L245.445 173.821H245.494V181.042H246.495V172.771ZM250.926 176.906C250.926 174.871 250.377 173.174 249.391 171.737H248.551C249.327 172.803 249.94 174.984 249.94 176.906C249.94 178.829 249.327 181.01 248.551 182.076H249.391C250.377 180.638 250.926 178.942 250.926 176.906ZM259.764 176.462H256.145V177.351H259.764V176.462ZM265.109 181.042L265.941 178.7H269.285L270.117 181.042H271.167L268.13 172.771H267.096L264.058 181.042H265.109ZM266.256 177.811L267.58 174.079H267.645L268.97 177.811H266.256ZM272.455 172.771V181.042H273.392V174.758H273.473L276.058 181.042H276.963L279.548 174.758H279.628V181.042H280.565V172.771H279.37L276.559 179.637H276.462L273.651 172.771H272.455ZM282.299 181.042H288.002V180.154H283.495L287.953 173.498V172.771H282.251V173.659H286.758L282.299 180.315V181.042ZM289.682 181.042H294.529V180.154H290.684V172.771H289.682V181.042Z" fill="#0A0A0A"/>
<path d="M385.082 181.042H386.116L387.942 174.451H388.007L389.832 181.042H390.866L393.128 172.771H392.11L390.381 179.507H390.301L388.54 172.771H387.409L385.648 179.507H385.567L383.839 172.771H382.821L385.082 181.042ZM396.27 181.171C397.53 181.171 398.451 180.541 398.742 179.604L397.821 179.346C397.579 179.992 397.017 180.315 396.27 180.315C395.151 180.315 394.38 179.592 394.336 178.263H398.839V177.86C398.839 175.549 397.466 174.758 396.173 174.758C394.493 174.758 393.378 176.082 393.378 177.989C393.378 179.895 394.477 181.171 396.27 181.171ZM394.336 177.439C394.4 176.474 395.083 175.614 396.173 175.614C397.207 175.614 397.87 176.389 397.87 177.439H394.336ZM402.631 181.171C403.827 181.171 404.231 180.428 404.441 180.089H404.554V181.042H405.475V172.771H404.522V175.824H404.441C404.231 175.501 403.859 174.758 402.648 174.758C401.08 174.758 399.998 176.002 399.998 177.956C399.998 179.927 401.08 181.171 402.631 181.171ZM402.761 180.315C401.565 180.315 400.951 179.265 400.951 177.94C400.951 176.632 401.549 175.614 402.761 175.614C403.924 175.614 404.538 176.551 404.538 177.94C404.538 179.346 403.908 180.315 402.761 180.315Z" fill="#0A0A0A"/>
<path d="M470.561 174.838H471.531C471.486 173.59 470.335 172.657 468.736 172.657C467.153 172.657 465.909 173.578 465.909 174.968C465.909 176.082 466.716 176.745 468.009 177.116L469.027 177.407C469.899 177.65 470.674 177.956 470.674 178.78C470.674 179.685 469.802 180.283 468.655 180.283C467.669 180.283 466.797 179.847 466.716 178.91H465.682C465.779 180.267 466.878 181.188 468.655 181.188C470.561 181.188 471.644 180.137 471.644 178.797C471.644 177.246 470.174 176.745 469.317 176.519L468.477 176.292C467.863 176.131 466.878 175.808 466.878 174.919C466.878 174.128 467.605 173.546 468.703 173.546C469.705 173.546 470.464 174.023 470.561 174.838ZM475.762 181.171C477.023 181.171 477.943 180.541 478.234 179.604L477.313 179.346C477.071 179.992 476.51 180.315 475.762 180.315C474.644 180.315 473.872 179.592 473.828 178.263H478.331V177.86C478.331 175.549 476.958 174.758 475.665 174.758C473.985 174.758 472.871 176.082 472.871 177.989C472.871 179.895 473.969 181.171 475.762 181.171ZM473.828 177.439C473.892 176.474 474.575 175.614 475.665 175.614C476.699 175.614 477.362 176.389 477.362 177.439H473.828ZM479.781 183.369H480.734V180.089H480.815C481.025 180.428 481.429 181.171 482.624 181.171C484.175 181.171 485.258 179.927 485.258 177.956C485.258 176.002 484.175 174.758 482.608 174.758C481.397 174.758 481.025 175.501 480.815 175.824H480.702V174.838H479.781V183.369ZM480.718 177.94C480.718 176.551 481.332 175.614 482.495 175.614C483.707 175.614 484.305 176.632 484.305 177.94C484.305 179.265 483.691 180.315 482.495 180.315C481.348 180.315 480.718 179.346 480.718 177.94ZM489.894 181.042H495.113V180.154H491.268V180.089L493.126 178.102C494.547 176.579 494.967 175.868 494.967 174.952C494.967 173.675 493.933 172.657 492.479 172.657C491.029 172.657 489.927 173.643 489.927 175.097H490.88C490.88 174.156 491.49 173.53 492.447 173.53C493.344 173.53 494.03 174.079 494.03 174.952C494.03 175.715 493.582 176.28 492.625 177.326L489.894 180.315V181.042ZM496.781 181.042H501.999V180.154H498.154V180.089L500.012 178.102C501.434 176.579 501.854 175.868 501.854 174.952C501.854 173.675 500.82 172.657 499.366 172.657C497.916 172.657 496.813 173.643 496.813 175.097H497.766C497.766 174.156 498.376 173.53 499.333 173.53C500.23 173.53 500.917 174.079 500.917 174.952C500.917 175.715 500.468 176.28 499.511 177.326L496.781 180.315V181.042Z" fill="#0A0A0A"/>
<path d="M554.102 172.771H553.1L551.032 174.144V175.162L553.052 173.821H553.1V181.042H554.102V172.771ZM556.739 181.042H557.789L561.473 173.708V172.771H556.174V173.659H560.439V173.724L556.739 181.042ZM563.3 179.984C563.7 179.984 564.027 179.657 564.027 179.257C564.027 178.857 563.7 178.53 563.3 178.53C562.9 178.53 562.573 178.857 562.573 179.257C562.573 179.657 562.9 179.984 563.3 179.984ZM563.3 175.8C563.7 175.8 564.027 175.473 564.027 175.073C564.027 174.673 563.7 174.346 563.3 174.346C562.9 174.346 562.573 174.673 562.573 175.073C562.573 175.473 562.9 175.8 563.3 175.8ZM568.516 181.155C570.12 181.155 571.311 180.15 571.311 178.797C571.311 177.746 570.689 176.983 569.647 176.809V176.745C570.483 176.49 571.004 175.804 571.004 174.871C571.004 173.699 570.079 172.657 568.549 172.657C567.119 172.657 565.932 173.538 565.883 174.838H566.852C566.889 174.015 567.672 173.53 568.533 173.53C569.445 173.53 570.035 174.083 570.035 174.919C570.035 175.792 569.352 176.357 568.371 176.357H567.709V177.246H568.371C569.627 177.246 570.326 177.884 570.326 178.797C570.326 179.673 569.562 180.267 568.5 180.267C567.543 180.267 566.784 179.774 566.723 178.974H565.705C565.766 180.275 566.913 181.155 568.516 181.155ZM575.661 181.155C577.487 181.155 578.537 179.608 578.537 176.906C578.537 174.225 577.471 172.657 575.661 172.657C573.852 172.657 572.786 174.225 572.786 176.906C572.786 179.608 573.836 181.155 575.661 181.155ZM575.661 180.267C574.458 180.267 573.755 179.059 573.755 176.906C573.755 174.758 574.466 173.53 575.661 173.53C576.857 173.53 577.568 174.758 577.568 176.906C577.568 179.059 576.865 180.267 575.661 180.267ZM586.841 176.462H583.222V177.351H586.841V176.462ZM591.701 181.042H596.919V180.154H593.074V180.089L594.932 178.102C596.353 176.579 596.773 175.868 596.773 174.952C596.773 173.675 595.739 172.657 594.285 172.657C592.836 172.657 591.733 173.643 591.733 175.097H592.686C592.686 174.156 593.296 173.53 594.253 173.53C595.15 173.53 595.836 174.079 595.836 174.952C595.836 175.715 595.388 176.28 594.431 177.326L591.701 180.315V181.042ZM601.495 172.771H600.493L598.425 174.144V175.162L600.445 173.821H600.493V181.042H601.495V172.771ZM604.585 179.984C604.984 179.984 605.312 179.657 605.312 179.257C605.312 178.857 604.984 178.53 604.585 178.53C604.185 178.53 603.858 178.857 603.858 179.257C603.858 179.657 604.185 179.984 604.585 179.984ZM604.585 175.8C604.984 175.8 605.312 175.473 605.312 175.073C605.312 174.673 604.984 174.346 604.585 174.346C604.185 174.346 603.858 174.673 603.858 175.073C603.858 175.473 604.185 175.8 604.585 175.8ZM609.704 181.155C611.53 181.155 612.58 179.608 612.58 176.906C612.58 174.225 611.513 172.657 609.704 172.657C607.895 172.657 606.828 174.225 606.828 176.906C606.828 179.608 607.878 181.155 609.704 181.155ZM609.704 180.267C608.5 180.267 607.798 179.059 607.798 176.906C607.798 174.758 608.508 173.53 609.704 173.53C610.899 173.53 611.61 174.758 611.61 176.906C611.61 179.059 610.908 180.267 609.704 180.267ZM616.812 181.155C618.638 181.155 619.688 179.608 619.688 176.906C619.688 174.225 618.622 172.657 616.812 172.657C615.003 172.657 613.937 174.225 613.937 176.906C613.937 179.608 614.987 181.155 616.812 181.155ZM616.812 180.267C615.609 180.267 614.906 179.059 614.906 176.906C614.906 174.758 615.617 173.53 616.812 173.53C618.008 173.53 618.719 174.758 618.719 176.906C618.719 179.059 618.016 180.267 616.812 180.267Z" fill="#0A0A0A"/>
<path d="M171.749 232.223H172.75V229.541L173.784 228.378L176.66 232.223H177.872L174.398 227.683L177.872 223.951H176.563L172.847 228.055H172.75V223.951H171.749V232.223ZM179.992 228.491C179.992 227.409 180.663 226.795 181.575 226.795C182.46 226.795 182.997 227.372 182.997 228.346V232.223H183.95V228.281C183.95 226.698 183.106 225.938 181.85 225.938C180.913 225.938 180.331 226.358 180.041 226.989H179.96V226.019H179.039V232.223H179.992V228.491ZM188.212 232.352C189.892 232.352 191.023 231.076 191.023 229.153C191.023 227.215 189.892 225.938 188.212 225.938C186.532 225.938 185.401 227.215 185.401 229.153C185.401 231.076 186.532 232.352 188.212 232.352ZM188.212 231.496C186.936 231.496 186.354 230.397 186.354 229.153C186.354 227.909 186.936 226.795 188.212 226.795C189.488 226.795 190.07 227.909 190.07 229.153C190.07 230.397 189.488 231.496 188.212 231.496ZM193.673 232.223H194.61L195.967 227.457H196.064L197.421 232.223H198.358L200.248 226.019H199.246L197.906 230.753H197.841L196.532 226.019H195.515L194.19 230.769H194.125L192.784 226.019H191.783L193.673 232.223ZM205.903 227.409C205.604 226.528 204.933 225.938 203.705 225.938C202.397 225.938 201.427 226.682 201.427 227.732C201.427 228.588 201.936 229.161 203.075 229.428L204.109 229.67C204.735 229.816 205.03 230.115 205.03 230.543C205.03 231.076 204.465 231.512 203.576 231.512C202.797 231.512 202.308 231.177 202.138 230.51L201.234 230.737C201.456 231.791 202.324 232.352 203.592 232.352C205.034 232.352 206.016 231.565 206.016 230.494C206.016 229.63 205.474 229.085 204.368 228.814L203.447 228.588C202.712 228.406 202.381 228.16 202.381 227.683C202.381 227.15 202.946 226.762 203.705 226.762C204.537 226.762 204.881 227.223 205.046 227.651L205.903 227.409ZM208.404 223.951H207.45V232.223H208.404V223.951ZM212.75 232.352C214.011 232.352 214.931 231.722 215.222 230.785L214.301 230.527C214.059 231.173 213.498 231.496 212.75 231.496C211.632 231.496 210.86 230.773 210.816 229.444H215.319V229.04C215.319 226.73 213.946 225.938 212.654 225.938C210.973 225.938 209.859 227.263 209.859 229.17C209.859 231.076 210.957 232.352 212.75 232.352ZM210.816 228.62C210.88 227.655 211.563 226.795 212.654 226.795C213.687 226.795 214.35 227.57 214.35 228.62H210.816ZM217.194 234.549C218.055 234.549 218.66 234.093 219.02 233.128L221.661 226.035L220.619 226.019L218.907 230.963H218.842L217.13 226.019H216.096L218.39 232.255L218.212 232.74C217.865 233.685 217.437 233.774 216.742 233.596L216.5 234.436C216.596 234.485 216.871 234.549 217.194 234.549ZM226.46 228.733C226.46 230.769 227.01 232.465 227.995 233.903H228.835C228.06 232.837 227.446 230.656 227.446 228.733C227.446 226.811 228.06 224.63 228.835 223.564H227.995C227.01 225.001 226.46 226.698 226.46 228.733ZM232.924 232.223C235.444 232.223 236.866 230.656 236.866 228.071C236.866 225.502 235.444 223.951 233.037 223.951H230.371V232.223H232.924ZM231.373 231.334V224.84H232.972C234.911 224.84 235.896 226.068 235.896 228.071C235.896 230.09 234.911 231.334 232.859 231.334H231.373ZM240.048 232.223H241.082L242.908 225.631H242.972L244.798 232.223H245.832L248.094 223.951H247.076L245.347 230.688H245.266L243.506 223.951H242.375L240.614 230.688H240.533L238.804 223.951H237.786L240.048 232.223ZM255.901 223.951H254.915V230.462H254.835L250.311 223.951H249.342V232.223H250.343V225.728H250.424L254.932 232.223H255.901V223.951ZM260.668 223.951H259.666L257.598 225.324V226.342L259.618 225.001H259.666V232.223H260.668V223.951ZM265.098 228.087C265.098 226.051 264.549 224.355 263.564 222.917H262.724C263.499 223.984 264.113 226.165 264.113 228.087C264.113 230.01 263.499 232.191 262.724 233.257H263.564C264.549 231.819 265.098 230.123 265.098 228.087ZM273.936 227.643H270.318V228.531H273.936V227.643ZM279.281 232.223L280.113 229.88H283.457L284.289 232.223H285.339L282.302 223.951H281.268L278.231 232.223H279.281ZM280.428 228.992L281.753 225.26H281.817L283.142 228.992H280.428ZM286.628 223.951V232.223H287.565V225.938H287.645L290.23 232.223H291.135L293.72 225.938H293.801V232.223H294.738V223.951H293.542L290.731 230.817H290.634L287.823 223.951H286.628ZM296.471 232.223H302.174V231.334H297.667L302.126 224.678V223.951H296.423V224.84H300.93L296.471 231.496V232.223ZM303.855 232.223H308.701V231.334H304.856V223.951H303.855V232.223Z" fill="#0A0A0A"/>
<path d="M385.082 232.223H386.116L387.942 225.631H388.007L389.832 232.223H390.866L393.128 223.951H392.11L390.381 230.688H390.301L388.54 223.951H387.409L385.648 230.688H385.567L383.839 223.951H382.821L385.082 232.223ZM396.27 232.352C397.53 232.352 398.451 231.722 398.742 230.785L397.821 230.527C397.579 231.173 397.017 231.496 396.27 231.496C395.151 231.496 394.38 230.773 394.336 229.444H398.839V229.04C398.839 226.73 397.466 225.938 396.173 225.938C394.493 225.938 393.378 227.263 393.378 229.17C393.378 231.076 394.477 232.352 396.27 232.352ZM394.336 228.62C394.4 227.655 395.083 226.795 396.173 226.795C397.207 226.795 397.87 227.57 397.87 228.62H394.336ZM402.631 232.352C403.827 232.352 404.231 231.609 404.441 231.27H404.554V232.223H405.475V223.951H404.522V227.005H404.441C404.231 226.682 403.859 225.938 402.648 225.938C401.08 225.938 399.998 227.182 399.998 229.137C399.998 231.108 401.08 232.352 402.631 232.352ZM402.761 231.496C401.565 231.496 400.951 230.446 400.951 229.121C400.951 227.812 401.549 226.795 402.761 226.795C403.924 226.795 404.538 227.732 404.538 229.121C404.538 230.527 403.908 231.496 402.761 231.496Z" fill="#0A0A0A"/>
<path d="M470.561 226.019H471.531C471.486 224.771 470.335 223.838 468.736 223.838C467.153 223.838 465.909 224.759 465.909 226.148C465.909 227.263 466.716 227.926 468.009 228.297L469.027 228.588C469.899 228.83 470.674 229.137 470.674 229.961C470.674 230.866 469.802 231.464 468.655 231.464C467.669 231.464 466.797 231.027 466.716 230.09H465.682C465.779 231.447 466.878 232.368 468.655 232.368C470.561 232.368 471.644 231.318 471.644 229.977C471.644 228.426 470.174 227.926 469.317 227.699L468.477 227.473C467.863 227.312 466.878 226.989 466.878 226.1C466.878 225.308 467.605 224.727 468.703 224.727C469.705 224.727 470.464 225.203 470.561 226.019ZM475.762 232.352C477.023 232.352 477.943 231.722 478.234 230.785L477.313 230.527C477.071 231.173 476.51 231.496 475.762 231.496C474.644 231.496 473.872 230.773 473.828 229.444H478.331V229.04C478.331 226.73 476.958 225.938 475.665 225.938C473.985 225.938 472.871 227.263 472.871 229.17C472.871 231.076 473.969 232.352 475.762 232.352ZM473.828 228.62C473.892 227.655 474.575 226.795 475.665 226.795C476.699 226.795 477.362 227.57 477.362 228.62H473.828ZM479.781 234.549H480.734V231.27H480.815C481.025 231.609 481.429 232.352 482.624 232.352C484.175 232.352 485.258 231.108 485.258 229.137C485.258 227.182 484.175 225.938 482.608 225.938C481.397 225.938 481.025 226.682 480.815 227.005H480.702V226.019H479.781V234.549ZM480.718 229.121C480.718 227.732 481.332 226.795 482.495 226.795C483.707 226.795 484.305 227.812 484.305 229.121C484.305 230.446 483.691 231.496 482.495 231.496C481.348 231.496 480.718 230.527 480.718 229.121ZM489.894 232.223H495.113V231.334H491.268V231.27L493.126 229.283C494.547 227.76 494.967 227.049 494.967 226.132C494.967 224.856 493.933 223.838 492.479 223.838C491.029 223.838 489.927 224.824 489.927 226.278H490.88C490.88 225.337 491.49 224.711 492.447 224.711C493.344 224.711 494.03 225.26 494.03 226.132C494.03 226.896 493.582 227.461 492.625 228.507L489.894 231.496V232.223ZM496.781 232.223H501.999V231.334H498.154V231.27L500.012 229.283C501.434 227.76 501.854 227.049 501.854 226.132C501.854 224.856 500.82 223.838 499.366 223.838C497.916 223.838 496.813 224.824 496.813 226.278H497.766C497.766 225.337 498.376 224.711 499.333 224.711C500.23 224.711 500.917 225.26 500.917 226.132C500.917 226.896 500.468 227.461 499.511 228.507L496.781 231.496V232.223Z" fill="#0A0A0A"/>
<path d="M554.102 223.951H553.1L551.032 225.324V226.342L553.052 225.001H553.1V232.223H554.102V223.951ZM559.13 232.336C560.782 232.336 561.933 231.371 561.941 230.026C561.933 228.98 561.234 228.091 560.342 227.926V227.877C561.117 227.675 561.626 226.916 561.634 226.035C561.626 224.775 560.568 223.838 559.13 223.838C557.676 223.838 556.618 224.775 556.626 226.035C556.618 226.916 557.127 227.675 557.918 227.877V227.926C557.01 228.091 556.311 228.98 556.319 230.026C556.311 231.371 557.462 232.336 559.13 232.336ZM559.13 231.447C557.995 231.447 557.296 230.866 557.304 229.977C557.296 229.044 558.068 228.378 559.13 228.378C560.176 228.378 560.948 229.044 560.956 229.977C560.948 230.866 560.249 231.447 559.13 231.447ZM559.13 227.522C558.225 227.522 557.587 226.956 557.595 226.1C557.587 225.26 558.201 224.711 559.13 224.711C560.043 224.711 560.657 225.26 560.665 226.1C560.657 226.956 560.019 227.522 559.13 227.522ZM564.2 231.165C564.6 231.165 564.927 230.838 564.927 230.438C564.927 230.038 564.6 229.711 564.2 229.711C563.8 229.711 563.473 230.038 563.473 230.438C563.473 230.838 563.8 231.165 564.2 231.165ZM564.2 226.98C564.6 226.98 564.927 226.653 564.927 226.253C564.927 225.854 564.6 225.526 564.2 225.526C563.8 225.526 563.473 225.854 563.473 226.253C563.473 226.653 563.8 226.98 564.2 226.98ZM569.529 223.951H568.528L566.46 225.324V226.342L568.479 225.001H568.528V232.223H569.529V223.951ZM574.493 232.336C576.068 232.336 577.223 231.173 577.223 229.59C577.223 227.986 576.109 226.811 574.59 226.811C574.033 226.811 573.491 227.009 573.152 227.279H573.104L573.394 224.84H576.852V223.951H572.554L572.053 228.022L572.99 228.136C573.334 227.889 573.919 227.711 574.428 227.716C575.482 227.724 576.254 228.523 576.254 229.606C576.254 230.668 575.511 231.447 574.493 231.447C573.645 231.447 572.97 230.902 572.894 230.155H571.924C571.985 231.415 573.071 232.336 574.493 232.336ZM585.597 227.643H581.978V228.531H585.597V227.643ZM590.457 232.223H595.675V231.334H591.83V231.27L593.688 229.283C595.109 227.76 595.529 227.049 595.529 226.132C595.529 224.856 594.496 223.838 593.042 223.838C591.592 223.838 590.489 224.824 590.489 226.278H591.442C591.442 225.337 592.052 224.711 593.009 224.711C593.906 224.711 594.592 225.26 594.592 226.132C594.592 226.896 594.144 227.461 593.187 228.507L590.457 231.496V232.223ZM600.251 223.951H599.249L597.181 225.324V226.342L599.201 225.001H599.249V232.223H600.251V223.951ZM603.341 231.165C603.741 231.165 604.068 230.838 604.068 230.438C604.068 230.038 603.741 229.711 603.341 229.711C602.941 229.711 602.614 230.038 602.614 230.438C602.614 230.838 602.941 231.165 603.341 231.165ZM603.341 226.98C603.741 226.98 604.068 226.653 604.068 226.253C604.068 225.854 603.741 225.526 603.341 225.526C602.941 225.526 602.614 225.854 602.614 226.253C602.614 226.653 602.941 226.98 603.341 226.98ZM605.568 230.527H609.462V232.223H610.415V230.527H611.546V229.638H610.415V223.951H609.203L605.568 229.703V230.527ZM609.462 229.638H606.651V229.573L609.397 225.228H609.462V229.638ZM615.644 232.336C617.219 232.336 618.374 231.173 618.374 229.59C618.374 227.986 617.26 226.811 615.741 226.811C615.184 226.811 614.642 227.009 614.303 227.279H614.255L614.546 224.84H618.003V223.951H613.705L613.205 228.022L614.142 228.136C614.485 227.889 615.071 227.711 615.579 227.716C616.634 227.724 617.405 228.523 617.405 229.606C617.405 230.668 616.662 231.447 615.644 231.447C614.796 231.447 614.121 230.902 614.045 230.155H613.075C613.136 231.415 614.222 232.336 615.644 232.336Z" fill="#0A0A0A"/>
<line x1="165.06" y1="304.175" x2="956.94" y2="304.175" stroke="#E6E6ED" stroke-width="0.710843"/>
<path d="M171.749 275.132V283.404H172.686V277.119H172.767L175.351 283.404H176.256L178.841 277.119H178.922V283.404H179.859V275.132H178.663L175.852 281.998H175.755L172.944 275.132H171.749ZM183.563 283.549C184.646 283.549 185.211 282.967 185.405 282.564H185.454V283.404H186.407V279.316C186.407 277.345 184.904 277.119 184.113 277.119C183.176 277.119 182.109 277.442 181.625 278.573L182.53 278.896C182.74 278.444 183.236 277.959 184.145 277.959C185.021 277.959 185.454 278.424 185.454 279.219V279.252C185.454 279.712 184.985 279.672 183.854 279.817C182.703 279.967 181.447 280.221 181.447 281.643C181.447 282.854 182.384 283.549 183.563 283.549ZM183.709 282.693C182.95 282.693 182.4 282.354 182.4 281.691C182.4 280.964 183.063 280.738 183.806 280.641C184.21 280.593 185.292 280.479 185.454 280.286V281.158C185.454 281.933 184.84 282.693 183.709 282.693ZM189.1 279.672C189.1 278.589 189.77 277.975 190.683 277.975C191.568 277.975 192.105 278.553 192.105 279.526V283.404H193.058V279.462C193.058 277.878 192.214 277.119 190.958 277.119C190.021 277.119 189.439 277.539 189.148 278.169H189.067V277.2H188.147V283.404H189.1V279.672ZM197.32 283.533C198.693 283.533 199.598 282.693 199.759 281.594H198.806C198.628 282.273 198.063 282.677 197.32 282.677C196.189 282.677 195.462 281.74 195.462 280.302C195.462 278.896 196.205 277.975 197.32 277.975C198.16 277.975 198.661 278.492 198.806 279.058H199.759C199.598 277.895 198.612 277.119 197.304 277.119C195.624 277.119 194.509 278.444 194.509 280.334C194.509 282.192 195.575 283.533 197.32 283.533ZM202.106 279.672C202.106 278.589 202.797 277.975 203.738 277.975C204.634 277.975 205.176 278.541 205.176 279.526V283.404H206.129V279.462C206.129 277.866 205.281 277.119 204.012 277.119C203.035 277.119 202.478 277.527 202.187 278.169H202.106V275.132H201.153V283.404H202.106V279.672ZM210.474 283.533C211.734 283.533 212.655 282.903 212.945 281.966L212.024 281.707C211.782 282.354 211.221 282.677 210.474 282.677C209.355 282.677 208.583 281.954 208.539 280.625H213.042V280.221C213.042 277.911 211.669 277.119 210.377 277.119C208.696 277.119 207.582 278.444 207.582 280.35C207.582 282.257 208.68 283.533 210.474 283.533ZM208.539 279.801C208.604 278.836 209.286 277.975 210.377 277.975C211.411 277.975 212.073 278.751 212.073 279.801H208.539ZM218.887 278.589C218.588 277.709 217.917 277.119 216.689 277.119C215.381 277.119 214.411 277.862 214.411 278.912C214.411 279.769 214.92 280.342 216.059 280.609L217.093 280.851C217.719 280.996 218.014 281.295 218.014 281.723C218.014 282.257 217.449 282.693 216.56 282.693C215.781 282.693 215.292 282.358 215.122 281.691L214.218 281.917C214.44 282.971 215.308 283.533 216.576 283.533C218.018 283.533 219 282.745 219 281.675C219 280.811 218.458 280.265 217.352 279.995L216.431 279.769C215.696 279.587 215.365 279.341 215.365 278.864C215.365 278.331 215.93 277.943 216.689 277.943C217.521 277.943 217.865 278.403 218.03 278.832L218.887 278.589ZM223.132 277.2H221.808V275.714H220.854V277.2H219.917V278.008H220.854V281.885C220.854 282.967 221.727 283.484 222.535 283.484C222.89 283.484 223.116 283.42 223.245 283.371L223.052 282.515C222.971 282.531 222.842 282.564 222.632 282.564C222.212 282.564 221.808 282.434 221.808 281.627V278.008H223.132V277.2ZM227.101 283.533C228.361 283.533 229.282 282.903 229.572 281.966L228.652 281.707C228.409 282.354 227.848 282.677 227.101 282.677C225.982 282.677 225.21 281.954 225.166 280.625H229.669V280.221C229.669 277.911 228.296 277.119 227.004 277.119C225.323 277.119 224.209 278.444 224.209 280.35C224.209 282.257 225.307 283.533 227.101 283.533ZM225.166 279.801C225.231 278.836 225.913 277.975 227.004 277.975C228.038 277.975 228.7 278.751 228.7 279.801H225.166ZM231.119 283.404H232.072V279.478C232.072 278.638 232.735 278.024 233.64 278.024C233.894 278.024 234.157 278.072 234.221 278.088V277.119C234.112 277.111 233.862 277.103 233.72 277.103C232.977 277.103 232.331 277.523 232.105 278.137H232.04V277.2H231.119V283.404ZM238.889 279.914C238.889 281.95 239.438 283.646 240.424 285.084H241.264C240.488 284.018 239.875 281.837 239.875 279.914C239.875 277.992 240.488 275.811 241.264 274.744H240.424C239.438 276.182 238.889 277.878 238.889 279.914ZM249.456 277.717C249.149 276.021 247.792 275.019 246.128 275.019C244.011 275.019 242.477 276.651 242.477 279.268C242.477 281.885 244.011 283.517 246.128 283.517C247.792 283.517 249.149 282.515 249.456 280.819H248.454C248.212 281.966 247.226 282.58 246.128 282.58C244.625 282.58 243.446 281.416 243.446 279.268C243.446 277.119 244.625 275.956 246.128 275.956C247.226 275.956 248.212 276.57 248.454 277.717H249.456ZM251.074 275.132V283.404H252.011V277.119H252.092L254.677 283.404H255.582L258.167 277.119H258.247V283.404H259.184V275.132H257.989L255.178 281.998H255.081L252.27 275.132H251.074ZM267.849 277.717C267.542 276.021 266.185 275.019 264.521 275.019C262.404 275.019 260.87 276.651 260.87 279.268C260.87 281.885 262.404 283.517 264.521 283.517C266.185 283.517 267.542 282.515 267.849 280.819H266.847C266.605 281.966 265.619 282.58 264.521 282.58C263.018 282.58 261.839 281.416 261.839 279.268C261.839 277.119 263.018 275.956 264.521 275.956C265.619 275.956 266.605 276.57 266.847 277.717H267.849ZM269.322 283.404H274.54V282.515H270.695V282.45L272.553 280.463C273.975 278.941 274.395 278.23 274.395 277.313C274.395 276.037 273.361 275.019 271.907 275.019C270.457 275.019 269.354 276.004 269.354 277.458H270.308C270.308 276.517 270.917 275.891 271.875 275.891C272.771 275.891 273.458 276.441 273.458 277.313C273.458 278.076 273.01 278.642 272.052 279.688L269.322 282.677V283.404ZM278.26 279.268C278.26 277.232 277.711 275.536 276.725 274.098H275.885C276.661 275.164 277.275 277.345 277.275 279.268C277.275 281.19 276.661 283.371 275.885 284.438H276.725C277.711 283 278.26 281.303 278.26 279.268ZM287.098 278.824H283.479V279.712H287.098V278.824ZM292.103 275.132V283.404H293.04V277.119H293.121L295.706 283.404H296.611L299.196 277.119H299.276V283.404H300.213V275.132H299.018L296.207 281.998H296.11L293.299 275.132H292.103ZM304.613 283.533C306.293 283.533 307.424 282.257 307.424 280.334C307.424 278.395 306.293 277.119 304.613 277.119C302.933 277.119 301.802 278.395 301.802 280.334C301.802 282.257 302.933 283.533 304.613 283.533ZM304.613 282.677C303.337 282.677 302.755 281.578 302.755 280.334C302.755 279.09 303.337 277.975 304.613 277.975C305.889 277.975 306.471 279.09 306.471 280.334C306.471 281.578 305.889 282.677 304.613 282.677ZM308.879 283.404H309.832V279.478C309.832 278.638 310.494 278.024 311.399 278.024C311.654 278.024 311.916 278.072 311.981 278.088V277.119C311.872 277.111 311.621 277.103 311.48 277.103C310.737 277.103 310.091 277.523 309.864 278.137H309.8V277.2H308.879V283.404ZM313.111 283.404H314.064V279.478C314.064 278.638 314.726 278.024 315.631 278.024C315.885 278.024 316.148 278.072 316.212 278.088V277.119C316.103 277.111 315.853 277.103 315.712 277.103C314.969 277.103 314.322 277.523 314.096 278.137H314.031V277.2H313.111V283.404ZM317.342 283.404H318.296V277.2H317.342V283.404ZM317.827 276.166C318.199 276.166 318.506 275.875 318.506 275.52C318.506 275.164 318.199 274.874 317.827 274.874C317.455 274.874 317.149 275.164 317.149 275.52C317.149 275.875 317.455 276.166 317.827 276.166ZM324.436 278.589C324.137 277.709 323.466 277.119 322.238 277.119C320.93 277.119 319.961 277.862 319.961 278.912C319.961 279.769 320.469 280.342 321.608 280.609L322.642 280.851C323.268 280.996 323.563 281.295 323.563 281.723C323.563 282.257 322.998 282.693 322.109 282.693C321.33 282.693 320.841 282.358 320.671 281.691L319.767 281.917C319.989 282.971 320.857 283.533 322.125 283.533C323.567 283.533 324.549 282.745 324.549 281.675C324.549 280.811 324.008 280.265 322.901 279.995L321.98 279.769C321.245 279.587 320.914 279.341 320.914 278.864C320.914 278.331 321.479 277.943 322.238 277.943C323.071 277.943 323.414 278.403 323.579 278.832L324.436 278.589ZM328.504 283.533C330.184 283.533 331.315 282.257 331.315 280.334C331.315 278.395 330.184 277.119 328.504 277.119C326.824 277.119 325.693 278.395 325.693 280.334C325.693 282.257 326.824 283.533 328.504 283.533ZM328.504 282.677C327.228 282.677 326.646 281.578 326.646 280.334C326.646 279.09 327.228 277.975 328.504 277.975C329.78 277.975 330.362 279.09 330.362 280.334C330.362 281.578 329.78 282.677 328.504 282.677ZM333.723 279.672C333.723 278.589 334.394 277.975 335.306 277.975C336.191 277.975 336.728 278.553 336.728 279.526V283.404H337.681V279.462C337.681 277.878 336.837 277.119 335.581 277.119C334.644 277.119 334.062 277.539 333.772 278.169H333.691V277.2H332.77V283.404H333.723V279.672ZM343.817 278.589C343.518 277.709 342.848 277.119 341.62 277.119C340.311 277.119 339.342 277.862 339.342 278.912C339.342 279.769 339.851 280.342 340.99 280.609L342.024 280.851C342.65 280.996 342.945 281.295 342.945 281.723C342.945 282.257 342.379 282.693 341.491 282.693C340.711 282.693 340.223 282.358 340.053 281.691L339.148 281.917C339.37 282.971 340.239 283.533 341.507 283.533C342.949 283.533 343.93 282.745 343.93 281.675C343.93 280.811 343.389 280.265 342.282 279.995L341.362 279.769C340.627 279.587 340.295 279.341 340.295 278.864C340.295 278.331 340.861 277.943 341.62 277.943C342.452 277.943 342.795 278.403 342.961 278.832L343.817 278.589Z" fill="#0A0A0A"/>
<path d="M385.082 283.404H386.116L387.942 276.812H388.007L389.832 283.404H390.866L393.128 275.132H392.11L390.381 281.869H390.301L388.54 275.132H387.409L385.648 281.869H385.567L383.839 275.132H382.821L385.082 283.404ZM396.27 283.533C397.53 283.533 398.451 282.903 398.742 281.966L397.821 281.707C397.579 282.354 397.017 282.677 396.27 282.677C395.151 282.677 394.38 281.954 394.336 280.625H398.839V280.221C398.839 277.911 397.466 277.119 396.173 277.119C394.493 277.119 393.378 278.444 393.378 280.35C393.378 282.257 394.477 283.533 396.27 283.533ZM394.336 279.801C394.4 278.836 395.083 277.975 396.173 277.975C397.207 277.975 397.87 278.751 397.87 279.801H394.336ZM402.631 283.533C403.827 283.533 404.231 282.79 404.441 282.45H404.554V283.404H405.475V275.132H404.522V278.185H404.441C404.231 277.862 403.859 277.119 402.648 277.119C401.08 277.119 399.998 278.363 399.998 280.318C399.998 282.289 401.08 283.533 402.631 283.533ZM402.761 282.677C401.565 282.677 400.951 281.627 400.951 280.302C400.951 278.993 401.549 277.975 402.761 277.975C403.924 277.975 404.538 278.912 404.538 280.302C404.538 281.707 403.908 282.677 402.761 282.677Z" fill="#0A0A0A"/>
<path d="M470.561 277.2H471.531C471.486 275.952 470.335 275.019 468.736 275.019C467.153 275.019 465.909 275.94 465.909 277.329C465.909 278.444 466.716 279.106 468.009 279.478L469.027 279.769C469.899 280.011 470.674 280.318 470.674 281.142C470.674 282.047 469.802 282.644 468.655 282.644C467.669 282.644 466.797 282.208 466.716 281.271H465.682C465.779 282.628 466.878 283.549 468.655 283.549C470.561 283.549 471.644 282.499 471.644 281.158C471.644 279.607 470.174 279.106 469.317 278.88L468.477 278.654C467.863 278.492 466.878 278.169 466.878 277.281C466.878 276.489 467.605 275.907 468.703 275.907C469.705 275.907 470.464 276.384 470.561 277.2ZM475.762 283.533C477.023 283.533 477.943 282.903 478.234 281.966L477.313 281.707C477.071 282.354 476.51 282.677 475.762 282.677C474.644 282.677 473.872 281.954 473.828 280.625H478.331V280.221C478.331 277.911 476.958 277.119 475.665 277.119C473.985 277.119 472.871 278.444 472.871 280.35C472.871 282.257 473.969 283.533 475.762 283.533ZM473.828 279.801C473.892 278.836 474.575 277.975 475.665 277.975C476.699 277.975 477.362 278.751 477.362 279.801H473.828ZM479.781 285.73H480.734V282.45H480.815C481.025 282.79 481.429 283.533 482.624 283.533C484.175 283.533 485.258 282.289 485.258 280.318C485.258 278.363 484.175 277.119 482.608 277.119C481.397 277.119 481.025 277.862 480.815 278.185H480.702V277.2H479.781V285.73ZM480.718 280.302C480.718 278.912 481.332 277.975 482.495 277.975C483.707 277.975 484.305 278.993 484.305 280.302C484.305 281.627 483.691 282.677 482.495 282.677C481.348 282.677 480.718 281.707 480.718 280.302ZM489.894 283.404H495.113V282.515H491.268V282.45L493.126 280.463C494.547 278.941 494.967 278.23 494.967 277.313C494.967 276.037 493.933 275.019 492.479 275.019C491.029 275.019 489.927 276.004 489.927 277.458H490.88C490.88 276.517 491.49 275.891 492.447 275.891C493.344 275.891 494.03 276.441 494.03 277.313C494.03 278.076 493.582 278.642 492.625 279.688L489.894 282.677V283.404ZM496.781 283.404H501.999V282.515H498.154V282.45L500.012 280.463C501.434 278.941 501.854 278.23 501.854 277.313C501.854 276.037 500.82 275.019 499.366 275.019C497.916 275.019 496.813 276.004 496.813 277.458H497.766C497.766 276.517 498.376 275.891 499.333 275.891C500.23 275.891 500.917 276.441 500.917 277.313C500.917 278.076 500.468 278.642 499.511 279.688L496.781 282.677V283.404Z" fill="#0A0A0A"/>
<path d="M554.102 275.132H553.1L551.032 276.505V277.523L553.052 276.182H553.1V283.404H554.102V275.132ZM559.13 283.517C560.782 283.517 561.933 282.551 561.941 281.206C561.933 280.16 561.234 279.272 560.342 279.106V279.058C561.117 278.856 561.626 278.097 561.634 277.216C561.626 275.956 560.568 275.019 559.13 275.019C557.676 275.019 556.618 275.956 556.626 277.216C556.618 278.097 557.127 278.856 557.918 279.058V279.106C557.01 279.272 556.311 280.16 556.319 281.206C556.311 282.551 557.462 283.517 559.13 283.517ZM559.13 282.628C557.995 282.628 557.296 282.047 557.304 281.158C557.296 280.225 558.068 279.559 559.13 279.559C560.176 279.559 560.948 280.225 560.956 281.158C560.948 282.047 560.249 282.628 559.13 282.628ZM559.13 278.702C558.225 278.702 557.587 278.137 557.595 277.281C557.587 276.441 558.201 275.891 559.13 275.891C560.043 275.891 560.657 276.441 560.665 277.281C560.657 278.137 560.019 278.702 559.13 278.702ZM564.2 282.345C564.6 282.345 564.927 282.018 564.927 281.618C564.927 281.219 564.6 280.891 564.2 280.891C563.8 280.891 563.473 281.219 563.473 281.618C563.473 282.018 563.8 282.345 564.2 282.345ZM564.2 278.161C564.6 278.161 564.927 277.834 564.927 277.434C564.927 277.034 564.6 276.707 564.2 276.707C563.8 276.707 563.473 277.034 563.473 277.434C563.473 277.834 563.8 278.161 564.2 278.161ZM569.319 283.517C571.145 283.517 572.195 281.97 572.195 279.268C572.195 276.586 571.129 275.019 569.319 275.019C567.51 275.019 566.443 276.586 566.443 279.268C566.443 281.97 567.494 283.517 569.319 283.517ZM569.319 282.628C568.116 282.628 567.413 281.421 567.413 279.268C567.413 277.119 568.124 275.891 569.319 275.891C570.515 275.891 571.225 277.119 571.225 279.268C571.225 281.421 570.523 282.628 569.319 282.628ZM576.428 283.517C578.253 283.517 579.303 281.97 579.303 279.268C579.303 276.586 578.237 275.019 576.428 275.019C574.618 275.019 573.552 276.586 573.552 279.268C573.552 281.97 574.602 283.517 576.428 283.517ZM576.428 282.628C575.224 282.628 574.521 281.421 574.521 279.268C574.521 277.119 575.232 275.891 576.428 275.891C577.623 275.891 578.334 277.119 578.334 279.268C578.334 281.421 577.631 282.628 576.428 282.628ZM587.607 278.824H583.988V279.712H587.607V278.824ZM592.467 283.404H597.685V282.515H593.84V282.45L595.698 280.463C597.12 278.941 597.54 278.23 597.54 277.313C597.54 276.037 596.506 275.019 595.052 275.019C593.602 275.019 592.499 276.004 592.499 277.458H593.452C593.452 276.517 594.062 275.891 595.02 275.891C595.916 275.891 596.603 276.441 596.603 277.313C596.603 278.076 596.154 278.642 595.197 279.688L592.467 282.677V283.404ZM602.051 283.517C603.877 283.517 604.927 281.97 604.927 279.268C604.927 276.586 603.861 275.019 602.051 275.019C600.242 275.019 599.176 276.586 599.176 279.268C599.176 281.97 600.226 283.517 602.051 283.517ZM602.051 282.628C600.848 282.628 600.145 281.421 600.145 279.268C600.145 277.119 600.856 275.891 602.051 275.891C603.247 275.891 603.958 277.119 603.958 279.268C603.958 281.421 603.255 282.628 602.051 282.628ZM607.173 282.345C607.572 282.345 607.9 282.018 607.9 281.618C607.9 281.219 607.572 280.891 607.173 280.891C606.773 280.891 606.446 281.219 606.446 281.618C606.446 282.018 606.773 282.345 607.173 282.345ZM607.173 278.161C607.572 278.161 607.9 277.834 607.9 277.434C607.9 277.034 607.572 276.707 607.173 276.707C606.773 276.707 606.446 277.034 606.446 277.434C606.446 277.834 606.773 278.161 607.173 278.161ZM612.292 283.517C614.117 283.517 615.168 281.97 615.168 279.268C615.168 276.586 614.101 275.019 612.292 275.019C610.482 275.019 609.416 276.586 609.416 279.268C609.416 281.97 610.466 283.517 612.292 283.517ZM612.292 282.628C611.088 282.628 610.385 281.421 610.385 279.268C610.385 277.119 611.096 275.891 612.292 275.891C613.487 275.891 614.198 277.119 614.198 279.268C614.198 281.421 613.495 282.628 612.292 282.628ZM619.4 283.517C621.226 283.517 622.276 281.97 622.276 279.268C622.276 276.586 621.21 275.019 619.4 275.019C617.591 275.019 616.525 276.586 616.525 279.268C616.525 281.97 617.575 283.517 619.4 283.517ZM619.4 282.628C618.197 282.628 617.494 281.421 617.494 279.268C617.494 277.119 618.205 275.891 619.4 275.891C620.596 275.891 621.307 277.119 621.307 279.268C621.307 281.421 620.604 282.628 619.4 282.628Z" fill="#0A0A0A"/>
<g filter="url(#filter1_d_2149_28781)">
<path d="M148 23.2169C148 15.3651 154.365 9 162.217 9H959.783C967.635 9 974 15.3651 974 23.2169V65.8675H148V23.2169Z" fill="white" shape-rendering="crispEdges"/>
<path d="M173.956 42.3253L174.809 39.7758H178.696L179.554 42.3253H181.554L177.909 31.9858H175.596L171.956 42.3253H173.956ZM175.314 38.2713L176.712 34.1062H176.793L178.191 38.2713H175.314ZM184.662 31.9858H182.835V42.3253H184.662V31.9858ZM188.369 31.9858H186.542V42.3253H188.369V31.9858Z" fill="#3071F2"/>
<path d="M148.712 63.8072H212.206V66.6506H148.712V63.8072Z" fill="#3071F2"/>
<path d="M237.563 42.3253L238.416 39.7758H242.303L243.162 42.3253H245.161L241.516 31.9858H239.204L235.564 42.3253H237.563ZM238.921 38.2713L240.319 34.1062H240.4L241.799 38.2713H238.921ZM249.589 42.4768C251.537 42.4768 252.779 41.3206 252.911 39.6748H251.164C251.007 40.5078 250.406 40.9874 249.604 40.9874C248.463 40.9874 247.726 40.0333 247.726 38.448C247.726 36.8829 248.478 35.9439 249.604 35.9439C250.482 35.9439 251.022 36.5093 251.164 37.2565H252.911C252.784 35.5753 251.472 34.4697 249.578 34.4697C247.307 34.4697 245.873 36.1105 245.873 38.4783C245.873 40.8259 247.271 42.4768 249.589 42.4768ZM257.794 42.4768C259.743 42.4768 260.984 41.3206 261.116 39.6748H259.369C259.212 40.5078 258.612 40.9874 257.809 40.9874C256.668 40.9874 255.931 40.0333 255.931 38.448C255.931 36.8829 256.683 35.9439 257.809 35.9439C258.687 35.9439 259.228 36.5093 259.369 37.2565H261.116C260.99 35.5753 259.677 34.4697 257.784 34.4697C255.512 34.4697 254.078 36.1105 254.078 38.4783C254.078 40.8259 255.476 42.4768 257.794 42.4768ZM266.05 42.4768C267.857 42.4768 269.099 41.5933 269.422 40.2453L267.716 40.0534C267.468 40.7098 266.862 41.0531 266.075 41.0531C264.893 41.0531 264.111 40.2756 264.096 38.9478H269.498V38.3874C269.498 35.6662 267.862 34.4697 265.954 34.4697C263.732 34.4697 262.283 36.1004 262.283 38.4934C262.283 40.9269 263.712 42.4768 266.05 42.4768ZM264.101 37.7159C264.156 36.7264 264.888 35.8934 265.979 35.8934C267.029 35.8934 267.736 36.6608 267.746 37.7159H264.101ZM271.044 45.2333H272.871V41.1036H272.947C273.235 41.669 273.836 42.4616 275.169 42.4616C276.996 42.4616 278.364 41.0127 278.364 38.4581C278.364 35.8732 276.956 34.4697 275.163 34.4697C273.795 34.4697 273.225 35.2926 272.947 35.853H272.841V34.5707H271.044V45.2333ZM272.836 38.448C272.836 36.9435 273.482 35.9691 274.659 35.9691C275.875 35.9691 276.501 37.0041 276.501 38.448C276.501 39.902 275.865 40.9622 274.659 40.9622C273.492 40.9622 272.836 39.9525 272.836 38.448ZM283.802 34.5707H282.272V32.7128H280.444V34.5707H279.344V35.9843H280.444V40.2958C280.434 41.7548 281.494 42.4717 282.868 42.4313C283.388 42.4162 283.746 42.3152 283.943 42.2496L283.635 40.8208C283.534 40.8461 283.327 40.8915 283.1 40.8915C282.64 40.8915 282.272 40.73 282.272 39.9929V35.9843H283.802V34.5707ZM288.68 42.4768C290.487 42.4768 291.729 41.5933 292.052 40.2453L290.346 40.0534C290.099 40.7098 289.493 41.0531 288.705 41.0531C287.524 41.0531 286.741 40.2756 286.726 38.9478H292.128V38.3874C292.128 35.6662 290.492 34.4697 288.584 34.4697C286.363 34.4697 284.914 36.1004 284.914 38.4934C284.914 40.9269 286.342 42.4768 288.68 42.4768ZM286.731 37.7159C286.787 36.7264 287.519 35.8934 288.609 35.8934C289.659 35.8934 290.366 36.6608 290.376 37.7159H286.731ZM296.552 42.4616C297.885 42.4616 298.486 41.669 298.773 41.1036H298.884V42.3253H300.682V31.9858H298.849V35.853H298.773C298.496 35.2926 297.925 34.4697 296.557 34.4697C294.765 34.4697 293.356 35.8732 293.356 38.4581C293.356 41.0127 294.724 42.4616 296.552 42.4616ZM297.062 40.9622C295.855 40.9622 295.219 39.902 295.219 38.448C295.219 37.0041 295.845 35.9691 297.062 35.9691C298.238 35.9691 298.884 36.9435 298.884 38.448C298.884 39.9525 298.228 40.9622 297.062 40.9622Z" fill="#585A61"/>
<path d="M350.44 31.9858H348.567V42.3253H350.44V31.9858ZM355.76 45.3949C357.855 45.3949 359.4 44.4356 359.4 42.4515V34.5707H357.598V35.853H357.497C357.219 35.2926 356.638 34.4697 355.27 34.4697C353.478 34.4697 352.069 35.8732 352.069 38.4227C352.069 40.9521 353.478 42.2142 355.265 42.2142C356.593 42.2142 357.214 41.5024 357.497 40.9319H357.587V42.401C357.587 43.542 356.83 44.0116 355.79 44.0116C354.69 44.0116 354.205 43.4915 353.983 43.0372L352.337 43.436C352.67 44.5215 353.786 45.3949 355.76 45.3949ZM355.775 40.7804C354.568 40.7804 353.932 39.8414 353.932 38.4126C353.932 37.0041 354.558 35.9691 355.775 35.9691C356.951 35.9691 357.598 36.9435 357.598 38.4126C357.598 39.8919 356.941 40.7804 355.775 40.7804ZM363.1 37.7816C363.1 36.6608 363.777 36.0146 364.741 36.0146C365.685 36.0146 366.251 36.6355 366.251 37.6705V42.3253H368.078V37.3878C368.083 35.5299 367.023 34.4697 365.423 34.4697C364.262 34.4697 363.464 35.025 363.111 35.8883H363.02V34.5707H361.273V42.3253H363.1V37.7816ZM373.319 42.4768C375.591 42.4768 377.035 40.8764 377.035 38.4783C377.035 36.0751 375.591 34.4697 373.319 34.4697C371.047 34.4697 369.603 36.0751 369.603 38.4783C369.603 40.8764 371.047 42.4768 373.319 42.4768ZM373.329 41.0127C372.072 41.0127 371.456 39.8919 371.456 38.4732C371.456 37.0546 372.072 35.9186 373.329 35.9186C374.566 35.9186 375.182 37.0546 375.182 38.4732C375.182 39.8919 374.566 41.0127 373.329 41.0127ZM378.586 42.3253H380.413V37.7664C380.413 36.782 381.156 36.0852 382.16 36.0852C382.468 36.0852 382.852 36.1408 383.008 36.1913V34.5101C382.842 34.4798 382.554 34.4596 382.352 34.4596C381.464 34.4596 380.721 34.9645 380.439 35.8631H380.358V34.5707H378.586V42.3253ZM387.336 42.4768C389.144 42.4768 390.386 41.5933 390.709 40.2453L389.002 40.0534C388.755 40.7098 388.149 41.0531 387.362 41.0531C386.18 41.0531 385.398 40.2756 385.382 38.9478H390.784V38.3874C390.784 35.6662 389.149 34.4697 387.24 34.4697C385.019 34.4697 383.57 36.1004 383.57 38.4934C383.57 40.9269 384.999 42.4768 387.336 42.4768ZM385.388 37.7159C385.443 36.7264 386.175 35.8934 387.266 35.8934C388.316 35.8934 389.023 36.6608 389.033 37.7159H385.388ZM395.208 42.4616C396.541 42.4616 397.142 41.669 397.43 41.1036H397.541V42.3253H399.338V31.9858H397.505V35.853H397.43C397.152 35.2926 396.582 34.4697 395.213 34.4697C393.421 34.4697 392.013 35.8732 392.013 38.4581C392.013 41.0127 393.381 42.4616 395.208 42.4616ZM395.718 40.9622C394.512 40.9622 393.876 39.902 393.876 38.448C393.876 37.0041 394.502 35.9691 395.718 35.9691C396.895 35.9691 397.541 36.9435 397.541 38.448C397.541 39.9525 396.884 40.9622 395.718 40.9622Z" fill="#585A61"/>
</g>
</g>
<g filter="url(#filter2_d_2149_28781)">
<rect x="-471.355" y="190.645" width="826.711" height="296.422" rx="14.5723" fill="white" stroke="#E6E6ED" stroke-width="0.710843"/>
<path d="M-471 247.867H355V281.988H-471V247.867Z" fill="#F7F7FC"/>
<path d="M54.3779 268.819C56.8981 268.819 58.3925 267.26 58.3925 264.675C58.3925 262.099 56.8981 260.548 54.4344 260.548H51.5749V268.819H54.3779ZM53.0733 267.523V261.844H54.3496C56.0298 261.844 56.9062 262.781 56.9062 264.675C56.9062 266.578 56.0298 267.523 54.3052 267.523H53.0733ZM63.8194 266.21C63.8194 267.155 63.1449 267.624 62.4987 267.624C61.7959 267.624 61.3274 267.127 61.3274 266.339V262.616H59.8653V266.566C59.8653 268.056 60.7135 268.9 61.9332 268.9C62.8622 268.9 63.5165 268.411 63.7992 267.717H63.8638V268.819H65.2815V262.616H63.8194V266.21ZM66.8987 268.819H68.3608V265.172C68.3608 264.385 68.9545 263.827 69.7582 263.827C70.0046 263.827 70.3115 263.872 70.4368 263.912V262.567C70.3035 262.543 70.0733 262.527 69.9117 262.527C69.2009 262.527 68.6071 262.931 68.381 263.65H68.3163V262.616H66.8987V268.819ZM73.1849 268.944C74.1582 268.944 74.7398 268.488 75.0064 267.967H75.0549V268.819H76.4604V264.667C76.4604 263.028 75.1235 262.535 73.9401 262.535C72.6356 262.535 71.6339 263.116 71.3108 264.247L72.676 264.441C72.8214 264.017 73.2333 263.654 73.9482 263.654C74.6267 263.654 74.9983 264.001 74.9983 264.611V264.635C74.9983 265.055 74.5581 265.075 73.4635 265.192C72.2599 265.322 71.1089 265.681 71.1089 267.079C71.1089 268.298 72.0015 268.944 73.1849 268.944ZM73.5645 267.87C72.9546 267.87 72.5184 267.591 72.5184 267.054C72.5184 266.493 73.0071 266.259 73.6614 266.166C74.0451 266.113 74.8125 266.016 75.0023 265.863V266.594C75.0023 267.284 74.445 267.87 73.5645 267.87ZM81.1421 262.616H79.9183V261.129H78.4562V262.616H77.5758V263.746H78.4562V267.196C78.4482 268.363 79.2963 268.936 80.3949 268.904C80.8109 268.892 81.0977 268.811 81.2552 268.759L81.0088 267.616C80.928 267.636 80.7624 267.672 80.5807 267.672C80.2132 267.672 79.9183 267.543 79.9183 266.953V263.746H81.1421V262.616ZM82.4786 268.819H83.9407V262.616H82.4786V268.819ZM83.2137 261.735C83.6781 261.735 84.0578 261.38 84.0578 260.943C84.0578 260.503 83.6781 260.148 83.2137 260.148C82.7452 260.148 82.3655 260.503 82.3655 260.943C82.3655 261.38 82.7452 261.735 83.2137 261.735ZM88.2639 268.94C90.0814 268.94 91.2366 267.66 91.2366 265.742C91.2366 263.819 90.0814 262.535 88.2639 262.535C86.4464 262.535 85.2913 263.819 85.2913 265.742C85.2913 267.66 86.4464 268.94 88.2639 268.94ZM88.272 267.769C87.2663 267.769 86.7736 266.873 86.7736 265.738C86.7736 264.603 87.2663 263.694 88.272 263.694C89.2615 263.694 89.7543 264.603 89.7543 265.738C89.7543 266.873 89.2615 267.769 88.272 267.769ZM94.0533 265.184C94.0533 264.288 94.5945 263.771 95.3659 263.771C96.1212 263.771 96.5736 264.267 96.5736 265.095V268.819H98.0357V264.869C98.0397 263.383 97.1915 262.535 95.9112 262.535C94.9823 262.535 94.3441 262.979 94.0614 263.67H93.9887V262.616H92.5912V268.819H94.0533V265.184Z" fill="#888A95"/>
<path d="M106.334 262.44L109 259.774L111.666 262.44" stroke="#A6A8B3" stroke-width="1.06627" stroke-linecap="round" stroke-linejoin="round"/>
<path d="M106.334 267.416L109 270.081L111.666 267.416" stroke="#A6A8B3" stroke-width="1.06627" stroke-linecap="round" stroke-linejoin="round"/>
<path d="M166.732 268.819H168.23V266.024H169.813C171.724 266.024 172.75 264.877 172.75 263.286C172.75 261.707 171.736 260.548 169.833 260.548H166.732V268.819ZM168.23 264.793V261.8H169.603C170.726 261.8 171.223 262.406 171.223 263.286C171.223 264.166 170.726 264.793 169.611 264.793H168.23ZM175.774 268.944C176.748 268.944 177.329 268.488 177.596 267.967H177.644V268.819H179.05V264.667C179.05 263.028 177.713 262.535 176.53 262.535C175.225 262.535 174.223 263.116 173.9 264.247L175.265 264.441C175.411 264.017 175.823 263.654 176.538 263.654C177.216 263.654 177.588 264.001 177.588 264.611V264.635C177.588 265.055 177.148 265.075 176.053 265.192C174.849 265.322 173.698 265.681 173.698 267.079C173.698 268.298 174.591 268.944 175.774 268.944ZM176.154 267.87C175.544 267.87 175.108 267.591 175.108 267.054C175.108 266.493 175.597 266.259 176.251 266.166C176.635 266.113 177.402 266.016 177.592 265.863V266.594C177.592 267.284 177.034 267.87 176.154 267.87ZM181.32 271.146C182.459 271.146 183.118 270.56 183.469 269.571L185.961 262.624L184.398 262.616L182.964 267.301H182.9L181.47 262.616H179.919L182.169 268.949L182.043 269.284C181.773 269.991 181.345 270.039 180.706 269.853L180.367 270.992C180.565 271.073 180.921 271.146 181.32 271.146Z" fill="#888A95"/>
<path d="M193.491 262.44L196.157 259.774L198.823 262.44" stroke="#A6A8B3" stroke-width="1.06627" stroke-linecap="round" stroke-linejoin="round"/>
<path d="M193.491 267.416L196.157 270.081L198.823 267.416" stroke="#3071F2" stroke-width="1.06627" stroke-linecap="round" stroke-linejoin="round"/>
<path d="M267.901 262.822H269.343C269.315 261.424 268.124 260.435 266.363 260.435C264.626 260.435 263.321 261.412 263.325 262.874C263.325 264.061 264.17 264.744 265.531 265.095L266.472 265.338C267.364 265.564 267.954 265.843 267.958 266.485C267.954 267.192 267.284 267.664 266.306 267.664C265.369 267.664 264.642 267.244 264.582 266.376H263.107C263.168 268.02 264.392 268.944 266.318 268.944C268.301 268.944 269.452 267.955 269.456 266.497C269.452 265.063 268.269 264.409 267.025 264.114L266.25 263.92C265.571 263.759 264.836 263.472 264.844 262.781C264.848 262.159 265.405 261.703 266.342 261.703C267.235 261.703 267.825 262.119 267.901 262.822ZM273.939 262.616H272.715V261.129H271.253V262.616H270.373V263.746H271.253V267.196C271.245 268.363 272.093 268.936 273.192 268.904C273.608 268.892 273.895 268.811 274.052 268.759L273.806 267.616C273.725 267.636 273.56 267.672 273.378 267.672C273.01 267.672 272.715 267.543 272.715 266.953V263.746H273.939V262.616ZM277.061 268.944C278.034 268.944 278.616 268.488 278.882 267.967H278.931V268.819H280.336V264.667C280.336 263.028 279 262.535 277.816 262.535C276.512 262.535 275.51 263.116 275.187 264.247L276.552 264.441C276.697 264.017 277.109 263.654 277.824 263.654C278.503 263.654 278.874 264.001 278.874 264.611V264.635C278.874 265.055 278.434 265.075 277.34 265.192C276.136 265.322 274.985 265.681 274.985 267.079C274.985 268.298 275.878 268.944 277.061 268.944ZM277.441 267.87C276.831 267.87 276.395 267.591 276.395 267.054C276.395 266.493 276.883 266.259 277.538 266.166C277.921 266.113 278.689 266.016 278.878 265.863V266.594C278.878 267.284 278.321 267.87 277.441 267.87ZM285.018 262.616H283.794V261.129H282.332V262.616H281.452V263.746H282.332V267.196C282.324 268.363 283.172 268.936 284.271 268.904C284.687 268.892 284.974 268.811 285.131 268.759L284.885 267.616C284.804 267.636 284.639 267.672 284.457 267.672C284.089 267.672 283.794 267.543 283.794 266.953V263.746H285.018V262.616ZM290.309 266.21C290.309 267.155 289.634 267.624 288.988 267.624C288.285 267.624 287.817 267.127 287.817 266.339V262.616H286.355V266.566C286.355 268.056 287.203 268.9 288.423 268.9C289.352 268.9 290.006 268.411 290.289 267.717H290.353V268.819H291.771V262.616H290.309V266.21ZM298.291 264.255C298.089 263.205 297.249 262.535 295.795 262.535C294.301 262.535 293.283 263.27 293.287 264.417C293.283 265.322 293.84 265.919 295.032 266.166L296.09 266.388C296.66 266.513 296.926 266.743 296.926 267.095C296.926 267.519 296.466 267.838 295.771 267.838C295.101 267.838 294.664 267.547 294.539 266.99L293.113 267.127C293.295 268.266 294.252 268.94 295.775 268.94C297.326 268.94 298.42 268.137 298.425 266.961C298.42 266.077 297.851 265.536 296.68 265.281L295.622 265.055C294.991 264.914 294.741 264.696 294.745 264.336C294.741 263.916 295.206 263.625 295.815 263.625C296.49 263.625 296.845 263.993 296.958 264.401L298.291 264.255Z" fill="#888A95"/>
<line x1="-453.94" y1="332.633" x2="337.94" y2="332.633" stroke="#E6E6ED" stroke-width="0.710843"/>
<path d="M54.4102 311.975C56.0136 311.975 57.2051 310.969 57.2051 309.616C57.2051 308.566 56.5831 307.802 55.5411 307.629V307.564C56.3771 307.31 56.8981 306.623 56.8981 305.69C56.8981 304.519 55.9732 303.477 54.4425 303.477C53.0127 303.477 51.8253 304.357 51.7768 305.658H52.7462C52.7825 304.834 53.5661 304.349 54.4263 304.349C55.3391 304.349 55.9288 304.902 55.9288 305.738C55.9288 306.611 55.2462 307.176 54.2648 307.176H53.6024V308.065H54.2648C55.5209 308.065 56.2196 308.703 56.2196 309.616C56.2196 310.492 55.4563 311.086 54.394 311.086C53.4368 311.086 52.6775 310.593 52.6169 309.794H51.5991C51.6597 311.094 52.8067 311.975 54.4102 311.975ZM63.0251 308.13C63.0251 307.047 63.7158 306.433 64.6568 306.433C65.5535 306.433 66.0947 306.999 66.0947 307.984V311.861H67.0478V307.919C67.0478 306.324 66.1997 305.577 64.9315 305.577C63.9541 305.577 63.3967 305.985 63.1059 306.627H63.0251V303.59H62.0719V311.861H63.0251V308.13ZM74.7692 311.975C76.3726 311.975 77.5641 310.969 77.5641 309.616C77.5641 308.566 76.9421 307.802 75.9001 307.629V307.564C76.7361 307.31 77.2571 306.623 77.2571 305.69C77.2571 304.519 76.3322 303.477 74.8015 303.477C73.3717 303.477 72.1843 304.357 72.1358 305.658H73.1052C73.1415 304.834 73.9251 304.349 74.7853 304.349C75.6981 304.349 76.2878 304.902 76.2878 305.738C76.2878 306.611 75.6052 307.176 74.6238 307.176H73.9614V308.065H74.6238C75.8799 308.065 76.5786 308.703 76.5786 309.616C76.5786 310.492 75.8153 311.086 74.753 311.086C73.7958 311.086 73.0365 310.593 72.9759 309.794H71.9581C72.0187 311.094 73.1657 311.975 74.7692 311.975ZM81.914 311.975C83.7395 311.975 84.7897 310.428 84.7897 307.726C84.7897 305.044 83.7234 303.477 81.914 303.477C80.1045 303.477 79.0383 305.044 79.0383 307.726C79.0383 310.428 80.0884 311.975 81.914 311.975ZM81.914 311.086C80.7104 311.086 80.0076 309.878 80.0076 307.726C80.0076 305.577 80.7185 304.349 81.914 304.349C83.1095 304.349 83.8203 305.577 83.8203 307.726C83.8203 309.878 83.1176 311.086 81.914 311.086ZM89.5394 311.861H90.4926V307.984C90.4926 307.075 91.1549 306.433 91.8981 306.433C92.621 306.433 93.1259 306.906 93.1259 307.613V311.861H94.0952V307.823C94.0952 307.023 94.5961 306.433 95.4685 306.433C96.147 306.433 96.7286 306.793 96.7286 307.709V311.861H97.6818V307.709C97.6818 306.251 96.8982 305.577 95.7916 305.577C94.903 305.577 94.2528 305.985 93.9337 306.627H93.8691C93.5621 305.965 93.0209 305.577 92.205 305.577C91.3973 305.577 90.7995 305.965 90.541 306.627H90.4602V305.658H89.5394V311.861ZM99.4245 311.861H100.378V305.658H99.4245V311.861ZM99.9092 304.624C100.281 304.624 100.588 304.333 100.588 303.978C100.588 303.622 100.281 303.331 99.9092 303.331C99.5376 303.331 99.2307 303.622 99.2307 303.978C99.2307 304.333 99.5376 304.624 99.9092 304.624ZM103.077 308.13C103.077 307.047 103.747 306.433 104.66 306.433C105.544 306.433 106.082 307.011 106.082 307.984V311.861H107.035V307.919C107.035 306.336 106.191 305.577 104.935 305.577C103.998 305.577 103.416 305.997 103.125 306.627H103.044V305.658H102.124V311.861H103.077V308.13Z" fill="#0A0A0A"/>
<path d="M172.661 311.861V310.617H168.82C169.05 310.311 169.123 309.931 169.111 309.47L169.103 309.26H170.823V308.416H169.07L169.042 307.766H170.823V306.926H169.01L168.969 305.908C168.969 305.129 169.486 304.729 170.032 304.729C170.589 304.729 171.167 304.999 171.167 305.759H172.592C172.588 304.394 171.667 303.477 170.08 303.477C168.549 303.477 167.459 304.394 167.507 305.908L167.54 306.926H166.679V307.766H167.564L167.584 308.416H166.679V309.26H167.608L167.616 309.535C167.629 309.979 167.536 310.529 167.18 310.617H166.691V311.861H172.661ZM177.204 311.975C178.953 311.975 180.173 310.787 180.173 309.143C180.173 307.552 179.066 306.405 177.564 306.405C176.893 306.405 176.3 306.671 175.993 307.035H175.944L176.182 304.842H179.741V303.59H174.943L174.51 307.855L175.863 308.077C176.142 307.77 176.667 307.564 177.164 307.568C178.073 307.572 178.727 308.243 178.723 309.18C178.727 310.105 178.089 310.763 177.204 310.763C176.457 310.763 175.855 310.29 175.803 309.612H174.349C174.389 310.985 175.589 311.975 177.204 311.975ZM181.49 310.327H185.436V311.861H186.866V310.327H187.924V309.095H186.866V303.59H185L181.49 309.135V310.327ZM185.452 309.095H183.025V309.03L185.388 305.286H185.452V309.095ZM190.012 311.95C190.488 311.95 190.896 311.554 190.9 311.062C190.896 310.577 190.488 310.181 190.012 310.181C189.519 310.181 189.119 310.577 189.123 311.062C189.119 311.554 189.519 311.95 190.012 311.95ZM195.283 311.975C197.032 311.975 198.252 310.787 198.252 309.143C198.252 307.552 197.145 306.405 195.643 306.405C194.972 306.405 194.379 306.671 194.072 307.035H194.023L194.261 304.842H197.82V303.59H193.022L192.589 307.855L193.942 308.077C194.221 307.77 194.746 307.564 195.243 307.568C196.152 307.572 196.806 308.243 196.802 309.18C196.806 310.105 196.168 310.763 195.283 310.763C194.536 310.763 193.934 310.29 193.882 309.612H192.428C192.468 310.985 193.668 311.975 195.283 311.975ZM202.776 312.019C204.771 312.023 205.963 310.448 205.963 307.734C205.963 305.036 204.763 303.477 202.776 303.477C200.789 303.477 199.593 305.032 199.589 307.734C199.589 310.444 200.781 312.019 202.776 312.019ZM202.776 310.755C201.746 310.755 201.1 309.721 201.104 307.734C201.108 305.763 201.75 304.725 202.776 304.725C203.806 304.725 204.448 305.763 204.452 307.734C204.452 309.721 203.81 310.755 202.776 310.755Z" fill="#0A0A0A"/>
<rect x="262.59" y="297.626" width="69.747" height="20.6867" rx="10.3434" fill="#3DCC70"/>
<path d="M275.607 311.47L276.204 309.685H278.926L279.526 311.47H280.926L278.374 304.232H276.756L274.208 311.47H275.607ZM276.558 308.632L277.537 305.716H277.593L278.572 308.632H276.558ZM284.025 311.576C285.389 311.576 286.259 310.767 286.351 309.615H285.128C285.018 310.198 284.598 310.533 284.036 310.533C283.237 310.533 282.721 309.865 282.721 308.756C282.721 307.66 283.248 307.003 284.036 307.003C284.651 307.003 285.029 307.399 285.128 307.922H286.351C286.262 306.745 285.343 305.971 284.018 305.971C282.428 305.971 281.424 307.119 281.424 308.777C281.424 310.42 282.403 311.576 284.025 311.576ZM289.769 311.576C291.133 311.576 292.002 310.767 292.094 309.615H290.872C290.762 310.198 290.341 310.533 289.78 310.533C288.981 310.533 288.465 309.865 288.465 308.756C288.465 307.66 288.991 307.003 289.78 307.003C290.394 307.003 290.773 307.399 290.872 307.922H292.094C292.006 306.745 291.087 305.971 289.762 305.971C288.172 305.971 287.168 307.119 287.168 308.777C287.168 310.42 288.147 311.576 289.769 311.576ZM295.548 311.576C296.813 311.576 297.682 310.957 297.909 310.014L296.714 309.88C296.541 310.339 296.117 310.579 295.566 310.579C294.739 310.579 294.191 310.035 294.18 309.106H297.962V308.713C297.962 306.808 296.817 305.971 295.481 305.971C293.926 305.971 292.912 307.112 292.912 308.788C292.912 310.491 293.912 311.576 295.548 311.576ZM294.184 308.243C294.223 307.551 294.735 306.968 295.498 306.968C296.234 306.968 296.728 307.505 296.735 308.243H294.184ZM299.044 313.505H300.323V310.615H300.376C300.578 311.01 300.998 311.565 301.931 311.565C303.211 311.565 304.168 310.551 304.168 308.763C304.168 306.953 303.182 305.971 301.928 305.971C300.97 305.971 300.571 306.547 300.376 306.939H300.302V306.042H299.044V313.505ZM300.299 308.756C300.299 307.703 300.751 307.021 301.574 307.021C302.426 307.021 302.864 307.745 302.864 308.756C302.864 309.774 302.419 310.516 301.574 310.516C300.758 310.516 300.299 309.809 300.299 308.756ZM307.974 306.042H306.904V304.741H305.624V306.042H304.854V307.031H305.624V310.049C305.617 311.071 306.359 311.572 307.321 311.544C307.685 311.533 307.936 311.463 308.073 311.417L307.858 310.417C307.787 310.434 307.642 310.466 307.483 310.466C307.162 310.466 306.904 310.353 306.904 309.837V307.031H307.974V306.042ZM311.389 311.576C312.654 311.576 313.524 310.957 313.75 310.014L312.555 309.88C312.382 310.339 311.958 310.579 311.407 310.579C310.58 310.579 310.032 310.035 310.021 309.106H313.803V308.713C313.803 306.808 312.658 305.971 311.322 305.971C309.767 305.971 308.753 307.112 308.753 308.788C308.753 310.491 309.753 311.576 311.389 311.576ZM310.025 308.243C310.064 307.551 310.576 306.968 311.34 306.968C312.075 306.968 312.57 307.505 312.577 308.243H310.025ZM316.9 311.565C317.833 311.565 318.253 311.01 318.455 310.615H318.532V311.47H319.79V304.232H318.508V306.939H318.455C318.26 306.547 317.861 305.971 316.903 305.971C315.649 305.971 314.663 306.953 314.663 308.763C314.663 310.551 315.62 311.565 316.9 311.565ZM317.257 310.516C316.412 310.516 315.967 309.774 315.967 308.756C315.967 307.745 316.405 307.021 317.257 307.021C318.08 307.021 318.532 307.703 318.532 308.756C318.532 309.809 318.073 310.516 317.257 310.516Z" fill="white"/>
<line x1="-453.94" y1="383.813" x2="337.94" y2="383.813" stroke="#E6E6ED" stroke-width="0.710843"/>
<path d="M-64.8984 354.771H-65.9L-67.9679 356.144V357.162L-65.9485 355.821H-65.9V363.042H-64.8984V354.771ZM-62.261 363.042H-61.2109L-57.5274 355.708V354.771H-62.8264V355.659H-58.5614V355.724L-62.261 363.042ZM-55.6998 361.984C-55.3 361.984 -54.9728 361.657 -54.9728 361.257C-54.9728 360.857 -55.3 360.53 -55.6998 360.53C-56.0997 360.53 -56.4268 360.857 -56.4268 361.257C-56.4268 361.657 -56.0997 361.984 -55.6998 361.984ZM-55.6998 357.8C-55.3 357.8 -54.9728 357.473 -54.9728 357.073C-54.9728 356.673 -55.3 356.346 -55.6998 356.346C-56.0997 356.346 -56.4268 356.673 -56.4268 357.073C-56.4268 357.473 -56.0997 357.8 -55.6998 357.8ZM-50.4836 363.155C-48.8801 363.155 -47.6887 362.15 -47.6887 360.797C-47.6887 359.746 -48.3107 358.983 -49.3527 358.809V358.745C-48.5166 358.49 -47.9956 357.804 -47.9956 356.871C-47.9956 355.699 -48.9205 354.657 -50.4513 354.657C-51.881 354.657 -53.0685 355.538 -53.1169 356.838H-52.1476C-52.1113 356.015 -51.3277 355.53 -50.4674 355.53C-49.5546 355.53 -48.965 356.083 -48.965 356.919C-48.965 357.792 -49.6475 358.357 -50.629 358.357H-51.2914V359.246H-50.629C-49.3729 359.246 -48.6742 359.884 -48.6742 360.797C-48.6742 361.673 -49.4375 362.267 -50.4997 362.267C-51.457 362.267 -52.2163 361.774 -52.2768 360.974H-53.2946C-53.2341 362.275 -52.087 363.155 -50.4836 363.155ZM-43.3388 363.155C-41.5132 363.155 -40.4631 361.608 -40.4631 358.906C-40.4631 356.225 -41.5294 354.657 -43.3388 354.657C-45.1482 354.657 -46.2145 356.225 -46.2145 358.906C-46.2145 361.608 -45.1644 363.155 -43.3388 363.155ZM-43.3388 362.267C-44.5424 362.267 -45.2452 361.059 -45.2452 358.906C-45.2452 356.758 -44.5343 355.53 -43.3388 355.53C-42.1433 355.53 -41.4324 356.758 -41.4324 358.906C-41.4324 361.059 -42.1352 362.267 -43.3388 362.267ZM-32.1592 358.462H-35.778V359.351H-32.1592V358.462ZM-27.2994 363.042H-22.0812V362.154H-25.9262V362.089L-24.0683 360.102C-22.6466 358.579 -22.2266 357.868 -22.2266 356.952C-22.2266 355.675 -23.2605 354.657 -24.7145 354.657C-26.1645 354.657 -27.2671 355.643 -27.2671 357.097H-26.3139C-26.3139 356.156 -25.704 355.53 -24.7468 355.53C-23.8502 355.53 -23.1636 356.079 -23.1636 356.952C-23.1636 357.715 -23.6119 358.28 -24.5691 359.326L-27.2994 362.315V363.042ZM-17.5051 354.771H-18.5067L-20.5746 356.144V357.162L-18.5552 355.821H-18.5067V363.042H-17.5051V354.771ZM-14.4154 361.984C-14.0155 361.984 -13.6884 361.657 -13.6884 361.257C-13.6884 360.857 -14.0155 360.53 -14.4154 360.53C-14.8152 360.53 -15.1423 360.857 -15.1423 361.257C-15.1423 361.657 -14.8152 361.984 -14.4154 361.984ZM-14.4154 357.8C-14.0155 357.8 -13.6884 357.473 -13.6884 357.073C-13.6884 356.673 -14.0155 356.346 -14.4154 356.346C-14.8152 356.346 -15.1423 356.673 -15.1423 357.073C-15.1423 357.473 -14.8152 357.8 -14.4154 357.8ZM-9.29607 363.155C-7.47049 363.155 -6.42038 361.608 -6.42038 358.906C-6.42038 356.225 -7.48665 354.657 -9.29607 354.657C-11.1055 354.657 -12.1718 356.225 -12.1718 358.906C-12.1718 361.608 -11.1216 363.155 -9.29607 363.155ZM-9.29607 362.267C-10.4997 362.267 -11.2024 361.059 -11.2024 358.906C-11.2024 356.758 -10.4916 355.53 -9.29607 355.53C-8.10056 355.53 -7.38971 356.758 -7.38971 358.906C-7.38971 361.059 -8.09248 362.267 -9.29607 362.267ZM-2.18763 363.155C-0.36206 363.155 0.68805 361.608 0.68805 358.906C0.68805 356.225 -0.378215 354.657 -2.18763 354.657C-3.99705 354.657 -5.06332 356.225 -5.06332 358.906C-5.06332 361.608 -4.01321 363.155 -2.18763 363.155ZM-2.18763 362.267C-3.39122 362.267 -4.09399 361.059 -4.09399 358.906C-4.09399 356.758 -3.38314 355.53 -2.18763 355.53C-0.992125 355.53 -0.281282 356.758 -0.281282 358.906C-0.281282 361.059 -0.984048 362.267 -2.18763 362.267Z" fill="#0A0A0A"/>
<path d="M54.4102 363.155C56.0136 363.155 57.2051 362.15 57.2051 360.797C57.2051 359.746 56.5831 358.983 55.5411 358.809V358.745C56.3771 358.49 56.8981 357.804 56.8981 356.871C56.8981 355.699 55.9732 354.657 54.4425 354.657C53.0127 354.657 51.8253 355.538 51.7768 356.838H52.7462C52.7825 356.015 53.5661 355.53 54.4263 355.53C55.3391 355.53 55.9288 356.083 55.9288 356.919C55.9288 357.792 55.2462 358.357 54.2648 358.357H53.6024V359.246H54.2648C55.5209 359.246 56.2196 359.884 56.2196 360.797C56.2196 361.673 55.4563 362.267 54.394 362.267C53.4368 362.267 52.6775 361.774 52.6169 360.974H51.5991C51.6597 362.275 52.8067 363.155 54.4102 363.155ZM63.0251 359.31C63.0251 358.228 63.7158 357.614 64.6568 357.614C65.5535 357.614 66.0947 358.179 66.0947 359.165V363.042H67.0478V359.1C67.0478 357.505 66.1997 356.758 64.9315 356.758C63.9541 356.758 63.3967 357.166 63.1059 357.808H63.0251V354.771H62.0719V363.042H63.0251V359.31ZM74.7692 363.155C76.3726 363.155 77.5641 362.15 77.5641 360.797C77.5641 359.746 76.9421 358.983 75.9001 358.809V358.745C76.7361 358.49 77.2571 357.804 77.2571 356.871C77.2571 355.699 76.3322 354.657 74.8015 354.657C73.3717 354.657 72.1843 355.538 72.1358 356.838H73.1052C73.1415 356.015 73.9251 355.53 74.7853 355.53C75.6981 355.53 76.2878 356.083 76.2878 356.919C76.2878 357.792 75.6052 358.357 74.6238 358.357H73.9614V359.246H74.6238C75.8799 359.246 76.5786 359.884 76.5786 360.797C76.5786 361.673 75.8153 362.267 74.753 362.267C73.7958 362.267 73.0365 361.774 72.9759 360.974H71.9581C72.0187 362.275 73.1657 363.155 74.7692 363.155ZM81.914 363.155C83.7395 363.155 84.7897 361.608 84.7897 358.906C84.7897 356.225 83.7234 354.657 81.914 354.657C80.1045 354.657 79.0383 356.225 79.0383 358.906C79.0383 361.608 80.0884 363.155 81.914 363.155ZM81.914 362.267C80.7104 362.267 80.0076 361.059 80.0076 358.906C80.0076 356.758 80.7185 355.53 81.914 355.53C83.1095 355.53 83.8203 356.758 83.8203 358.906C83.8203 361.059 83.1176 362.267 81.914 362.267ZM89.5394 363.042H90.4926V359.165C90.4926 358.256 91.1549 357.614 91.8981 357.614C92.621 357.614 93.1259 358.086 93.1259 358.793V363.042H94.0952V359.003C94.0952 358.204 94.5961 357.614 95.4685 357.614C96.147 357.614 96.7286 357.973 96.7286 358.89V363.042H97.6818V358.89C97.6818 357.432 96.8982 356.758 95.7916 356.758C94.903 356.758 94.2528 357.166 93.9337 357.808H93.8691C93.5621 357.145 93.0209 356.758 92.205 356.758C91.3973 356.758 90.7995 357.145 90.541 357.808H90.4602V356.838H89.5394V363.042ZM99.4245 363.042H100.378V356.838H99.4245V363.042ZM99.9092 355.804C100.281 355.804 100.588 355.514 100.588 355.158C100.588 354.803 100.281 354.512 99.9092 354.512C99.5376 354.512 99.2307 354.803 99.2307 355.158C99.2307 355.514 99.5376 355.804 99.9092 355.804ZM103.077 359.31C103.077 358.228 103.747 357.614 104.66 357.614C105.544 357.614 106.082 358.191 106.082 359.165V363.042H107.035V359.1C107.035 357.517 106.191 356.758 104.935 356.758C103.998 356.758 103.416 357.178 103.125 357.808H103.044V356.838H102.124V363.042H103.077V359.31Z" fill="#0A0A0A"/>
<path d="M172.661 363.042V361.798H168.82C169.05 361.491 169.123 361.112 169.111 360.651L169.103 360.441H170.823V359.597H169.07L169.042 358.947H170.823V358.107H169.01L168.969 357.089C168.969 356.309 169.486 355.909 170.032 355.909C170.589 355.909 171.167 356.18 171.167 356.939H172.592C172.588 355.574 171.667 354.657 170.08 354.657C168.549 354.657 167.459 355.574 167.507 357.089L167.54 358.107H166.679V358.947H167.564L167.584 359.597H166.679V360.441H167.608L167.616 360.716C167.629 361.16 167.536 361.709 167.18 361.798H166.691V363.042H172.661ZM174.179 361.507H178.125V363.042H179.555V361.507H180.613V360.276H179.555V354.771H177.689L174.179 360.316V361.507ZM178.141 360.276H175.714V360.211L178.077 356.467H178.141V360.276ZM184.893 363.155C186.642 363.155 187.862 361.968 187.862 360.324C187.862 358.733 186.755 357.586 185.252 357.586C184.582 357.586 183.988 357.852 183.681 358.216H183.633L183.871 356.023H187.429V354.771H182.631L182.199 359.036L183.552 359.258C183.831 358.951 184.356 358.745 184.853 358.749C185.761 358.753 186.416 359.423 186.412 360.36C186.416 361.285 185.778 361.944 184.893 361.944C184.146 361.944 183.544 361.471 183.491 360.793H182.037C182.078 362.166 183.277 363.155 184.893 363.155ZM189.967 363.131C190.444 363.131 190.852 362.735 190.856 362.242C190.852 361.758 190.444 361.362 189.967 361.362C189.475 361.362 189.075 361.758 189.079 362.242C189.075 362.735 189.475 363.131 189.967 363.131ZM195.239 363.155C196.988 363.155 198.207 361.968 198.207 360.324C198.207 358.733 197.101 357.586 195.598 357.586C194.928 357.586 194.334 357.852 194.027 358.216H193.979L194.217 356.023H197.775V354.771H192.977L192.545 359.036L193.898 359.258C194.177 358.951 194.702 358.745 195.198 358.749C196.107 358.753 196.762 359.423 196.757 360.36C196.762 361.285 196.123 361.944 195.239 361.944C194.492 361.944 193.89 361.471 193.837 360.793H192.383C192.424 362.166 193.623 363.155 195.239 363.155ZM202.732 363.2C204.727 363.204 205.918 361.629 205.918 358.914C205.918 356.216 204.719 354.657 202.732 354.657C200.745 354.657 199.549 356.212 199.545 358.914C199.545 361.625 200.736 363.2 202.732 363.2ZM202.732 361.936C201.702 361.936 201.056 360.902 201.06 358.914C201.064 356.943 201.706 355.905 202.732 355.905C203.762 355.905 204.404 356.943 204.408 358.914C204.408 360.902 203.766 361.936 202.732 361.936Z" fill="#0A0A0A"/>
<rect x="262.59" y="348.807" width="69.747" height="20.6867" rx="10.3434" fill="#3DCC70"/>
<path d="M275.607 362.651L276.204 360.866H278.926L279.526 362.651H280.926L278.374 355.413H276.756L274.208 362.651H275.607ZM276.558 359.813L277.537 356.897H277.593L278.572 359.813H276.558ZM284.025 362.757C285.389 362.757 286.259 361.947 286.351 360.795H285.128C285.018 361.378 284.598 361.714 284.036 361.714C283.237 361.714 282.721 361.046 282.721 359.936C282.721 358.841 283.248 358.184 284.036 358.184C284.651 358.184 285.029 358.579 285.128 359.102H286.351C286.262 357.926 285.343 357.152 284.018 357.152C282.428 357.152 281.424 358.3 281.424 359.958C281.424 361.601 282.403 362.757 284.025 362.757ZM289.769 362.757C291.133 362.757 292.002 361.947 292.094 360.795H290.872C290.762 361.378 290.341 361.714 289.78 361.714C288.981 361.714 288.465 361.046 288.465 359.936C288.465 358.841 288.991 358.184 289.78 358.184C290.394 358.184 290.773 358.579 290.872 359.102H292.094C292.006 357.926 291.087 357.152 289.762 357.152C288.172 357.152 287.168 358.3 287.168 359.958C287.168 361.601 288.147 362.757 289.769 362.757ZM295.548 362.757C296.813 362.757 297.682 362.138 297.909 361.195L296.714 361.06C296.541 361.52 296.117 361.76 295.566 361.76C294.739 361.76 294.191 361.216 294.18 360.286H297.962V359.894C297.962 357.989 296.817 357.152 295.481 357.152C293.926 357.152 292.912 358.293 292.912 359.968C292.912 361.672 293.912 362.757 295.548 362.757ZM294.184 359.424C294.223 358.731 294.735 358.148 295.498 358.148C296.234 358.148 296.728 358.685 296.735 359.424H294.184ZM299.044 364.686H300.323V361.795H300.376C300.578 362.191 300.998 362.746 301.931 362.746C303.211 362.746 304.168 361.732 304.168 359.944C304.168 358.134 303.182 357.152 301.928 357.152C300.97 357.152 300.571 357.728 300.376 358.12H300.302V357.222H299.044V364.686ZM300.299 359.936C300.299 358.883 300.751 358.201 301.574 358.201C302.426 358.201 302.864 358.926 302.864 359.936C302.864 360.954 302.419 361.696 301.574 361.696C300.758 361.696 300.299 360.99 300.299 359.936ZM307.974 357.222H306.904V355.922H305.624V357.222H304.854V358.212H305.624V361.23C305.617 362.251 306.359 362.753 307.321 362.725C307.685 362.714 307.936 362.644 308.073 362.598L307.858 361.597C307.787 361.615 307.642 361.647 307.483 361.647C307.162 361.647 306.904 361.534 306.904 361.018V358.212H307.974V357.222ZM311.389 362.757C312.654 362.757 313.524 362.138 313.75 361.195L312.555 361.06C312.382 361.52 311.958 361.76 311.407 361.76C310.58 361.76 310.032 361.216 310.021 360.286H313.803V359.894C313.803 357.989 312.658 357.152 311.322 357.152C309.767 357.152 308.753 358.293 308.753 359.968C308.753 361.672 309.753 362.757 311.389 362.757ZM310.025 359.424C310.064 358.731 310.576 358.148 311.34 358.148C312.075 358.148 312.57 358.685 312.577 359.424H310.025ZM316.9 362.746C317.833 362.746 318.253 362.191 318.455 361.795H318.532V362.651H319.79V355.413H318.508V358.12H318.455C318.26 357.728 317.861 357.152 316.903 357.152C315.649 357.152 314.663 358.134 314.663 359.944C314.663 361.732 315.62 362.746 316.9 362.746ZM317.257 361.696C316.412 361.696 315.967 360.954 315.967 359.936C315.967 358.926 316.405 358.201 317.257 358.201C318.08 358.201 318.532 358.883 318.532 359.936C318.532 360.99 318.073 361.696 317.257 361.696Z" fill="white"/>
<rect x="262.59" y="399.988" width="69.747" height="20.6867" rx="10.3434" fill="#3DCC70"/>
<g filter="url(#filter3_d_2149_28781)">
<path d="M-471 205.217C-471 197.365 -464.635 191 -456.783 191H340.783C348.635 191 355 197.365 355 205.217V247.867H-471V205.217Z" fill="white" shape-rendering="crispEdges"/>
</g>
</g>
<defs>
<filter id="filter0_d_2149_28781" x="142.289" y="0.289154" width="867.422" height="337.133" filterUnits="userSpaceOnUse" color-interpolation-filters="sRGB">
<feFlood flood-opacity="0" result="BackgroundImageFix"/>
<feColorMatrix in="SourceAlpha" type="matrix" values="0 0 0 0 0 0 0 0 0 0 0 0 0 0 0 0 0 0 127 0" result="hardAlpha"/>
<feOffset dx="15" dy="12"/>
<feGaussianBlur stdDeviation="10"/>
<feComposite in2="hardAlpha" operator="out"/>
<feColorMatrix type="matrix" values="0 0 0 0 0.0198347 0 0 0 0 0.0917356 0 0 0 0 0.2 0 0 0 0.05 0"/>
<feBlend mode="normal" in2="BackgroundImageFix" result="effect1_dropShadow_2149_28781"/>
<feBlend mode="normal" in="SourceGraphic" in2="effect1_dropShadow_2149_28781" result="shape"/>
</filter>
<filter id="filter1_d_2149_28781" x="142.313" y="4.73494" width="837.373" height="69.0241" filterUnits="userSpaceOnUse" color-interpolation-filters="sRGB">
<feFlood flood-opacity="0" result="BackgroundImageFix"/>
<feColorMatrix in="SourceAlpha" type="matrix" values="0 0 0 0 0 0 0 0 0 0 0 0 0 0 0 0 0 0 127 0" result="hardAlpha"/>
<feOffset dy="1.42169"/>
<feGaussianBlur stdDeviation="2.84337"/>
<feComposite in2="hardAlpha" operator="out"/>
<feColorMatrix type="matrix" values="0 0 0 0 0 0 0 0 0 0 0 0 0 0 0 0 0 0 0.04 0"/>
<feBlend mode="normal" in2="BackgroundImageFix" result="effect1_dropShadow_2149_28781"/>
<feBlend mode="normal" in="SourceGraphic" in2="effect1_dropShadow_2149_28781" result="shape"/>
</filter>
<filter id="filter2_d_2149_28781" x="-485.711" y="190.289" width="867.422" height="343.133" filterUnits="userSpaceOnUse" color-interpolation-filters="sRGB">
<feFlood flood-opacity="0" result="BackgroundImageFix"/>
<feColorMatrix in="SourceAlpha" type="matrix" values="0 0 0 0 0 0 0 0 0 0 0 0 0 0 0 0 0 0 127 0" result="hardAlpha"/>
<feOffset dx="6" dy="26"/>
<feGaussianBlur stdDeviation="10"/>
<feComposite in2="hardAlpha" operator="out"/>
<feColorMatrix type="matrix" values="0 0 0 0 0.0198347 0 0 0 0 0.0917356 0 0 0 0 0.2 0 0 0 0.1 0"/>
<feBlend mode="normal" in2="BackgroundImageFix" result="effect1_dropShadow_2149_28781"/>
<feBlend mode="normal" in="SourceGraphic" in2="effect1_dropShadow_2149_28781" result="shape"/>
</filter>
<filter id="filter3_d_2149_28781" x="-476.687" y="186.735" width="837.373" height="69.0241" filterUnits="userSpaceOnUse" color-interpolation-filters="sRGB">
<feFlood flood-opacity="0" result="BackgroundImageFix"/>
<feColorMatrix in="SourceAlpha" type="matrix" values="0 0 0 0 0 0 0 0 0 0 0 0 0 0 0 0 0 0 127 0" result="hardAlpha"/>
<feOffset dy="1.42169"/>
<feGaussianBlur stdDeviation="2.84337"/>
<feComposite in2="hardAlpha" operator="out"/>
<feColorMatrix type="matrix" values="0 0 0 0 0 0 0 0 0 0 0 0 0 0 0 0 0 0 0.04 0"/>
<feBlend mode="normal" in2="BackgroundImageFix" result="effect1_dropShadow_2149_28781"/>
<feBlend mode="normal" in="SourceGraphic" in2="effect1_dropShadow_2149_28781" result="shape"/>
</filter>
</defs>
</svg>
