<svg width="32" height="32" viewBox="0 0 32 32" fill="none" xmlns="http://www.w3.org/2000/svg">
<circle cx="16.0002" cy="16.0002" r="16.0002" fill="#D2D3D9"/>
<path d="M16.0001 8.78555C18.3498 8.78555 18.6281 8.79453 19.5561 8.83687C20.4141 8.87599 20.88 9.01935 21.1901 9.13987C21.6009 9.29951 21.8941 9.4902 22.202 9.79813C22.5099 10.1061 22.7006 10.3992 22.8603 10.81C22.9808 11.1201 23.1242 11.5861 23.1633 12.4441C23.2056 13.372 23.2146 13.6503 23.2146 16C23.2146 18.3498 23.2056 18.6281 23.1633 19.5561C23.1242 20.4141 22.9808 20.88 22.8603 21.1901C22.7006 21.6009 22.5099 21.894 22.202 22.2019C21.8941 22.5099 21.6009 22.7006 21.1901 22.8602C20.88 22.9808 20.4141 23.1241 19.5561 23.1632C18.6283 23.2056 18.35 23.2146 16.0001 23.2146C13.6502 23.2146 13.3719 23.2056 12.4441 23.1632C11.5861 23.1241 11.1201 22.9808 10.81 22.8602C10.3992 22.7006 10.1061 22.5099 9.79817 22.2019C9.49024 21.894 9.29951 21.6009 9.13987 21.1901C9.01936 20.88 8.876 20.4141 8.83687 19.5561C8.79453 18.6281 8.78556 18.3498 8.78556 16C8.78556 13.6503 8.79453 13.372 8.83687 12.4441C8.876 11.5861 9.01936 11.1201 9.13987 10.81C9.29951 10.3992 9.49021 10.1061 9.79817 9.79816C10.1061 9.4902 10.3992 9.29951 10.81 9.13987C11.1201 9.01935 11.5861 8.87599 12.4441 8.83687C13.372 8.79453 13.6503 8.78555 16.0001 8.78555ZM16.0001 7.19995C13.6101 7.19995 13.3104 7.21008 12.3718 7.25291C11.4351 7.29563 10.7954 7.44441 10.2357 7.66193C9.65697 7.88682 9.16621 8.18773 8.67695 8.67695C8.18773 9.16621 7.88682 9.65697 7.66196 10.2357C7.44441 10.7954 7.29563 11.4351 7.25291 12.3718C7.21008 13.3104 7.19995 13.6101 7.19995 16C7.19995 18.39 7.21008 18.6897 7.25291 19.6283C7.29563 20.565 7.44441 21.2047 7.66196 21.7645C7.88682 22.3431 8.18773 22.8339 8.67695 23.3232C9.16621 23.8124 9.65697 24.1133 10.2357 24.3381C10.7954 24.5557 11.4351 24.7045 12.3718 24.7472C13.3104 24.79 13.6101 24.8002 16.0001 24.8002C18.39 24.8002 18.6897 24.79 19.6284 24.7472C20.565 24.7045 21.2047 24.5557 21.7645 24.3381C22.3432 24.1133 22.8339 23.8124 23.3232 23.3232C23.8124 22.8339 24.1133 22.3431 24.3382 21.7645C24.5557 21.2047 24.7045 20.565 24.7472 19.6283C24.7901 18.6897 24.8002 18.39 24.8002 16C24.8002 13.6101 24.7901 13.3104 24.7472 12.3718C24.7045 11.4351 24.5557 10.7954 24.3382 10.2357C24.1133 9.65697 23.8124 9.16621 23.3232 8.67695C22.8339 8.18773 22.3432 7.88682 21.7645 7.66193C21.2047 7.44441 20.565 7.29563 19.6284 7.25291C18.6897 7.21008 18.39 7.19995 16.0001 7.19995Z" fill="white"/>
<path d="M16.0039 11.4851C13.5081 11.4851 11.4849 13.5083 11.4849 16.0041C11.4849 18.4998 13.5081 20.523 16.0039 20.523C18.4996 20.523 20.5228 18.4998 20.5228 16.0041C20.5228 13.5083 18.4996 11.4851 16.0039 11.4851ZM16.0039 18.9374C14.3838 18.9374 13.0705 17.6241 13.0705 16.0041C13.0705 14.384 14.3838 13.0707 16.0039 13.0707C17.6239 13.0707 18.9372 14.384 18.9372 16.0041C18.9372 17.6241 17.6239 18.9374 16.0039 18.9374Z" fill="white"/>
<path d="M21.7571 11.3037C21.7571 11.8869 21.2843 12.3597 20.701 12.3597C20.1178 12.3597 19.645 11.8869 19.645 11.3037C19.645 10.7205 20.1178 10.2477 20.701 10.2477C21.2843 10.2477 21.7571 10.7205 21.7571 11.3037Z" fill="white"/>
</svg>
