<svg width="845" height="734" viewBox="0 0 845 734" fill="none" xmlns="http://www.w3.org/2000/svg">
<g clip-path="url(#clip0_2218_28992)">
<path d="M683.358 545.636L663.737 542.913L323.912 346.876C320.097 344.698 314.101 344.426 310.831 346.332L108.353 463.137L95.8175 461.231V477.84C95.8175 479.201 96.9076 480.835 99.0877 482.196L455.264 687.763C459.079 689.941 465.074 690.213 468.344 688.307L680.905 565.784C682.541 564.967 683.086 563.606 683.086 562.517V545.636H683.358Z" fill="url(#paint0_linear_2218_28992)"/>
<path d="M683.358 545.636L663.737 542.913L323.912 346.876C320.097 344.698 314.101 344.426 310.831 346.332L108.353 463.137L95.8175 461.231V477.84C95.8175 479.201 96.9076 480.835 99.0877 482.196L455.264 687.763C459.079 689.941 465.074 690.213 468.344 688.307L680.905 565.784C682.541 564.967 683.086 563.606 683.086 562.517V545.636H683.358Z" fill="url(#paint1_linear_2218_28992)"/>
<path d="M99.0875 465.587L455.264 671.154C459.079 673.332 465.074 673.604 468.344 671.698L680.905 549.175C684.176 547.27 683.903 543.73 680.088 541.552L323.912 335.985C320.097 333.807 314.101 333.535 310.831 335.441L98.27 457.964C94.7273 460.142 95.2723 463.409 99.0875 465.587Z" fill="url(#paint2_linear_2218_28992)"/>
<path opacity="0.3" d="M129.882 469.672L448.178 653.456C451.721 655.362 456.899 655.634 459.896 654.001L649.839 544.547C652.837 542.913 652.564 539.646 649.021 537.74L330.725 353.955C327.182 352.049 322.004 351.777 319.007 353.411L129.064 462.865C126.067 464.771 126.339 467.766 129.882 469.672Z" fill="#24126A"/>
<path d="M680.906 547.27L468.344 669.793C465.074 671.698 459.079 671.426 455.264 669.248L99.0877 463.954C97.4526 462.865 96.3626 461.776 96.0901 460.414C95.545 462.048 96.6351 464.226 99.0877 465.587L455.264 671.154C459.079 673.332 465.074 673.604 468.344 671.698L680.906 549.175C682.813 548.086 683.358 546.453 683.086 545.091C682.813 545.908 681.996 546.725 680.906 547.27Z" fill="white"/>
<path d="M322.924 270.671L369.596 4.13621L366.064 2.47992L371.533 -0.480129C372.628 -1.28995 373.989 -1.00896 375.619 -0.181688L734.002 209.59C736.989 211.243 739.141 215.613 738.575 218.876L691.344 487.586C691.063 488.945 690.364 490.324 689.419 490.296L684.683 488.975L683.436 488.352L327.771 279.687C324.784 278.034 322.359 273.662 322.924 270.671Z" fill="url(#paint3_linear_2218_28992)"/>
<path d="M322.035 280.73L681.754 485.912C684.48 487.528 686.932 486.451 687.477 483.758L732.987 217.722C733.532 214.76 731.352 210.452 728.354 208.567L368.635 3.38482C365.91 1.76921 363.457 2.84628 362.912 5.53896L317.402 271.575C316.857 274.807 319.037 279.115 322.035 280.73Z" fill="url(#paint4_linear_2218_28992)" fill-opacity="0.2"/>
<g opacity="0.51">
<path opacity="0.51" d="M367.242 8.98486L728.868 217.546L683.358 487.097L322.004 278.808L367.242 8.98486Z" fill="#E8EFFF"/>
</g>
<path d="M96.09 411.677L115.711 422.024L312.739 308.486C316.009 306.58 321.732 306.852 325.547 309.03L665.1 505.067C668.37 503.161 683.086 496.082 683.086 496.082L676 507.79C675.728 508.607 675.183 509.424 674.093 509.968L466.709 629.496C463.439 631.402 457.716 631.13 453.901 628.952L106.173 428.286C104.538 427.469 103.72 426.38 103.175 425.291L96.09 411.677Z" fill="url(#paint5_linear_2218_28992)"/>
<path d="M99.0877 414.945L455.264 620.511C459.079 622.689 465.074 622.962 468.344 621.056L680.906 498.533C684.176 496.627 683.903 493.087 680.088 490.909L323.912 285.343C320.097 283.164 314.101 282.892 310.831 284.798L98.2701 407.321C94.7274 409.227 95.2725 412.766 99.0877 414.945Z" fill="url(#paint6_linear_2218_28992)"/>
<path d="M99.0877 413.311L455.264 618.877C459.079 621.056 465.074 621.328 468.344 619.422L680.906 496.899C681.996 496.082 682.813 495.265 683.086 494.449C683.358 496.082 682.813 497.444 680.906 498.533L468.344 621.056C465.074 622.962 459.079 622.689 455.264 620.511L99.0877 414.945C96.6351 413.583 95.545 411.677 96.0901 409.771C96.3626 411.133 97.1801 412.222 99.0877 413.311Z" fill="white"/>
<g opacity="0.15">
<g opacity="0.15">
<g opacity="0.15">
<path opacity="0.15" d="M581.71 245.046L544.648 223.536V266.283L581.71 287.793L618.772 266.283V223.536L581.71 245.046Z" fill="#42E8E0"/>
<path opacity="0.15" d="M581.71 287.793L544.648 266.283V223.536L581.71 245.046V287.793Z" fill="#42E8E0"/>
<path opacity="0.15" d="M618.772 266.283L581.71 287.793V245.046L618.772 223.536V266.283Z" fill="#2FD3C7"/>
<path opacity="0.15" d="M581.71 245.046L544.648 223.536L581.71 202.299L618.772 223.536L581.71 245.046Z" fill="#42E8E0"/>
<path opacity="0.15" d="M581.71 245.046L546.284 224.625L544.648 225.442L581.71 246.952L618.772 225.442L617.137 224.625L581.71 245.046Z" fill="white"/>
</g>
<g opacity="0.15">
<path opacity="0.15" d="M629.946 272.273L592.884 251.036V293.783L629.946 315.02L667.007 293.783V251.036L629.946 272.273Z" fill="#42E8E0"/>
<path opacity="0.15" d="M629.945 315.02L592.884 293.783V251.036L629.945 272.273V315.02Z" fill="#42E8E0"/>
<path opacity="0.15" d="M667.007 293.783L629.945 315.02V272.273L667.007 251.036V293.783Z" fill="#2FD3C7"/>
<path opacity="0.15" d="M629.946 272.273L592.884 251.036L629.946 229.799L667.007 251.036L629.946 272.273Z" fill="#42E8E0"/>
<path opacity="0.15" d="M629.946 272.273L594.519 251.853L592.884 252.942L629.946 274.179L667.007 252.942L665.372 251.853L629.946 272.273Z" fill="white"/>
</g>
<g opacity="0.15">
<path opacity="0.15" d="M677.908 299.773L640.846 278.535V321.282L677.908 342.52L714.97 321.282V278.535L677.908 299.773Z" fill="#42E8E0"/>
<path opacity="0.15" d="M677.908 342.52L640.846 321.282V278.535L677.908 299.773V342.52Z" fill="#42E8E0"/>
<path opacity="0.15" d="M714.97 321.282L677.908 342.52V299.773L714.97 278.535V321.282Z" fill="#2FD3C7"/>
<path opacity="0.15" d="M677.908 299.773L640.846 278.535L677.908 257.026L714.97 278.535L677.908 299.773Z" fill="#42E8E0"/>
<path opacity="0.15" d="M677.908 299.773L642.481 279.352L640.846 280.441L677.908 301.679L714.97 280.441V278.535L677.908 299.773Z" fill="white"/>
</g>
<g opacity="0.15">
<path opacity="0.15" d="M533.748 274.179L496.686 252.942V295.689L533.748 316.926L570.537 295.689V252.942L533.748 274.179Z" fill="#42E8E0"/>
<path opacity="0.15" d="M533.748 316.926L496.686 295.689V252.942L533.748 274.179V316.926Z" fill="#42E8E0"/>
<path opacity="0.15" d="M570.538 295.689L533.748 316.926V274.179L570.538 252.942V295.689Z" fill="#2FD3C7"/>
<path opacity="0.15" d="M533.748 274.179L496.686 252.942L533.748 231.432L570.537 252.942L533.748 274.179Z" fill="#42E8E0"/>
<path opacity="0.15" d="M533.748 274.179L498.321 253.759L496.686 254.848L533.748 276.085L570.537 254.848L569.175 253.759L533.748 274.179Z" fill="white"/>
</g>
<g opacity="0.15">
<path opacity="0.15" d="M581.71 301.679L544.648 280.441V322.916L581.71 344.426L618.772 322.916V280.441L581.71 301.679Z" fill="#42E8E0"/>
<path opacity="0.15" d="M581.71 344.426L544.648 322.916V280.441L581.71 301.679V344.426Z" fill="#42E8E0"/>
<path opacity="0.15" d="M618.772 322.916L581.71 344.426V301.679L618.772 280.441V322.916Z" fill="#2FD3C7"/>
<path opacity="0.15" d="M581.71 301.679L544.648 280.441L581.71 258.932L618.772 280.441L581.71 301.679Z" fill="#42E8E0"/>
<path opacity="0.15" d="M581.71 301.679L546.284 281.258L544.648 282.075L581.71 303.585L618.772 282.075L617.137 281.258L581.71 301.679Z" fill="white"/>
</g>
<g opacity="0.15">
<path opacity="0.15" d="M533.748 331.084L496.686 309.575V352.322L533.748 373.831L570.537 352.322V309.575L533.748 331.084Z" fill="#42E8E0"/>
<path opacity="0.15" d="M533.748 373.831L496.686 352.322V309.575L533.748 331.084V373.831Z" fill="#42E8E0"/>
<path opacity="0.15" d="M570.538 352.322L533.748 373.831V331.084L570.538 309.575V352.322Z" fill="#2FD3C7"/>
<path opacity="0.15" d="M533.748 331.084L496.686 309.575L533.748 288.337L570.537 309.575L533.748 331.084Z" fill="#42E8E0"/>
<path opacity="0.15" d="M533.748 331.084L496.686 309.575V311.481L533.748 332.718L570.537 311.481L569.175 310.392L533.748 331.084Z" fill="white"/>
</g>
<g opacity="0.15">
<path opacity="0.15" d="M581.71 358.312L544.648 337.074V379.821L581.71 401.058L618.772 379.821V337.074L581.71 358.312Z" fill="#42E8E0"/>
<path opacity="0.15" d="M581.71 401.058L544.648 379.821V337.074L581.71 358.312V401.058Z" fill="#42E8E0"/>
<path opacity="0.15" d="M618.772 379.821L581.71 401.058V358.312L618.772 337.074V379.821Z" fill="#2FD3C7"/>
<path opacity="0.15" d="M581.71 358.312L544.648 337.074L581.71 315.565L618.772 337.074L581.71 358.312Z" fill="#42E8E0"/>
<path opacity="0.15" d="M581.71 358.312L544.648 337.074V338.98L581.71 360.217L618.772 338.98V337.074L581.71 358.312Z" fill="white"/>
</g>
<g opacity="0.15">
<path opacity="0.15" d="M581.71 188.141L544.648 166.903V209.65L581.71 230.888L618.772 209.65V166.903L581.71 188.141Z" fill="#42E8E0"/>
<path opacity="0.15" d="M581.71 230.888L544.648 209.65V166.903L581.71 188.141V230.888Z" fill="#42E8E0"/>
<path opacity="0.15" d="M618.772 209.65L581.71 230.888V188.141L618.772 166.903V209.65Z" fill="#2FD3C7"/>
<path opacity="0.15" d="M581.71 188.141L544.648 166.903L581.71 145.394L618.772 166.903L581.71 188.141Z" fill="#42E8E0"/>
<path opacity="0.15" d="M581.71 188.141L546.284 167.72L544.648 168.809L581.71 190.047L618.772 168.809L617.137 167.72L581.71 188.141Z" fill="white"/>
</g>
<g opacity="0.15">
<path opacity="0.7" d="M581.71 351.505L556.366 336.802L581.71 322.372L607.054 336.802L581.71 351.505Z" fill="#18B2A3"/>
<path opacity="0.7" d="M533.748 324.005L508.404 309.302L533.748 294.872L558.819 309.302L533.748 324.005Z" fill="#18B2A3"/>
<path opacity="0.7" d="M629.945 322.099L604.602 307.669L629.945 292.966L655.017 307.669L629.945 322.099Z" fill="#18B2A3"/>
<path opacity="0.7" d="M678.18 293.238L652.836 278.536L678.18 264.105L703.252 278.536L678.18 293.238Z" fill="#18B2A3"/>
<path opacity="0.7" d="M485.513 296.506L460.169 282.075L485.513 267.372L510.857 282.075L485.513 296.506Z" fill="#18B2A3"/>
</g>
<g opacity="0.15">
<path opacity="0.15" d="M629.946 215.64L592.884 194.403V237.15L629.946 258.387L667.007 237.15V194.403L629.946 215.64Z" fill="#42E8E0"/>
<path opacity="0.15" d="M629.945 258.387L592.884 237.15V194.403L629.945 215.64V258.387Z" fill="#42E8E0"/>
<path opacity="0.15" d="M667.007 237.15L629.945 258.387V215.64L667.007 194.403V237.15Z" fill="#2FD3C7"/>
<path opacity="0.15" d="M629.946 215.64L592.884 194.403L629.946 172.894L667.007 194.403L629.946 215.64Z" fill="#42E8E0"/>
<path opacity="0.15" d="M629.946 215.64L594.519 195.22L592.884 196.037L629.946 217.546L667.007 196.037L665.372 195.22L629.946 215.64Z" fill="white"/>
</g>
<g opacity="0.15">
<path opacity="0.15" d="M677.908 243.14L640.846 221.63V264.377L677.908 285.887L714.97 264.377V221.63L677.908 243.14Z" fill="#42E8E0"/>
<path opacity="0.15" d="M677.908 285.887L640.846 264.377V221.63L677.908 243.14V285.887Z" fill="#42E8E0"/>
<path opacity="0.15" d="M714.97 264.377L677.908 285.887V243.14L714.97 221.63V264.377Z" fill="#2FD3C7"/>
<path opacity="0.15" d="M677.908 243.14L640.846 221.63L677.908 200.393L714.97 221.63L677.908 243.14Z" fill="#42E8E0"/>
<path opacity="0.15" d="M677.908 243.14L642.481 222.719L640.846 223.536L677.908 245.046L714.97 223.536V221.63L677.908 243.14Z" fill="white"/>
</g>
<g opacity="0.15">
<path opacity="0.15" d="M533.748 217.546L496.686 196.037V238.784L533.748 260.293L570.537 238.784V196.037L533.748 217.546Z" fill="#42E8E0"/>
<path opacity="0.15" d="M533.748 260.293L496.686 238.784V196.037L533.748 217.546V260.293Z" fill="#42E8E0"/>
<path opacity="0.15" d="M570.538 238.784L533.748 260.293V217.546L570.538 196.037V238.784Z" fill="#2FD3C7"/>
<path opacity="0.15" d="M533.748 217.546L496.686 196.037L533.748 174.799L570.537 196.037L533.748 217.546Z" fill="#42E8E0"/>
<path opacity="0.15" d="M533.748 217.546L498.321 197.126L496.686 197.943L533.748 219.452L570.537 197.943L569.175 197.126L533.748 217.546Z" fill="white"/>
</g>
<g opacity="0.15">
<path opacity="0.15" d="M581.71 245.046L544.648 223.536V266.283L581.71 287.793L618.772 266.283V223.536L581.71 245.046Z" fill="#42E8E0"/>
<path opacity="0.15" d="M581.71 287.793L544.648 266.283V223.536L581.71 245.046V287.793Z" fill="#42E8E0"/>
<path opacity="0.15" d="M618.772 266.283L581.71 287.793V245.046L618.772 223.536V266.283Z" fill="#2FD3C7"/>
<path opacity="0.15" d="M581.71 245.046L544.648 223.536L581.71 202.299L618.772 223.536L581.71 245.046Z" fill="#42E8E0"/>
<path opacity="0.15" d="M581.71 245.046L546.284 224.625L544.648 225.442L581.71 246.952L618.772 225.442L617.137 224.625L581.71 245.046Z" fill="white"/>
</g>
<g opacity="0.15">
<path opacity="0.15" d="M629.946 272.273L592.884 251.036V293.783L629.946 315.02L667.007 293.783V251.036L629.946 272.273Z" fill="#42E8E0"/>
<path opacity="0.15" d="M629.945 315.02L592.884 293.783V251.036L629.945 272.273V315.02Z" fill="#42E8E0"/>
<path opacity="0.15" d="M667.007 293.783L629.945 315.02V272.273L667.007 251.036V293.783Z" fill="#2FD3C7"/>
<path opacity="0.15" d="M629.946 272.273L592.884 251.036L629.946 229.799L667.007 251.036L629.946 272.273Z" fill="#42E8E0"/>
<path opacity="0.15" d="M629.946 272.273L594.519 251.853L592.884 252.942L629.946 274.179L667.007 252.942V251.036L629.946 272.273Z" fill="white"/>
</g>
<g opacity="0.15">
<path opacity="0.15" d="M485.513 246.952L448.451 225.442V268.189L485.513 289.426L522.575 268.189V225.442L485.513 246.952Z" fill="#42E8E0"/>
<path opacity="0.15" d="M485.513 289.426L448.451 268.189V225.442L485.513 246.952V289.426Z" fill="#42E8E0"/>
<path opacity="0.15" d="M522.575 268.189L485.513 289.426V246.952L522.575 225.442V268.189Z" fill="#2FD3C7"/>
<path opacity="0.15" d="M485.513 246.952L448.451 225.442L485.513 204.205L522.575 225.442L485.513 246.952Z" fill="#42E8E0"/>
<path opacity="0.15" d="M485.513 246.952L450.086 226.259L448.451 227.348L485.513 248.585L522.575 227.348L520.94 226.259L485.513 246.952Z" fill="white"/>
</g>
<g opacity="0.15">
<path opacity="0.15" d="M533.748 274.179L496.686 252.942V295.689L533.748 316.926L570.537 295.689V252.942L533.748 274.179Z" fill="#42E8E0"/>
<path opacity="0.15" d="M533.748 316.926L496.686 295.689V252.942L533.748 274.179V316.926Z" fill="#42E8E0"/>
<path opacity="0.15" d="M570.538 295.689L533.748 316.926V274.179L570.538 252.942V295.689Z" fill="#2FD3C7"/>
<path opacity="0.15" d="M533.748 274.179L496.686 252.942L533.748 231.432L570.537 252.942L533.748 274.179Z" fill="#42E8E0"/>
<path opacity="0.15" d="M533.748 274.179L496.686 252.942V254.848L533.748 276.085L570.537 254.848L569.175 253.758L533.748 274.179Z" fill="white"/>
</g>
<g opacity="0.15">
<path opacity="0.15" d="M581.71 301.679L544.648 280.441V322.916L581.71 344.426L618.772 322.916V280.441L581.71 301.679Z" fill="#42E8E0"/>
<path opacity="0.15" d="M581.71 344.426L544.648 322.916V280.441L581.71 301.679V344.426Z" fill="#42E8E0"/>
<path opacity="0.15" d="M618.772 322.916L581.71 344.426V301.679L618.772 280.441V322.916Z" fill="#2FD3C7"/>
<path opacity="0.15" d="M581.71 301.679L544.648 280.441L581.71 258.932L618.772 280.441L581.71 301.679Z" fill="#42E8E0"/>
<path opacity="0.15" d="M581.71 301.679L544.648 280.441V282.075L581.71 303.585L618.772 282.075V280.441L581.71 301.679Z" fill="white"/>
</g>
<g opacity="0.15">
<path opacity="0.7" d="M485.513 240.145L460.169 225.442L485.513 211.012L510.857 225.442L485.513 240.145Z" fill="#18B2A3"/>
</g>
<g opacity="0.15">
<path opacity="0.15" d="M581.71 131.508L544.648 110.271V153.017L581.71 174.255L618.772 153.017V110.271L581.71 131.508Z" fill="#42E8E0"/>
<path opacity="0.15" d="M581.71 174.255L544.648 153.017V110.271L581.71 131.508V174.255Z" fill="#42E8E0"/>
<path opacity="0.15" d="M618.772 153.017L581.71 174.255V131.508L618.772 110.271V153.017Z" fill="#2FD3C7"/>
<path opacity="0.15" d="M581.71 131.508L544.648 110.271L581.71 88.761L618.772 110.271L581.71 131.508Z" fill="#42E8E0"/>
<path opacity="0.15" d="M581.71 131.508L544.648 110.271V111.904L581.71 133.414L618.772 111.904V110.271L581.71 131.508Z" fill="white"/>
</g>
<g opacity="0.15">
<path opacity="0.15" d="M533.748 160.913L496.686 139.404V182.151L533.748 203.66L570.537 182.151V139.404L533.748 160.913Z" fill="#42E8E0"/>
<path opacity="0.15" d="M533.748 203.66L496.686 182.151V139.404L533.748 160.913V203.66Z" fill="#42E8E0"/>
<path opacity="0.15" d="M570.538 182.151L533.748 203.66V160.913L570.538 139.404V182.151Z" fill="#2FD3C7"/>
<path opacity="0.15" d="M533.748 160.913L496.686 139.404L533.748 118.167L570.537 139.404L533.748 160.913Z" fill="#42E8E0"/>
<path opacity="0.15" d="M533.748 160.913L496.686 139.404V141.31L533.748 162.547L570.537 141.31V139.404L533.748 160.913Z" fill="white"/>
</g>
<g opacity="0.15">
<path opacity="0.15" d="M485.513 190.047L448.451 168.809V211.556L485.513 232.794L522.575 211.556V168.809L485.513 190.047Z" fill="#42E8E0"/>
<path opacity="0.15" d="M485.513 232.794L448.451 211.556V168.809L485.513 190.047V232.794Z" fill="#42E8E0"/>
<path opacity="0.15" d="M522.575 211.556L485.513 232.794V190.047L522.575 168.809V211.556Z" fill="#2FD3C7"/>
<path opacity="0.15" d="M485.513 190.047L448.451 168.809L485.513 147.3L522.575 168.809L485.513 190.047Z" fill="#42E8E0"/>
<path opacity="0.15" d="M485.513 190.047L448.451 168.809V170.715L485.513 191.953L522.575 170.715V168.809L485.513 190.047Z" fill="white"/>
</g>
<g opacity="0.15">
<path opacity="0.15" d="M533.748 219.18L496.686 197.943V240.69L533.748 261.927L570.537 240.69V197.943L533.748 219.18Z" fill="#42E8E0"/>
<path opacity="0.15" d="M533.748 261.927L496.686 240.69V197.943L533.748 219.18V261.927Z" fill="#42E8E0"/>
<path opacity="0.15" d="M570.538 240.69L533.748 261.927V219.18L570.538 197.943V240.69Z" fill="#2FD3C7"/>
<path opacity="0.15" d="M533.748 219.18L496.686 197.943L533.748 176.705L570.537 197.943L533.748 219.18Z" fill="#42E8E0"/>
<path opacity="0.15" d="M533.748 219.18L496.686 197.943V199.849L533.748 221.086L570.537 199.849V197.943L533.748 219.18Z" fill="white"/>
</g>
</g>
</g>
<g clip-path="url(#clip1_2218_28992)">
<path fill-rule="evenodd" clip-rule="evenodd" d="M319.164 335.968L309.129 330.137C307.972 329.36 307.975 328.588 308.75 328.204L319.214 322.061C319.99 321.291 321.537 321.296 322.695 322.073L332.729 327.904C333.888 328.295 333.884 329.454 333.109 329.837L322.645 335.981C321.868 336.751 320.321 336.745 319.164 335.968ZM328.041 341.022L338.075 346.853C339.233 347.63 340.78 347.636 341.556 346.866L352.02 340.722C352.795 340.339 352.799 339.18 351.641 338.789L341.606 332.958C340.449 332.182 338.902 332.176 338.125 332.946L327.661 339.089C326.886 339.473 326.883 340.246 328.041 341.022ZM571.101 505.314L289.365 341.27C288.595 340.494 288.211 339.72 289.372 339.338L299.837 333.194C300.613 332.424 302.16 332.43 303.317 333.207L584.666 497.25C585.825 497.64 585.821 498.799 585.046 499.183L574.582 505.326C573.805 506.096 572.258 506.091 571.101 505.314ZM294.074 429.755L274.778 418.482C273.62 417.706 273.623 416.933 274.398 416.549L284.862 410.406C285.638 409.636 287.185 409.642 288.343 410.418L307.64 421.691C308.799 422.082 308.794 423.241 308.019 423.624L297.555 429.768C296.779 430.538 295.232 430.532 294.074 429.755ZM303.724 435.199L323.02 446.472C324.178 447.249 325.725 447.254 326.501 446.484L336.965 440.341C337.74 439.957 337.744 438.798 336.586 438.408L317.289 427.135C316.131 426.358 314.584 426.352 313.808 427.122L303.344 433.266C302.569 433.649 302.565 434.808 303.724 435.199ZM468.134 530.827L448.837 519.554C447.678 519.164 447.681 518.391 448.458 517.621L458.922 511.477C459.698 510.708 461.245 510.713 462.403 511.49L481.699 522.763C482.858 523.153 482.854 524.312 482.079 524.696L471.615 530.84C470.839 531.609 469.292 531.604 468.134 530.827ZM497.079 547.93L477.782 536.657C476.624 535.88 476.627 535.107 477.402 534.724L487.866 528.58C488.643 527.81 490.19 527.816 491.347 528.593L510.644 539.866C511.803 540.256 511.799 541.415 511.024 541.799L500.559 547.942C499.783 548.712 498.236 548.706 497.079 547.93ZM545.711 467.749L555.745 473.58C556.903 474.356 558.45 474.362 559.226 473.592L569.69 467.449C570.465 467.065 570.469 465.906 569.311 465.516L559.276 459.685C558.119 458.908 556.572 458.902 555.795 459.672L545.331 465.816C544.556 466.199 544.94 466.973 545.711 467.749ZM270.763 352.02L552.498 516.064C553.656 516.841 555.203 516.846 555.979 516.076L566.443 509.933C567.218 509.549 567.222 508.39 566.064 508L284.328 343.956C283.17 343.179 281.623 343.173 280.847 343.943L270.383 350.087C269.608 350.47 269.605 351.243 270.763 352.02ZM533.509 526.813L251.773 362.769C250.614 362.378 250.619 361.219 251.393 360.836L261.858 354.692C262.634 353.922 264.181 353.928 265.338 354.705L547.074 518.749C548.233 519.139 548.229 520.298 547.454 520.682L536.99 526.825C536.213 527.595 534.666 527.59 533.509 526.813ZM272.922 396.841L514.907 537.563C516.064 538.34 517.611 538.345 518.387 537.575L528.852 531.432C529.626 531.048 529.631 529.889 528.472 529.499L286.486 389.164C285.328 388.387 283.781 388.381 283.005 389.151L272.542 394.908C271.767 395.292 271.763 396.451 272.922 396.841ZM537.221 462.696L527.186 456.865C526.029 456.088 526.031 455.315 526.806 454.932L537.271 448.788C538.047 448.018 539.594 448.024 540.751 448.801L550.786 454.632C551.945 455.022 551.94 456.181 551.166 456.565L540.701 462.708C539.925 463.478 538.378 463.473 537.221 462.696ZM508.275 445.98L518.309 451.811C519.467 452.587 521.014 452.593 521.79 451.823L532.254 445.679C533.029 445.296 533.033 444.137 531.874 443.746L521.84 437.915C520.682 437.139 519.135 437.133 518.359 437.903L507.895 444.047C507.12 444.43 507.117 445.203 508.275 445.98ZM499.398 440.925L489.363 435.094C488.592 434.319 488.208 433.545 488.983 433.161L499.448 427.018C500.224 426.248 501.771 426.253 502.928 427.03L512.963 432.861C514.122 433.252 514.117 434.411 513.343 434.794L502.878 440.938C502.102 441.708 500.555 441.702 499.398 440.925ZM446.138 409.827L456.173 415.658C457.33 416.435 458.877 416.441 459.653 415.671L470.118 409.527C470.893 409.144 470.897 407.985 469.738 407.594L459.703 401.763C458.546 400.987 456.999 400.981 456.223 401.751L446.145 407.896C444.984 408.278 445.368 409.052 446.138 409.827ZM437.648 404.775L427.614 398.944C426.456 398.167 426.459 397.394 427.234 397.011L437.698 390.867C438.474 390.097 440.021 390.103 441.179 390.88L451.213 396.711C452.372 397.101 452.368 398.26 451.593 398.644L441.129 404.787C440.352 405.557 438.805 405.551 437.648 404.775ZM408.702 388.058L418.737 393.889C419.894 394.666 421.441 394.672 422.217 393.902L432.682 387.758C433.456 387.375 433.461 386.216 432.302 385.825L422.267 379.994C421.11 379.217 419.563 379.212 418.787 379.982L408.322 386.125C407.547 386.509 407.545 387.282 408.702 388.058ZM399.825 383.004L389.791 377.173C389.02 376.398 388.636 375.624 389.798 375.241L400.262 369.098C401.038 368.328 402.585 368.334 403.743 369.11L413.39 374.94C414.549 375.331 414.545 376.49 413.77 376.873L403.306 383.017C402.529 383.787 400.982 383.781 399.825 383.004ZM346.566 351.906L356.6 357.737C357.758 358.514 359.305 358.52 360.081 357.75L370.545 351.606C371.32 351.223 371.324 350.064 370.165 349.673L360.131 343.842C358.973 343.065 357.426 343.06 356.65 343.83L346.186 349.973C345.411 350.357 345.795 351.131 346.566 351.906ZM243.207 378.963L233.172 373.132C232.4 372.743 232.403 371.971 232.792 371.199L243.257 365.056C244.033 364.286 245.58 364.292 246.737 365.068L256.772 370.899C257.931 371.29 257.926 372.449 257.152 372.832L246.687 378.976C245.911 379.746 244.364 379.74 243.207 378.963ZM581.831 489.695L591.866 495.526C593.023 496.303 594.57 496.309 595.346 495.539L605.811 489.395C606.586 489.012 606.59 487.853 605.431 487.462L595.397 481.631C594.239 480.854 592.692 480.849 591.916 481.619L581.451 487.762C580.677 488.146 581.059 489.306 581.831 489.695ZM439.188 514.111L333.44 452.69C332.283 451.914 332.286 451.141 333.06 450.757L343.525 444.614C344.301 443.844 345.848 443.85 347.005 444.626L452.753 506.047C453.912 506.437 453.908 507.596 453.133 507.98L442.669 514.123C441.893 514.893 440.346 514.888 439.188 514.111ZM255.094 407.208L265.129 413.039C266.286 413.816 267.833 413.822 268.609 413.052L279.074 406.908C279.848 406.525 279.853 405.366 278.694 404.975L268.659 399.144C267.502 398.367 265.955 398.362 265.179 399.132L254.714 405.275C253.939 405.659 253.937 406.431 255.094 407.208ZM245.06 401.377L235.412 395.547C234.254 394.771 234.257 393.998 235.032 393.614L245.496 387.471C246.273 386.701 247.82 386.707 248.977 387.483L258.625 393.313C259.784 393.704 259.779 394.863 259.005 395.246L248.54 401.39C247.764 402.16 246.217 402.154 245.06 401.377ZM252.853 385.179L262.887 391.01C264.045 391.787 265.592 391.793 266.368 391.023L276.832 384.879C277.607 384.496 277.611 383.337 276.453 382.946L266.418 377.115C265.261 376.339 263.714 376.333 262.937 377.103L252.86 383.248C251.697 384.016 252.081 384.79 252.853 385.179ZM224.991 389.715L214.956 383.884C214.185 383.109 213.802 382.335 214.576 381.951L225.041 375.807C225.817 375.038 227.364 375.043 228.521 375.82L238.556 381.651C239.715 382.042 239.711 383.2 238.936 383.584L228.471 389.728C227.695 390.497 226.148 390.492 224.991 389.715Z" fill="#CDCEF9"/>
<path d="M383.248 520.617L392.841 514.985C393.615 514.601 393.62 513.442 392.461 513.052L286.713 451.632C285.555 450.855 284.008 450.849 283.232 451.619L272.768 457.763C272.555 457.868 272.4 458.003 272.312 458.159L262.768 463.763C262.555 463.868 262.4 464.003 262.312 464.159L257.324 467.087C256.896 467.163 256.513 467.34 256.232 467.619L245.768 473.763C244.993 474.146 244.99 474.919 246.148 475.696L351.895 537.116C353.053 537.893 354.6 537.898 355.376 537.129L361.284 533.66C361.712 533.585 362.095 533.408 362.376 533.129L372.841 526.985C373.018 526.897 373.156 526.768 373.248 526.617L382.841 520.985C383.018 520.897 383.156 520.768 383.248 520.617Z" fill="#CDCEF9"/>
<path d="M546.02 475.535C546.308 475.096 546.885 474.954 547.343 475.21L588.446 498.134C589.128 498.514 589.131 499.493 588.452 499.877L575.503 507.215C575.192 507.391 574.81 507.388 574.502 507.206L539.902 486.77C539.411 486.48 539.262 485.838 539.575 485.361L546.02 475.535Z" fill="#CDCEF9"/>
<path d="M527.009 486.535C527.298 486.094 527.879 485.953 528.338 486.213L568.875 509.161C569.55 509.543 569.552 510.513 568.88 510.899L556.995 517.716C556.688 517.892 556.311 517.893 556.003 517.718L520.925 497.764C520.424 497.479 520.267 496.829 520.583 496.347L527.009 486.535Z" fill="#CDCEF9"/>
<path d="M505.982 496.26C506.275 495.831 506.848 495.697 507.301 495.954L549.965 520.13C550.641 520.513 550.641 521.487 549.965 521.87L537.013 529.209C536.697 529.389 536.307 529.382 535.997 529.192L499.895 507.049C499.408 506.75 499.269 506.105 499.591 505.633L505.982 496.26Z" fill="#CDCEF9"/>
<path d="M485.494 506.276C485.78 505.838 486.354 505.694 486.812 505.945L531.952 530.653C532.633 531.026 532.648 532 531.977 532.393L519.509 539.702C519.195 539.886 518.806 539.885 518.493 539.699L479.896 516.77C479.407 516.479 479.259 515.84 479.569 515.364L485.494 506.276Z" fill="#CDCEF9"/>
</g>
<path d="M489.576 528.639C489.893 528.294 490.406 528.215 490.812 528.449L513.419 541.486C514.09 541.873 514.085 542.843 513.41 543.223L501.025 550.204C500.702 550.386 500.305 550.375 499.993 550.175L482 538.618C481.478 538.283 481.384 537.558 481.804 537.1L489.576 528.639Z" fill="#CDCEF9"/>
<path opacity="0.3" d="M469.679 114.805C463.447 46.469 391.086 16.0462 373.336 5.25191L327.384 274.409L684.056 480.107L709.876 331.518C692.775 344.569 718.068 354.63 642.468 331.518C547.968 302.628 480.364 231.98 469.679 114.805Z" fill="url(#paint7_linear_2218_28992)"/>
<path fill-rule="evenodd" clip-rule="evenodd" d="M341.579 427.783C346.22 414.682 356.848 404.578 368.627 402.06C373.269 401.072 379.735 401.55 383.832 403.144C385.753 403.909 422.341 423.607 425.093 425.392C427.558 426.986 431.303 430.652 432.968 433.17C437.481 439.927 439.146 447.322 438.762 459.084C438.538 465.714 437.994 469.252 436.457 473.811C433 484.074 426.15 492.521 417.411 497.302C410.017 501.319 401.022 502.084 393.98 499.279C391.707 498.354 355.279 478.719 352.238 476.743C348.365 474.257 344.652 469.794 342.315 464.854C339.658 459.18 338.826 453.793 339.082 443.657C339.274 436.071 339.786 432.915 341.579 427.783ZM325.41 109.236C340.455 101.459 359.747 97.6575 377 96C380.5 95.6637 399 96 399 96C399 96 409.027 96.7753 419 100.5C438.092 107.63 448.347 112.449 464 125.5C488.208 145.684 500.058 166.133 505.5 194.566C508.541 210.312 507.965 228.257 503.9 244.354C495.705 277.026 474.258 307.18 441.896 331.564L438.31 334.274V349.574C438.31 361.272 438.182 365.575 437.83 367.902C435.782 381.544 427.203 393.625 415.743 399.171C408.637 402.614 401.85 401.498 395 399.171C393.175 398.566 358.733 382.214 353.099 378.835C347.433 375.456 342.984 369.782 340.647 362.929C340.341 362.03 340.084 361.279 339.87 360.517C338.759 356.575 338.759 352.321 338.759 325.667C338.759 312 338.791 296.342 339.367 292.932C339.485 292.234 339.562 291.441 339.648 290.564C340.231 284.605 341.196 274.736 357.741 264.308C373.874 254.14 381.3 248.498 389.655 240.083C399.578 230.074 407.5 208 407.5 208C407.5 208 410.393 199.436 408.5 194.5C407.307 191.39 406.026 189.673 403.419 187.649C399.405 184.531 393.672 185.627 388 187.649C383.319 189.317 379.368 193.755 377.179 196.214C376.697 196.755 376.3 197.201 376 197.5C374.065 199.608 370.044 205.596 365.282 212.686C356.645 225.546 345.572 242.031 340.103 245.566C333.362 249.921 332.746 250.052 331.172 250.385C330.765 250.471 330.294 250.571 329.636 250.761C319 252 308.058 247.606 303 245.566C300.919 244.705 279.711 234.5 271.5 228.5C258.5 219 257.432 208.367 258.5 194.5C259.085 186.905 260.362 183.837 264.431 175.919C268.5 168 282.677 143.916 294.905 131.676C304.636 121.986 313.759 115.261 325.41 109.236Z" fill="url(#paint8_linear_2218_28992)"/>
<path d="M557.342 346.645C559.934 341.557 558.253 337.047 554.13 334.946C549.984 332.833 545.369 334.136 542.777 339.224C540.196 344.289 541.843 348.81 545.989 350.923C550.112 353.024 554.749 351.733 557.342 346.645ZM554.008 344.946C552.329 348.242 549.855 349.23 547.471 348.015C545.079 346.796 544.431 344.218 546.111 340.922C547.79 337.627 550.256 336.635 552.648 337.854C555.032 339.069 555.687 341.651 554.008 344.946ZM560.909 358.544C564.447 360.347 567.884 359.047 569.714 355.455C571.556 351.84 570.584 348.304 567.045 346.5C563.507 344.697 560.074 345.99 558.232 349.605C556.402 353.197 557.37 356.741 560.909 358.544ZM562.201 356.046C560.568 355.214 560.495 353.293 561.532 351.257C562.569 349.222 564.17 348.144 565.803 348.976C567.405 349.793 567.474 351.722 566.438 353.757C565.401 355.792 563.803 356.862 562.201 356.046ZM574.023 365.226C577.562 367.029 580.998 365.729 582.829 362.137C584.67 358.523 583.698 354.986 580.16 353.183C576.621 351.38 573.188 352.672 571.347 356.287C569.517 359.879 570.484 363.423 574.023 365.226ZM575.315 362.728C573.683 361.896 573.609 359.975 574.646 357.94C575.683 355.904 577.285 354.826 578.917 355.658C580.52 356.475 580.589 358.404 579.552 360.439C578.515 362.474 576.917 363.545 575.315 362.728ZM587.138 371.909C590.676 373.712 594.113 372.411 595.943 368.819C597.785 365.205 596.813 361.668 593.274 359.865C589.736 358.062 586.303 359.354 584.461 362.969C582.631 366.561 583.599 370.106 587.138 371.909ZM588.43 369.41C586.797 368.578 586.724 366.657 587.761 364.622C588.798 362.587 590.399 361.509 592.032 362.341C593.634 363.157 593.703 365.086 592.667 367.121C591.63 369.156 590.032 370.227 588.43 369.41ZM600.252 378.591C603.791 380.394 607.227 379.093 609.058 375.502C610.899 371.887 609.927 368.35 606.389 366.547C602.85 364.744 599.417 366.037 597.576 369.651C595.746 373.243 596.713 376.788 600.252 378.591ZM601.544 376.093C599.912 375.261 599.838 373.339 600.875 371.304C601.912 369.269 603.514 368.191 605.146 369.023C606.749 369.839 606.818 371.768 605.781 373.803C604.744 375.839 603.146 376.909 601.544 376.093ZM605.984 386.734L609.219 388.382L612.399 382.14L612.498 382.19C612.451 383.391 612.877 384.976 614.76 385.935C617.418 387.29 620.563 386.242 622.552 382.339C624.595 378.33 623.444 375.237 620.885 373.933C618.934 372.939 617.408 373.625 616.491 374.354L616.347 374.28L617.345 372.321L614.156 370.696L605.984 386.734ZM614.351 378.141C615.411 376.061 616.969 375.18 618.541 375.981C620.143 376.798 620.286 378.621 619.256 380.641C618.219 382.676 616.634 383.647 615.047 382.839C613.49 382.045 613.291 380.222 614.351 378.141ZM635.698 385.862C636.505 383.566 635.45 381.355 632.504 379.853C629.52 378.333 626.849 378.713 625.711 380.964C624.813 382.707 625.338 384.399 627.384 386.016L629.199 387.448C630.112 388.171 630.385 388.779 630.103 389.372C629.735 390.055 628.732 390.165 627.601 389.589C626.446 389.001 625.931 388.116 626.217 387.067L622.95 385.612C622.116 388 623.315 390.342 626.405 391.916C629.428 393.456 632.377 393.018 633.557 390.72C634.409 389.031 633.822 387.46 631.795 385.844L629.901 384.343C628.935 383.554 628.722 382.977 629.016 382.419C629.364 381.716 630.386 381.663 631.389 382.174C632.512 382.746 632.867 383.702 632.644 384.535L635.698 385.862ZM645.542 381.79L642.163 380.069L636.918 391.113L639.697 392.529L645.542 381.79ZM635.831 396.681C636.803 397.176 638.06 396.793 638.582 395.787C639.082 394.788 638.653 393.546 637.681 393.051C636.678 392.54 635.437 392.931 634.937 393.93C634.415 394.936 634.829 396.17 635.831 396.681Z" fill="#F2F3F7"/>
</g>
<defs>
<linearGradient id="paint0_linear_2218_28992" x1="672.207" y1="517.246" x2="84.8115" y2="517.246" gradientUnits="userSpaceOnUse">
<stop stop-color="#5761D7"/>
<stop offset="0.1779" stop-color="#5C66D9"/>
<stop offset="0.3876" stop-color="#6A73DF"/>
<stop offset="0.6134" stop-color="#8289E8"/>
<stop offset="0.849" stop-color="#A3A7F5"/>
<stop offset="1" stop-color="#BCBEFF"/>
</linearGradient>
<linearGradient id="paint1_linear_2218_28992" x1="485.949" y1="517.217" x2="-101.714" y2="517.217" gradientUnits="userSpaceOnUse">
<stop stop-color="#E6F9EF"/>
<stop offset="0.2938" stop-color="#EFEAFE"/>
<stop offset="0.6399" stop-color="#D3D2F9"/>
<stop offset="1" stop-color="#EFEAFE"/>
</linearGradient>
<linearGradient id="paint2_linear_2218_28992" x1="485.85" y1="503.585" x2="-101.545" y2="503.585" gradientUnits="userSpaceOnUse">
<stop stop-color="#C0BFF6"/>
<stop offset="0.2938" stop-color="#C5C4F7"/>
<stop offset="0.6399" stop-color="#D3D2F9"/>
<stop offset="1" stop-color="#E9E9FD"/>
</linearGradient>
<linearGradient id="paint3_linear_2218_28992" x1="738.791" y1="247.477" x2="323.114" y2="244.816" gradientUnits="userSpaceOnUse">
<stop stop-color="#C0BFF6"/>
<stop offset="0.2938" stop-color="#C5C4F7"/>
<stop offset="0.6399" stop-color="#D3D2F9"/>
<stop offset="1" stop-color="#E9E9FD"/>
</linearGradient>
<linearGradient id="paint4_linear_2218_28992" x1="317.318" y1="486.671" x2="638.33" y2="358.493" gradientUnits="userSpaceOnUse">
<stop stop-color="#3071F2"/>
<stop offset="1" stop-color="#3071F2" stop-opacity="0"/>
</linearGradient>
<linearGradient id="paint5_linear_2218_28992" x1="683.112" y1="468.865" x2="96.0295" y2="468.865" gradientUnits="userSpaceOnUse">
<stop stop-color="#5761D7"/>
<stop offset="0.1779" stop-color="#5C66D9"/>
<stop offset="0.3876" stop-color="#6A73DF"/>
<stop offset="0.6134" stop-color="#8289E8"/>
<stop offset="0.849" stop-color="#A3A7F5"/>
<stop offset="1" stop-color="#BCBEFF"/>
</linearGradient>
<linearGradient id="paint6_linear_2218_28992" x1="485.85" y1="452.826" x2="-101.545" y2="452.826" gradientUnits="userSpaceOnUse">
<stop stop-color="#E6F9EF"/>
<stop offset="0.2938" stop-color="#EFEAFE"/>
<stop offset="0.6399" stop-color="#D3D2F9"/>
<stop offset="1" stop-color="#EFEAFE"/>
</linearGradient>
<linearGradient id="paint7_linear_2218_28992" x1="632.711" y1="216.104" x2="488.521" y2="349.123" gradientUnits="userSpaceOnUse">
<stop stop-color="#3071F2" stop-opacity="0.2"/>
<stop offset="1" stop-color="white" stop-opacity="0"/>
</linearGradient>
<linearGradient id="paint8_linear_2218_28992" x1="557.198" y1="238.196" x2="81.2716" y2="299.166" gradientUnits="userSpaceOnUse">
<stop stop-color="#E6F9EF"/>
<stop offset="0.383333" stop-color="#EFEAFE"/>
<stop offset="0.711458" stop-color="#D3D2F9"/>
<stop offset="0.872585" stop-color="#EFEAFE"/>
</linearGradient>
<clipPath id="clip0_2218_28992">
<rect width="845" height="734" fill="white"/>
</clipPath>
<clipPath id="clip1_2218_28992">
<rect width="397.409" height="226" fill="white" transform="translate(214.408 321.297) rotate(0.206227)"/>
</clipPath>
</defs>
</svg>
