<svg width="628" height="344" viewBox="0 0 628 344" fill="none" xmlns="http://www.w3.org/2000/svg">
<g filter="url(#filter0_d_2149_28718)">
<rect x="-436.431" y="8.56908" width="1002.86" height="393.862" rx="17.6678" fill="white" stroke="#E6E6ED" stroke-width="0.861842"/>
<path d="M-436 77.9473H565.461V119.316H-436V77.9473Z" fill="#F7F7FC"/>
<path d="M51.0996 96.7414H52.8478C52.8135 95.0471 51.369 93.8474 49.2339 93.8474C47.1283 93.8474 45.5466 95.0324 45.5515 96.805C45.5515 98.2447 46.575 99.0723 48.2252 99.4983L49.3662 99.7921C50.4484 100.066 51.1633 100.404 51.1682 101.183C51.1633 102.04 50.3504 102.613 49.1654 102.613C48.0293 102.613 47.1479 102.103 47.0744 101.051H45.2871C45.3606 103.044 46.8443 104.165 49.1801 104.165C51.5844 104.165 52.98 102.965 52.9849 101.198C52.98 99.4591 51.5453 98.6658 50.037 98.3084L49.0968 98.0733C48.2742 97.8775 47.3829 97.5298 47.3927 96.6924C47.3976 95.9383 48.0734 95.385 49.2095 95.385C50.2917 95.385 51.0066 95.8893 51.0996 96.7414ZM58.42 96.4917H56.9362V94.6896H55.1636V96.4917H54.0961V97.8628H55.1636V102.045C55.1538 103.46 56.1821 104.155 57.514 104.116C58.0184 104.101 58.3661 104.003 58.5571 103.94L58.2584 102.554C58.1604 102.578 57.9597 102.622 57.7393 102.622C57.2937 102.622 56.9362 102.466 56.9362 101.751V97.8628H58.42V96.4917ZM62.2048 104.165C63.3849 104.165 64.0901 103.612 64.4132 102.98H64.472V104.013H66.1761V98.9792C66.1761 96.9911 64.5553 96.3937 63.1205 96.3937C61.5388 96.3937 60.3244 97.0989 59.9326 98.47L61.5878 98.705C61.7641 98.1909 62.2635 97.7501 63.1303 97.7501C63.9529 97.7501 64.4034 98.1713 64.4034 98.9107V98.9401C64.4034 99.4493 63.8697 99.4738 62.5427 99.6158C61.0834 99.7725 59.6878 100.208 59.6878 101.903C59.6878 103.381 60.77 104.165 62.2048 104.165ZM62.6651 102.862C61.9257 102.862 61.3968 102.525 61.3968 101.873C61.3968 101.193 61.9893 100.909 62.7826 100.796C63.2478 100.732 64.1782 100.615 64.4083 100.429V101.315C64.4083 102.152 63.7326 102.862 62.6651 102.862ZM68.0964 104.013H69.8691V99.5913C69.8691 98.6365 70.5889 97.9607 71.5634 97.9607C71.8621 97.9607 72.2343 98.0146 72.3861 98.0635V96.4329C72.2245 96.4035 71.9454 96.3839 71.7495 96.3839C70.8876 96.3839 70.1678 96.8736 69.8936 97.7452H69.8152V96.4917H68.0964V104.013ZM77.8615 96.4917H76.3778V94.6896H74.6051V96.4917H73.5376V97.8628H74.6051V102.045C74.5953 103.46 75.6237 104.155 76.9556 104.116C77.46 104.101 77.8076 104.003 77.9986 103.94L77.6999 102.554C77.602 102.578 77.4012 102.622 77.1808 102.622C76.7352 102.622 76.3778 102.466 76.3778 101.751V97.8628H77.8615V96.4917ZM86.7961 96.4917H85.3124V94.6896H83.5397V96.4917H82.4722V97.8628H83.5397V102.045C83.5299 103.46 84.5583 104.155 85.8902 104.116C86.3946 104.101 86.7423 104.003 86.9332 103.94L86.6345 102.554C86.5366 102.578 86.3358 102.622 86.1155 102.622C85.6698 102.622 85.3124 102.466 85.3124 101.751V97.8628H86.7961V96.4917ZM88.4165 104.013H90.1892V96.4917H88.4165V104.013ZM89.3077 95.4241C89.8709 95.4241 90.3312 94.9932 90.3312 94.4644C90.3312 93.9306 89.8709 93.4997 89.3077 93.4997C88.7397 93.4997 88.2794 93.9306 88.2794 94.4644C88.2794 94.9932 88.7397 95.4241 89.3077 95.4241ZM92.1499 104.013H93.9226V99.4395C93.9226 98.514 94.5396 97.8872 95.3035 97.8872C96.0527 97.8872 96.5669 98.3916 96.5669 99.1653V104.013H98.3052V99.322C98.3052 98.4749 98.8096 97.8872 99.6666 97.8872C100.381 97.8872 100.95 98.3084 100.95 99.2388V104.013H102.727V98.9646C102.727 97.2849 101.757 96.3937 100.377 96.3937C99.2846 96.3937 98.4521 96.9324 98.1192 97.7697H98.0408C97.7519 96.9177 97.0223 96.3937 96.0086 96.3937C94.9999 96.3937 94.2458 96.9128 93.9324 97.7697H93.8442V96.4917H92.1499V104.013ZM107.993 104.16C109.746 104.16 110.951 103.303 111.264 101.996L109.609 101.81C109.369 102.446 108.782 102.779 108.018 102.779C106.872 102.779 106.113 102.025 106.098 100.737H111.338V100.194C111.338 97.5543 109.751 96.3937 107.9 96.3937C105.746 96.3937 104.34 97.9754 104.34 100.296C104.34 102.657 105.726 104.16 107.993 104.16ZM106.103 99.5424C106.157 98.5826 106.867 97.7746 107.925 97.7746C108.943 97.7746 109.629 98.5189 109.639 99.5424H106.103ZM121.093 99.1066H116.578V100.566H121.093V99.1066ZM129.983 104.16C131.736 104.16 132.941 103.303 133.254 101.996L131.599 101.81C131.359 102.446 130.771 102.779 130.008 102.779C128.862 102.779 128.103 102.025 128.088 100.737H133.328V100.194C133.328 97.5543 131.741 96.3937 129.89 96.3937C127.735 96.3937 126.33 97.9754 126.33 100.296C126.33 102.657 127.716 104.16 129.983 104.16ZM128.093 99.5424C128.147 98.5826 128.857 97.7746 129.915 97.7746C130.933 97.7746 131.619 98.5189 131.628 99.5424H128.093ZM136.738 99.606C136.738 98.5189 137.394 97.8921 138.329 97.8921C139.245 97.8921 139.793 98.4945 139.793 99.4983V104.013H141.566V99.2241C141.571 97.422 140.543 96.3937 138.99 96.3937C137.864 96.3937 137.09 96.9324 136.748 97.7697H136.659V96.4917H134.965V104.013H136.738V99.606ZM146.297 104.145C147.59 104.145 148.173 103.377 148.452 102.828H148.56V104.013H150.303V93.9845H148.525V97.7354H148.452C148.182 97.1919 147.629 96.3937 146.302 96.3937C144.564 96.3937 143.198 97.755 143.198 100.262C143.198 102.74 144.525 104.145 146.297 104.145ZM146.792 102.691C145.621 102.691 145.004 101.663 145.004 100.252C145.004 98.8519 145.612 97.8481 146.792 97.8481C147.933 97.8481 148.56 98.7932 148.56 100.252C148.56 101.712 147.923 102.691 146.792 102.691ZM159.644 96.4917H158.16V94.6896H156.387V96.4917H155.32V97.8628H156.387V102.045C156.378 103.46 157.406 104.155 158.738 104.116C159.242 104.101 159.59 104.003 159.781 103.94L159.482 102.554C159.384 102.578 159.184 102.622 158.963 102.622C158.518 102.622 158.16 102.466 158.16 101.751V97.8628H159.644V96.4917ZM161.264 104.013H163.037V96.4917H161.264V104.013ZM162.155 95.4241C162.719 95.4241 163.179 94.9932 163.179 94.4644C163.179 93.9306 162.719 93.4997 162.155 93.4997C161.587 93.4997 161.127 93.9306 161.127 94.4644C161.127 94.9932 161.587 95.4241 162.155 95.4241ZM164.998 104.013H166.77V99.4395C166.77 98.514 167.387 97.8872 168.151 97.8872C168.9 97.8872 169.415 98.3916 169.415 99.1653V104.013H171.153V99.322C171.153 98.4749 171.657 97.8872 172.514 97.8872C173.229 97.8872 173.797 98.3084 173.797 99.2388V104.013H175.575V98.9646C175.575 97.2849 174.605 96.3937 173.224 96.3937C172.132 96.3937 171.3 96.9324 170.967 97.7697H170.889C170.6 96.9177 169.87 96.3937 168.856 96.3937C167.848 96.3937 167.094 96.9128 166.78 97.7697H166.692V96.4917H164.998V104.013ZM180.841 104.16C182.594 104.16 183.799 103.303 184.112 101.996L182.457 101.81C182.217 102.446 181.629 102.779 180.865 102.779C179.72 102.779 178.961 102.025 178.946 100.737H184.185V100.194C184.185 97.5543 182.599 96.3937 180.748 96.3937C178.593 96.3937 177.188 97.9754 177.188 100.296C177.188 102.657 178.574 104.16 180.841 104.16ZM178.951 99.5424C179.005 98.5826 179.715 97.7746 180.772 97.7746C181.791 97.7746 182.476 98.5189 182.486 99.5424H178.951Z" fill="#888A95"/>
<path d="M243.808 93.9845V104.013H245.552V97.1087H245.645L248.416 103.984H249.719L252.49 97.1233H252.583V104.013H254.327V93.9845H252.104L249.126 101.251H249.009L246.031 93.9845H243.808ZM256.365 104.013H258.137V96.4917H256.365V104.013ZM257.256 95.4241C257.819 95.4241 258.279 94.9932 258.279 94.4644C258.279 93.9306 257.819 93.4997 257.256 93.4997C256.688 93.4997 256.227 93.9306 256.227 94.4644C256.227 94.9932 256.688 95.4241 257.256 95.4241ZM261.871 99.606C261.871 98.5189 262.527 97.8921 263.462 97.8921C264.378 97.8921 264.926 98.4945 264.926 99.4983V104.013H266.699V99.2241C266.704 97.422 265.675 96.3937 264.123 96.3937C262.997 96.3937 262.223 96.9324 261.88 97.7697H261.792V96.4917H260.098V104.013H261.871V99.606ZM268.639 104.013H270.411V96.4917H268.639V104.013ZM269.53 95.4241C270.093 95.4241 270.553 94.9932 270.553 94.4644C270.553 93.9306 270.093 93.4997 269.53 93.4997C268.962 93.4997 268.502 93.9306 268.502 94.4644C268.502 94.9932 268.962 95.4241 269.53 95.4241ZM272.372 104.013H274.145V99.4395C274.145 98.514 274.762 97.8872 275.526 97.8872C276.275 97.8872 276.789 98.3916 276.789 99.1653V104.013H278.528V99.322C278.528 98.4749 279.032 97.8872 279.889 97.8872C280.604 97.8872 281.172 98.3084 281.172 99.2388V104.013H282.949V98.9646C282.949 97.2849 281.98 96.3937 280.599 96.3937C279.507 96.3937 278.674 96.9324 278.341 97.7697H278.263C277.974 96.9177 277.245 96.3937 276.231 96.3937C275.222 96.3937 274.468 96.9128 274.155 97.7697H274.067V96.4917H272.372V104.013ZM289.68 100.85C289.68 101.996 288.862 102.564 288.078 102.564C287.226 102.564 286.658 101.961 286.658 101.007V96.4917H284.886V101.281C284.886 103.088 285.914 104.111 287.393 104.111C288.519 104.111 289.312 103.519 289.655 102.676H289.733V104.013H291.452V96.4917H289.68V100.85ZM293.413 104.013H295.186V99.4395C295.186 98.514 295.803 97.8872 296.567 97.8872C297.316 97.8872 297.83 98.3916 297.83 99.1653V104.013H299.568V99.322C299.568 98.4749 300.073 97.8872 300.93 97.8872C301.645 97.8872 302.213 98.3084 302.213 99.2388V104.013H303.99V98.9646C303.99 97.2849 303.021 96.3937 301.64 96.3937C300.548 96.3937 299.715 96.9324 299.382 97.7697H299.304C299.015 96.9177 298.285 96.3937 297.272 96.3937C296.263 96.3937 295.509 96.9128 295.195 97.7697H295.107V96.4917H293.413V104.013ZM309.485 106.834H311.257V102.828H311.331C311.61 103.377 312.193 104.145 313.485 104.145C315.258 104.145 316.585 102.74 316.585 100.262C316.585 97.755 315.219 96.3937 313.481 96.3937C312.154 96.3937 311.6 97.1919 311.331 97.7354H311.228V96.4917H309.485V106.834ZM311.223 100.252C311.223 98.7932 311.85 97.8481 312.991 97.8481C314.171 97.8481 314.778 98.8519 314.778 100.252C314.778 101.663 314.161 102.691 312.991 102.691C311.86 102.691 311.223 101.712 311.223 100.252ZM320.405 104.165C321.586 104.165 322.291 103.612 322.614 102.98H322.673V104.013H324.377V98.9792C324.377 96.9911 322.756 96.3937 321.321 96.3937C319.74 96.3937 318.525 97.0989 318.133 98.47L319.788 98.705C319.965 98.1909 320.464 97.7501 321.331 97.7501C322.154 97.7501 322.604 98.1713 322.604 98.9107V98.9401C322.604 99.4493 322.07 99.4738 320.743 99.6158C319.284 99.7725 317.889 100.208 317.889 101.903C317.889 103.381 318.971 104.165 320.405 104.165ZM320.866 102.862C320.126 102.862 319.598 102.525 319.598 101.873C319.598 101.193 320.19 100.909 320.983 100.796C321.449 100.732 322.379 100.615 322.609 100.429V101.315C322.609 102.152 321.933 102.862 320.866 102.862ZM327.13 106.834C328.511 106.834 329.309 106.124 329.735 104.924L332.756 96.5014L330.861 96.4917L329.123 102.172H329.044L327.311 96.4917H325.43L328.158 104.17L328.006 104.576C327.678 105.433 327.159 105.492 326.385 105.267L325.974 106.648C326.214 106.746 326.645 106.834 327.13 106.834Z" fill="#888A95"/>
<path d="M389.891 93.9845V104.013H391.634V97.1087H391.728L394.499 103.984H395.802L398.573 97.1233H398.666V104.013H400.41V93.9845H398.186L395.209 101.251H395.092L392.114 93.9845H389.891ZM402.447 104.013H404.22V96.4917H402.447V104.013ZM403.339 95.4241C403.902 95.4241 404.362 94.9932 404.362 94.4644C404.362 93.9306 403.902 93.4997 403.339 93.4997C402.771 93.4997 402.31 93.9306 402.31 94.4644C402.31 94.9932 402.771 95.4241 403.339 95.4241ZM407.954 99.606C407.954 98.5189 408.61 97.8921 409.545 97.8921C410.461 97.8921 411.009 98.4945 411.009 99.4983V104.013H412.782V99.2241C412.787 97.422 411.758 96.3937 410.206 96.3937C409.08 96.3937 408.306 96.9324 407.963 97.7697H407.875V96.4917H406.181V104.013H407.954V99.606ZM414.722 104.013H416.494V96.4917H414.722V104.013ZM415.613 95.4241C416.176 95.4241 416.636 94.9932 416.636 94.4644C416.636 93.9306 416.176 93.4997 415.613 93.4997C415.045 93.4997 414.585 93.9306 414.585 94.4644C414.585 94.9932 415.045 95.4241 415.613 95.4241ZM418.455 104.013H420.228V99.4395C420.228 98.514 420.845 97.8872 421.609 97.8872C422.358 97.8872 422.872 98.3916 422.872 99.1653V104.013H424.61V99.322C424.61 98.4749 425.115 97.8872 425.972 97.8872C426.687 97.8872 427.255 98.3084 427.255 99.2388V104.013H429.032V98.9646C429.032 97.2849 428.063 96.3937 426.682 96.3937C425.59 96.3937 424.757 96.9324 424.424 97.7697H424.346C424.057 96.9177 423.327 96.3937 422.314 96.3937C421.305 96.3937 420.551 96.9128 420.238 97.7697H420.149V96.4917H418.455V104.013ZM435.763 100.85C435.763 101.996 434.945 102.564 434.161 102.564C433.309 102.564 432.741 101.961 432.741 101.007V96.4917H430.969V101.281C430.969 103.088 431.997 104.111 433.476 104.111C434.602 104.111 435.395 103.519 435.738 102.676H435.816V104.013H437.535V96.4917H435.763V100.85ZM439.496 104.013H441.269V99.4395C441.269 98.514 441.886 97.8872 442.649 97.8872C443.399 97.8872 443.913 98.3916 443.913 99.1653V104.013H445.651V99.322C445.651 98.4749 446.156 97.8872 447.013 97.8872C447.727 97.8872 448.296 98.3084 448.296 99.2388V104.013H450.073V98.9646C450.073 97.2849 449.103 96.3937 447.723 96.3937C446.631 96.3937 445.798 96.9324 445.465 97.7697H445.387C445.098 96.9177 444.368 96.3937 443.355 96.3937C442.346 96.3937 441.592 96.9128 441.278 97.7697H441.19V96.4917H439.496V104.013ZM457.34 99.606C457.34 98.5189 458.016 97.8921 458.966 97.8921C459.896 97.8921 460.445 98.4847 460.445 99.4983V104.013H462.218V99.2241C462.218 97.4074 461.189 96.3937 459.627 96.3937C458.471 96.3937 457.737 96.9177 457.389 97.7697H457.301V93.9845H455.568V104.013H457.34V99.606ZM467.443 104.16C469.647 104.16 471.047 102.608 471.047 100.282C471.047 97.9509 469.647 96.3937 467.443 96.3937C465.24 96.3937 463.839 97.9509 463.839 100.282C463.839 102.608 465.24 104.16 467.443 104.16ZM467.453 102.74C466.234 102.74 465.636 101.653 465.636 100.277C465.636 98.9009 466.234 97.7991 467.453 97.7991C468.653 97.7991 469.25 98.9009 469.25 100.277C469.25 101.653 468.653 102.74 467.453 102.74ZM477.484 100.85C477.484 101.996 476.666 102.564 475.882 102.564C475.03 102.564 474.462 101.961 474.462 101.007V96.4917H472.69V101.281C472.69 103.088 473.718 104.111 475.197 104.111C476.323 104.111 477.116 103.519 477.459 102.676H477.538V104.013H479.256V96.4917H477.484V100.85ZM481.217 104.013H482.99V99.5913C482.99 98.6365 483.71 97.9607 484.684 97.9607C484.983 97.9607 485.355 98.0146 485.507 98.0635V96.4329C485.345 96.4035 485.066 96.3839 484.87 96.3839C484.008 96.3839 483.289 96.8736 483.014 97.7452H482.936V96.4917H481.217V104.013ZM488.595 93.9845H486.822V104.013H488.595V93.9845ZM491.658 106.834C493.038 106.834 493.837 106.124 494.263 104.924L497.284 96.5014L495.389 96.4917L493.651 102.172H493.572L491.839 96.4917H489.958L492.686 104.17L492.534 104.576C492.206 105.433 491.687 105.492 490.913 105.267L490.502 106.648C490.742 106.746 491.173 106.834 491.658 106.834ZM502.211 104.013H503.983V99.5913C503.983 98.6365 504.703 97.9607 505.677 97.9607C505.976 97.9607 506.348 98.0146 506.5 98.0635V96.4329C506.339 96.4035 506.059 96.3839 505.864 96.3839C505.002 96.3839 504.282 96.8736 504.008 97.7452H503.929V96.4917H502.211V104.013ZM509.832 104.165C511.012 104.165 511.717 103.612 512.04 102.98H512.099V104.013H513.803V98.9792C513.803 96.9911 512.182 96.3937 510.748 96.3937C509.166 96.3937 507.952 97.0989 507.56 98.47L509.215 98.705C509.391 98.1909 509.891 97.7501 510.758 97.7501C511.58 97.7501 512.031 98.1713 512.031 98.9107V98.9401C512.031 99.4493 511.497 99.4738 510.17 99.6158C508.711 99.7725 507.315 100.208 507.315 101.903C507.315 103.381 508.397 104.165 509.832 104.165ZM510.292 102.862C509.553 102.862 509.024 102.525 509.024 101.873C509.024 101.193 509.617 100.909 510.41 100.796C510.875 100.732 511.805 100.615 512.036 100.429V101.315C512.036 102.152 511.36 102.862 510.292 102.862ZM519.48 96.4917H517.996V94.6896H516.223V96.4917H515.156V97.8628H516.223V102.045C516.213 103.46 517.242 104.155 518.574 104.116C519.078 104.101 519.426 104.003 519.617 103.94L519.318 102.554C519.22 102.578 519.019 102.622 518.799 102.622C518.353 102.622 517.996 102.466 517.996 101.751V97.8628H519.48V96.4917ZM524.349 104.16C526.102 104.16 527.307 103.303 527.62 101.996L525.965 101.81C525.725 102.446 525.137 102.779 524.374 102.779C523.228 102.779 522.469 102.025 522.454 100.737H527.694V100.194C527.694 97.5543 526.107 96.3937 524.256 96.3937C522.101 96.3937 520.696 97.9754 520.696 100.296C520.696 102.657 522.082 104.16 524.349 104.16ZM522.459 99.5424C522.513 98.5826 523.223 97.7746 524.28 97.7746C525.299 97.7746 525.985 98.5189 525.994 99.5424H522.459Z" fill="#888A95"/>
<path d="M77.3808 145.695H76.1664L73.6592 147.36V148.594L76.1076 146.968H76.1664V155.724H77.3808V145.695ZM80.5784 155.724H81.8516L86.3175 146.831V145.695H79.8929V146.772H85.0639V146.851L80.5784 155.724ZM88.5333 154.441C89.0181 154.441 89.4148 154.044 89.4148 153.559C89.4148 153.074 89.0181 152.678 88.5333 152.678C88.0485 152.678 87.6519 153.074 87.6519 153.559C87.6519 154.044 88.0485 154.441 88.5333 154.441ZM88.5333 149.368C89.0181 149.368 89.4148 148.971 89.4148 148.486C89.4148 148.001 89.0181 147.605 88.5333 147.605C88.0485 147.605 87.6519 148.001 87.6519 148.486C87.6519 148.971 88.0485 149.368 88.5333 149.368ZM91.2339 153.667H95.9545V155.724H97.1101V153.667H98.4812V152.59H97.1101V145.695H95.6411L91.2339 152.668V153.667ZM95.9545 152.59H92.5463V152.511L95.8761 147.242H95.9545V152.59ZM103.45 155.861C105.36 155.861 106.761 154.45 106.761 152.531C106.761 150.587 105.409 149.162 103.568 149.162C102.892 149.162 102.236 149.402 101.825 149.73H101.766L102.118 146.772H106.31V145.695H101.1L100.493 150.631L101.629 150.768C102.045 150.469 102.755 150.254 103.372 150.259C104.65 150.269 105.585 151.238 105.585 152.551C105.585 153.838 104.684 154.783 103.45 154.783C102.422 154.783 101.604 154.122 101.511 153.216H100.336C100.409 154.744 101.727 155.861 103.45 155.861ZM116.913 150.171H112.525V151.248H116.913V150.171ZM122.805 155.724H129.132V154.646H124.47V154.568L126.722 152.159C128.446 150.313 128.955 149.451 128.955 148.339C128.955 146.792 127.702 145.558 125.939 145.558C124.181 145.558 122.844 146.753 122.844 148.516H124C124 147.375 124.739 146.616 125.9 146.616C126.987 146.616 127.819 147.282 127.819 148.339C127.819 149.265 127.276 149.95 126.115 151.219L122.805 154.842V155.724ZM134.68 145.695H133.465L130.958 147.36V148.594L133.407 146.968H133.465V155.724H134.68V145.695ZM137.833 155.802C138.318 155.802 138.715 155.405 138.715 154.921C138.715 154.436 138.318 154.039 137.833 154.039C137.349 154.039 136.952 154.436 136.952 154.921C136.952 155.405 137.349 155.802 137.833 155.802ZM143.69 155.861C145.903 155.861 147.177 153.985 147.177 150.709C147.177 147.458 145.884 145.558 143.69 145.558C141.496 145.558 140.203 147.458 140.203 150.709C140.203 153.985 141.477 155.861 143.69 155.861ZM143.69 154.783C142.231 154.783 141.379 153.319 141.379 150.709C141.379 148.104 142.241 146.616 143.69 146.616C145.139 146.616 146.001 148.104 146.001 150.709C146.001 153.319 145.149 154.783 143.69 154.783ZM152.308 155.861C154.522 155.861 155.795 153.985 155.795 150.709C155.795 147.458 154.502 145.558 152.308 145.558C150.115 145.558 148.822 147.458 148.822 150.709C148.822 153.985 150.095 155.861 152.308 155.861ZM152.308 154.783C150.849 154.783 149.997 153.319 149.997 150.709C149.997 148.104 150.859 146.616 152.308 146.616C153.758 146.616 154.62 148.104 154.62 150.709C154.62 153.319 153.768 154.783 152.308 154.783Z" fill="#0A0A0A"/>
<path d="M282.566 155.724V154.607H277.611C277.831 154.186 277.86 153.589 277.846 152.981L277.831 152.57H280.274V151.689H277.802L277.767 150.807H280.274V149.926H277.738L277.689 148.515C277.689 147.34 278.59 146.694 279.432 146.694C280.235 146.694 281.176 147.105 281.176 148.183H282.37C282.37 146.616 281.332 145.558 279.569 145.558C277.846 145.558 276.455 146.655 276.514 148.515L276.558 149.926H275.515V150.807H276.582L276.612 151.689H275.515V152.57H276.636L276.651 152.981C276.67 153.569 276.494 154.49 276.044 154.607H275.554V155.724H282.566ZM288.132 155.861C290.076 155.861 291.521 154.641 291.521 153.001C291.521 151.728 290.767 150.802 289.503 150.592V150.513C290.517 150.205 291.149 149.372 291.149 148.241C291.149 146.821 290.027 145.558 288.171 145.558C286.438 145.558 284.998 146.625 284.939 148.202H286.115C286.159 147.203 287.109 146.616 288.152 146.616C289.259 146.616 289.973 147.286 289.973 148.3C289.973 149.358 289.146 150.043 287.956 150.043H287.153V151.121H287.956C289.479 151.121 290.326 151.894 290.326 153.001C290.326 154.064 289.401 154.783 288.113 154.783C286.952 154.783 286.031 154.186 285.958 153.216H284.724C284.797 154.793 286.188 155.861 288.132 155.861ZM296.933 155.861C299.146 155.861 300.419 153.985 300.419 150.709C300.419 147.458 299.126 145.558 296.933 145.558C294.739 145.558 293.446 147.458 293.446 150.709C293.446 153.985 294.719 155.861 296.933 155.861ZM296.933 154.783C295.473 154.783 294.621 153.319 294.621 150.709C294.621 148.104 295.483 146.616 296.933 146.616C298.382 146.616 299.244 148.104 299.244 150.709C299.244 153.319 298.392 154.783 296.933 154.783Z" fill="#0A0A0A"/>
<path d="M456.982 155.724V154.607H452.026C452.246 154.186 452.276 153.589 452.261 152.981L452.246 152.57H454.69V151.689H452.217L452.183 150.807H454.69V149.926H452.153L452.104 148.515C452.104 147.34 453.005 146.694 453.848 146.694C454.651 146.694 455.591 147.105 455.591 148.183H456.786C456.786 146.616 455.748 145.558 453.985 145.558C452.261 145.558 450.87 146.655 450.929 148.515L450.973 149.926H449.93V150.807H450.998L451.027 151.689H449.93V152.57H451.052L451.066 152.981C451.086 153.569 450.91 154.49 450.459 154.607H449.969V155.724H456.982ZM462.685 145.695H461.47L458.963 147.36V148.594L461.412 146.968H461.47V155.724H462.685V145.695ZM468.978 155.861C471.191 155.861 472.465 153.985 472.465 150.709C472.465 147.458 471.172 145.558 468.978 145.558C466.784 145.558 465.491 147.458 465.491 150.709C465.491 153.985 466.765 155.861 468.978 155.861ZM468.978 154.783C467.519 154.783 466.667 153.319 466.667 150.709C466.667 148.104 467.528 146.616 468.978 146.616C470.427 146.616 471.289 148.104 471.289 150.709C471.289 153.319 470.437 154.783 468.978 154.783Z" fill="#0A0A0A"/>
<line x1="-423.934" y1="180.937" x2="536.158" y2="180.937" stroke="#E6E6ED" stroke-width="0.861842"/>
<path d="M76.0342 207.748H74.8198L72.3126 209.413V210.647L74.761 209.021H74.8198V217.776H76.0342V207.748ZM79.2318 217.776H80.505L84.9709 208.884V207.748H78.5462V208.825H83.7173V208.903L79.2318 217.776ZM87.1867 216.493C87.6715 216.493 88.0681 216.097 88.0681 215.612C88.0681 215.127 87.6715 214.73 87.1867 214.73C86.7019 214.73 86.3053 215.127 86.3053 215.612C86.3053 216.097 86.7019 216.493 87.1867 216.493ZM87.1867 211.42C87.6715 211.42 88.0681 211.024 88.0681 210.539C88.0681 210.054 87.6715 209.657 87.1867 209.657C86.7019 209.657 86.3053 210.054 86.3053 210.539C86.3053 211.024 86.7019 211.42 87.1867 211.42ZM93.511 217.913C95.455 217.913 96.8996 216.694 96.8996 215.054C96.8996 213.78 96.1455 212.855 94.8821 212.644V212.566C95.8957 212.258 96.5274 211.425 96.5274 210.294C96.5274 208.874 95.406 207.61 93.5501 207.61C91.8167 207.61 90.377 208.678 90.3182 210.255H91.4935C91.5375 209.256 92.4875 208.668 93.5306 208.668C94.6372 208.668 95.3522 209.339 95.3522 210.353C95.3522 211.41 94.5246 212.096 93.3347 212.096H92.5316V213.173H93.3347C94.8576 213.173 95.7047 213.947 95.7047 215.054C95.7047 216.116 94.7792 216.836 93.4914 216.836C92.3308 216.836 91.4102 216.239 91.3368 215.269H90.1028C90.1762 216.846 91.5669 217.913 93.511 217.913ZM102.173 217.913C104.387 217.913 105.66 216.038 105.66 212.762C105.66 209.51 104.367 207.61 102.173 207.61C99.9797 207.61 98.6869 209.51 98.6869 212.762C98.6869 216.038 99.9601 217.913 102.173 217.913ZM102.173 216.836C100.714 216.836 99.8621 215.372 99.8621 212.762C99.8621 210.157 100.724 208.668 102.173 208.668C103.623 208.668 104.485 210.157 104.485 212.762C104.485 215.372 103.633 216.836 102.173 216.836ZM115.728 212.223H111.34V213.301H115.728V212.223ZM121.62 217.776H127.947V216.699H123.285V216.621L125.537 214.211C127.261 212.365 127.77 211.503 127.77 210.392C127.77 208.844 126.517 207.61 124.754 207.61C122.996 207.61 121.659 208.805 121.659 210.568H122.815C122.815 209.427 123.554 208.668 124.715 208.668C125.802 208.668 126.634 209.334 126.634 210.392C126.634 211.317 126.091 212.003 124.93 213.271L121.62 216.895V217.776ZM129.969 217.776H136.296V216.699H131.634V216.621L133.887 214.211C135.61 212.365 136.12 211.503 136.12 210.392C136.12 208.844 134.866 207.61 133.103 207.61C131.345 207.61 130.008 208.805 130.008 210.568H131.164C131.164 209.427 131.903 208.668 133.064 208.668C134.151 208.668 134.983 209.334 134.983 210.392C134.983 211.317 134.44 212.003 133.279 213.271L129.969 216.895V217.776ZM139.18 217.855C139.665 217.855 140.061 217.458 140.061 216.973C140.061 216.488 139.665 216.092 139.18 216.092C138.695 216.092 138.299 216.488 138.299 216.973C138.299 217.458 138.695 217.855 139.18 217.855ZM145.037 217.913C147.25 217.913 148.523 216.038 148.523 212.762C148.523 209.51 147.23 207.61 145.037 207.61C142.843 207.61 141.55 209.51 141.55 212.762C141.55 216.038 142.823 217.913 145.037 217.913ZM145.037 216.836C143.577 216.836 142.725 215.372 142.725 212.762C142.725 210.157 143.587 208.668 145.037 208.668C146.486 208.668 147.348 210.157 147.348 212.762C147.348 215.372 146.496 216.836 145.037 216.836ZM153.655 217.913C155.868 217.913 157.142 216.038 157.142 212.762C157.142 209.51 155.849 207.61 153.655 207.61C151.461 207.61 150.169 209.51 150.169 212.762C150.169 216.038 151.442 217.913 153.655 217.913ZM153.655 216.836C152.196 216.836 151.344 215.372 151.344 212.762C151.344 210.157 152.206 208.668 153.655 208.668C155.105 208.668 155.966 210.157 155.966 212.762C155.966 215.372 155.114 216.836 153.655 216.836Z" fill="#0A0A0A"/>
<path d="M282.681 217.776V216.66H277.725C277.945 216.239 277.975 215.641 277.96 215.034L277.945 214.623H280.389V213.741H277.916L277.882 212.86H280.389V211.978H277.852L277.803 210.568C277.803 209.393 278.704 208.747 279.547 208.747C280.35 208.747 281.29 209.158 281.29 210.235H282.485C282.485 208.668 281.447 207.61 279.684 207.61C277.96 207.61 276.569 208.707 276.628 210.568L276.672 211.978H275.629V212.86H276.697L276.726 213.741H275.629V214.623H276.751L276.765 215.034C276.785 215.622 276.609 216.542 276.158 216.66H275.668V217.776H282.681ZM288.247 217.913C290.191 217.913 291.635 216.694 291.635 215.054C291.635 213.78 290.881 212.855 289.618 212.644V212.566C290.631 212.258 291.263 211.425 291.263 210.294C291.263 208.874 290.142 207.61 288.286 207.61C286.552 207.61 285.113 208.678 285.054 210.255H286.229C286.273 209.256 287.223 208.668 288.266 208.668C289.373 208.668 290.088 209.339 290.088 210.353C290.088 211.41 289.26 212.096 288.07 212.096H287.267V213.173H288.07C289.593 213.173 290.44 213.947 290.44 215.054C290.44 216.116 289.515 216.836 288.227 216.836C287.067 216.836 286.146 216.239 286.073 215.269H284.839C284.912 216.846 286.303 217.913 288.247 217.913ZM296.91 217.913C298.82 217.913 300.22 216.503 300.22 214.584C300.22 212.64 298.869 211.215 297.027 211.215C296.352 211.215 295.696 211.454 295.284 211.783H295.225L295.578 208.825H299.77V207.748H294.559L293.952 212.684L295.088 212.821C295.505 212.522 296.215 212.307 296.832 212.311C298.11 212.321 299.045 213.291 299.045 214.603C299.045 215.891 298.144 216.836 296.91 216.836C295.882 216.836 295.064 216.175 294.971 215.269H293.796C293.869 216.797 295.186 217.913 296.91 217.913Z" fill="#0A0A0A"/>
<path d="M458.086 217.776V216.66H453.13C453.351 216.239 453.38 215.641 453.365 215.034L453.351 214.623H455.794V213.741H453.321L453.287 212.86H455.794V211.978H453.258L453.209 210.568C453.209 209.393 454.11 208.747 454.952 208.747C455.755 208.747 456.695 209.158 456.695 210.235H457.89C457.89 208.668 456.852 207.61 455.089 207.61C453.365 207.61 451.975 208.707 452.033 210.568L452.077 211.978H451.034V212.86H452.102L452.131 213.741H451.034V214.623H452.156L452.17 215.034C452.19 215.622 452.014 216.542 451.563 216.66H451.074V217.776H458.086ZM463.789 207.748H462.575L460.067 209.413V210.647L462.516 209.021H462.575V217.776H463.789V207.748ZM470.337 207.748H469.122L466.615 209.413V210.647L469.064 209.021H469.122V217.776H470.337V207.748Z" fill="#0A0A0A"/>
<line x1="-423.934" y1="242.99" x2="536.158" y2="242.99" stroke="#E6E6ED" stroke-width="0.861842"/>
<rect x="406.919" y="268.989" width="132.263" height="42.1316" rx="10" fill="#3071F2"/>
<path d="M437.859 287.783H439.607C439.573 286.088 438.128 284.889 435.993 284.889C433.888 284.889 432.306 286.074 432.311 287.846C432.311 289.286 433.334 290.114 434.984 290.54L436.125 290.833C437.208 291.108 437.923 291.446 437.927 292.224C437.923 293.081 437.11 293.654 435.925 293.654C434.789 293.654 433.907 293.145 433.834 292.092H432.046C432.12 294.085 433.604 295.206 435.939 295.206C438.344 295.206 439.739 294.007 439.744 292.239C439.739 290.5 438.304 289.707 436.796 289.35L435.856 289.115C435.033 288.919 434.142 288.571 434.152 287.734C434.157 286.98 434.833 286.426 435.969 286.426C437.051 286.426 437.766 286.931 437.859 287.783ZM445.041 287.533H443.558V285.731H441.785V287.533H440.717V288.904H441.785V293.086C441.775 294.501 442.803 295.197 444.135 295.157C444.64 295.143 444.987 295.045 445.178 294.981L444.88 293.595C444.782 293.62 444.581 293.664 444.361 293.664C443.915 293.664 443.558 293.507 443.558 292.792V288.904H445.041V287.533ZM448.688 295.206C449.868 295.206 450.573 294.653 450.897 294.021H450.955V295.055H452.66V290.021C452.66 288.032 451.039 287.435 449.604 287.435C448.022 287.435 446.808 288.14 446.416 289.511L448.071 289.746C448.247 289.232 448.747 288.791 449.614 288.791C450.436 288.791 450.887 289.213 450.887 289.952V289.981C450.887 290.491 450.353 290.515 449.026 290.657C447.567 290.814 446.171 291.25 446.171 292.944C446.171 294.423 447.253 295.206 448.688 295.206ZM449.148 293.904C448.409 293.904 447.88 293.566 447.88 292.915C447.88 292.234 448.473 291.95 449.266 291.837C449.731 291.774 450.662 291.656 450.892 291.47V292.356C450.892 293.194 450.216 293.904 449.148 293.904ZM454.442 295.055H456.215V290.633C456.215 289.678 456.934 289.002 457.909 289.002C458.208 289.002 458.58 289.056 458.732 289.105V287.474C458.57 287.445 458.291 287.425 458.095 287.425C457.233 287.425 456.513 287.915 456.239 288.787H456.161V287.533H454.442V295.055ZM464.069 287.533H462.585V285.731H460.813V287.533H459.745V288.904H460.813V293.086C460.803 294.501 461.831 295.197 463.163 295.157C463.668 295.143 464.015 295.045 464.206 294.981L463.908 293.595C463.81 293.62 463.609 293.664 463.388 293.664C462.943 293.664 462.585 293.507 462.585 292.792V288.904H464.069V287.533ZM474.501 287.783H476.249C476.215 286.088 474.77 284.889 472.635 284.889C470.529 284.889 468.948 286.074 468.953 287.846C468.953 289.286 469.976 290.114 471.626 290.54L472.767 290.833C473.849 291.108 474.564 291.446 474.569 292.224C474.564 293.081 473.751 293.654 472.566 293.654C471.43 293.654 470.549 293.145 470.475 292.092H468.688C468.762 294.085 470.245 295.206 472.581 295.206C474.985 295.206 476.381 294.007 476.386 292.239C476.381 290.5 474.946 289.707 473.438 289.35L472.498 289.115C471.675 288.919 470.784 288.571 470.794 287.734C470.799 286.98 471.474 286.426 472.61 286.426C473.693 286.426 474.408 286.931 474.501 287.783ZM481.257 295.201C483.01 295.201 484.215 294.344 484.528 293.037L482.873 292.851C482.633 293.488 482.045 293.821 481.281 293.821C480.136 293.821 479.377 293.066 479.362 291.779H484.602V291.235C484.602 288.596 483.015 287.435 481.164 287.435C479.009 287.435 477.604 289.017 477.604 291.338C477.604 293.698 478.99 295.201 481.257 295.201ZM479.367 290.584C479.421 289.624 480.131 288.816 481.188 288.816C482.207 288.816 482.893 289.56 482.902 290.584H479.367ZM488.266 295.206C489.446 295.206 490.151 294.653 490.474 294.021H490.533V295.055H492.237V290.021C492.237 288.032 490.616 287.435 489.181 287.435C487.6 287.435 486.385 288.14 485.993 289.511L487.649 289.746C487.825 289.232 488.324 288.791 489.191 288.791C490.014 288.791 490.464 289.213 490.464 289.952V289.981C490.464 290.491 489.931 290.515 488.603 290.657C487.144 290.814 485.749 291.25 485.749 292.944C485.749 294.423 486.831 295.206 488.266 295.206ZM488.726 293.904C487.986 293.904 487.458 293.566 487.458 292.915C487.458 292.234 488.05 291.95 488.843 291.837C489.309 291.774 490.239 291.656 490.469 291.47V292.356C490.469 293.194 489.793 293.904 488.726 293.904ZM494.019 295.055H495.792V290.633C495.792 289.678 496.512 289.002 497.486 289.002C497.785 289.002 498.157 289.056 498.309 289.105V287.474C498.147 287.445 497.868 287.425 497.672 287.425C496.811 287.425 496.091 287.915 495.817 288.787H495.738V287.533H494.019V295.055ZM502.458 295.201C504.348 295.201 505.553 294.08 505.68 292.484H503.986C503.834 293.292 503.251 293.757 502.473 293.757C501.366 293.757 500.651 292.831 500.651 291.294C500.651 289.776 501.381 288.865 502.473 288.865C503.325 288.865 503.849 289.413 503.986 290.138H505.68C505.558 288.507 504.284 287.435 502.448 287.435C500.244 287.435 498.854 289.027 498.854 291.323C498.854 293.6 500.21 295.201 502.458 295.201ZM508.908 290.647C508.908 289.56 509.584 288.933 510.534 288.933C511.464 288.933 512.013 289.526 512.013 290.54V295.055H513.785V290.265C513.785 288.449 512.757 287.435 511.195 287.435C510.039 287.435 509.305 287.959 508.957 288.811H508.869V285.026H507.136V295.055H508.908V290.647Z" fill="white"/>
<g filter="url(#filter1_d_2149_28718)">
<path d="M-436 26.2369C-436 16.7172 -428.283 9 -418.763 9H548.224C557.743 9 565.461 16.7172 565.461 26.2368V77.9474H-436V26.2369Z" fill="white" shape-rendering="crispEdges"/>
<rect x="158.24" y="29.2533" width="49.125" height="28.4408" rx="14.2204" stroke="#E6E6ED" stroke-width="0.861842"/>
<path d="M171.165 38.8039V47.579H172.69V41.5375H172.771L175.197 47.5533H176.336L178.761 41.5504H178.843V47.579H180.368V38.8039H178.423L175.818 45.1624H175.715L173.11 38.8039H171.165ZM185.022 47.7075C186.95 47.7075 188.176 46.3493 188.176 44.314C188.176 42.2745 186.95 40.9119 185.022 40.9119C183.094 40.9119 181.869 42.2745 181.869 44.314C181.869 46.3493 183.094 47.7075 185.022 47.7075ZM185.031 46.465C183.964 46.465 183.441 45.5137 183.441 44.3097C183.441 43.1057 183.964 42.1417 185.031 42.1417C186.08 42.1417 186.603 43.1057 186.603 44.3097C186.603 45.5137 186.08 46.465 185.031 46.465ZM191.164 43.7227C191.164 42.7715 191.738 42.2231 192.556 42.2231C193.358 42.2231 193.838 42.7501 193.838 43.6285V47.579H195.389V43.3885C195.393 41.8117 194.493 40.9119 193.135 40.9119C192.149 40.9119 191.472 41.3833 191.172 42.116H191.095V40.9976H189.613V47.579H191.164V43.7227Z" fill="#585A61"/>
<rect x="213.398" y="29.2533" width="49.125" height="28.4408" rx="14.2204" stroke="#E6E6ED" stroke-width="0.861842"/>
<path d="M227.539 40.1364H230.251V47.579H231.828V40.1364H234.54V38.8039H227.539V40.1364ZM239.241 44.811C239.241 45.8137 238.525 46.3107 237.84 46.3107C237.094 46.3107 236.597 45.7837 236.597 44.9482V40.9976H235.046V45.1881C235.046 46.7692 235.946 47.6647 237.24 47.6647C238.225 47.6647 238.919 47.1462 239.219 46.4092H239.288V47.579H240.792V40.9976H239.241V44.811ZM245.421 47.7075C246.955 47.7075 248.009 46.9577 248.283 45.8137L246.835 45.6509C246.625 46.2079 246.111 46.4992 245.443 46.4992C244.44 46.4992 243.776 45.8394 243.763 44.7125H248.348V44.2369C248.348 41.9274 246.959 40.9119 245.34 40.9119C243.454 40.9119 242.225 42.2959 242.225 44.3269C242.225 46.3921 243.437 47.7075 245.421 47.7075ZM243.767 43.667C243.814 42.8272 244.436 42.1202 245.361 42.1202C246.252 42.1202 246.852 42.7715 246.861 43.667H243.767Z" fill="#585A61"/>
<rect x="268.556" y="29.2533" width="49.125" height="28.4408" rx="14.2204" fill="white" stroke="#98D9B8" stroke-width="0.861842"/>
<path d="M283.027 47.579H284.595L286.356 41.4218H286.425L288.181 47.579H289.75L292.226 38.8039H290.517L288.935 45.2567H288.858L287.166 38.8039H285.611L283.922 45.2524H283.841L282.26 38.8039H280.55L283.027 47.579ZM295.622 47.7075C297.156 47.7075 298.21 46.9577 298.485 45.8137L297.036 45.6509C296.826 46.2079 296.312 46.4992 295.644 46.4992C294.641 46.4992 293.977 45.8394 293.964 44.7125H298.549V44.2369C298.549 41.9274 297.161 40.9119 295.541 40.9119C293.656 40.9119 292.426 42.2959 292.426 44.3269C292.426 46.3921 293.639 47.7075 295.622 47.7075ZM293.969 43.667C294.016 42.8272 294.637 42.1202 295.562 42.1202C296.454 42.1202 297.054 42.7715 297.062 43.667H293.969ZM302.424 47.6947C303.555 47.6947 304.065 47.022 304.309 46.5421H304.404V47.579H305.929V38.8039H304.374V42.086H304.309C304.074 41.6104 303.59 40.9119 302.428 40.9119C300.907 40.9119 299.712 42.1031 299.712 44.2969C299.712 46.465 300.873 47.6947 302.424 47.6947ZM302.857 46.4221C301.833 46.4221 301.293 45.5223 301.293 44.2883C301.293 43.0629 301.824 42.1845 302.857 42.1845C303.855 42.1845 304.404 43.0115 304.404 44.2883C304.404 45.5652 303.847 46.4221 302.857 46.4221Z" fill="#2DB560"/>
<rect x="323.714" y="29.2533" width="49.125" height="28.4408" rx="14.2204" stroke="#E6E6ED" stroke-width="0.861842"/>
<path d="M337.713 40.1364H340.426V47.579H342.002V40.1364H344.715V38.8039H337.713V40.1364ZM347.668 43.7227C347.668 42.7715 348.259 42.2231 349.09 42.2231C349.904 42.2231 350.384 42.7415 350.384 43.6285V47.579H351.935V43.3885C351.935 41.7989 351.035 40.9119 349.669 40.9119C348.657 40.9119 348.015 41.3704 347.71 42.116H347.633V38.8039H346.116V47.579H347.668V43.7227ZM357.832 44.811C357.832 45.8137 357.116 46.3107 356.431 46.3107C355.685 46.3107 355.188 45.7837 355.188 44.9482V40.9976H353.637V45.1881C353.637 46.7692 354.537 47.6647 355.831 47.6647C356.816 47.6647 357.51 47.1462 357.81 46.4092H357.879V47.579H359.383V40.9976H357.832V44.811Z" fill="#585A61"/>
<rect x="378.872" y="29.2533" width="49.125" height="28.4408" rx="14.2204" fill="white" stroke="#98D9B8" stroke-width="0.861842"/>
<path d="M396.726 47.579H398.316V43.8513H401.962V42.5187H398.316V40.1364H402.348V38.8039H396.726V47.579ZM403.754 47.579H405.305V43.7099C405.305 42.8743 405.935 42.2831 406.788 42.2831C407.049 42.2831 407.375 42.3302 407.507 42.373V40.9462C407.366 40.9205 407.122 40.9034 406.95 40.9034C406.196 40.9034 405.567 41.3318 405.327 42.0945H405.258V40.9976H403.754V47.579ZM408.659 47.579H410.21V40.9976H408.659V47.579ZM409.438 40.0636C409.931 40.0636 410.334 39.6865 410.334 39.2238C410.334 38.7567 409.931 38.3797 409.438 38.3797C408.941 38.3797 408.539 38.7567 408.539 39.2238C408.539 39.6865 408.941 40.0636 409.438 40.0636Z" fill="#2DB560"/>
<rect x="434.03" y="29.2533" width="49.125" height="28.4408" rx="14.2204" stroke="#E6E6ED" stroke-width="0.861842"/>
<path d="M454.863 41.2162H456.393C456.363 39.7336 455.099 38.6839 453.23 38.6839C451.388 38.6839 450.004 39.7208 450.008 41.2719C450.008 42.5316 450.904 43.2557 452.348 43.6285L453.346 43.8855C454.293 44.1255 454.919 44.4211 454.923 45.1024C454.919 45.8522 454.207 46.3535 453.17 46.3535C452.176 46.3535 451.405 45.9079 451.341 44.9867H449.777C449.841 46.7306 451.139 47.7118 453.183 47.7118C455.287 47.7118 456.508 46.662 456.513 45.1153C456.508 43.5942 455.253 42.9001 453.933 42.5873L453.11 42.3816C452.391 42.2102 451.611 41.906 451.619 41.1733C451.624 40.5135 452.215 40.0293 453.209 40.0293C454.156 40.0293 454.782 40.4706 454.863 41.2162ZM459.876 47.7118C460.908 47.7118 461.525 47.2276 461.808 46.6749H461.859V47.579H463.351V43.1743C463.351 41.4347 461.932 40.9119 460.677 40.9119C459.293 40.9119 458.23 41.5289 457.888 42.7287L459.336 42.9343C459.49 42.4844 459.927 42.0988 460.685 42.0988C461.405 42.0988 461.8 42.4673 461.8 43.1143V43.14C461.8 43.5856 461.332 43.607 460.171 43.7313C458.894 43.8684 457.673 44.2497 457.673 45.7323C457.673 47.0262 458.62 47.7118 459.876 47.7118ZM460.278 46.5721C459.631 46.5721 459.169 46.2764 459.169 45.7066C459.169 45.111 459.687 44.8625 460.381 44.7639C460.788 44.7082 461.602 44.6054 461.804 44.4426V45.2181C461.804 45.9508 461.212 46.5721 460.278 46.5721ZM468.317 40.9976H467.019V39.4209H465.468V40.9976H464.534V42.1974H465.468V45.8565C465.459 47.0948 466.359 47.7032 467.525 47.669C467.966 47.6561 468.27 47.5704 468.437 47.5147L468.176 46.3021C468.09 46.3236 467.914 46.3621 467.722 46.3621C467.332 46.3621 467.019 46.225 467.019 45.5994V42.1974H468.317V40.9976Z" fill="#585A61"/>
<rect x="489.188" y="29.2533" width="49.125" height="28.4408" rx="14.2204" stroke="#E6E6ED" stroke-width="0.861842"/>
<path d="M508.43 41.2162H509.96C509.93 39.7336 508.666 38.6839 506.798 38.6839C504.955 38.6839 503.571 39.7208 503.576 41.2719C503.576 42.5316 504.471 43.2557 505.915 43.6285L506.913 43.8855C507.86 44.1255 508.486 44.4211 508.49 45.1024C508.486 45.8522 507.775 46.3535 506.738 46.3535C505.744 46.3535 504.972 45.9079 504.908 44.9867H503.344C503.409 46.7306 504.707 47.7118 506.751 47.7118C508.854 47.7118 510.076 46.662 510.08 45.1153C510.076 43.5942 508.82 42.9001 507.5 42.5873L506.678 42.3816C505.958 42.2102 505.178 41.906 505.187 41.1733C505.191 40.5135 505.782 40.0293 506.776 40.0293C507.723 40.0293 508.349 40.4706 508.43 41.2162ZM515.744 44.811C515.744 45.8137 515.028 46.3107 514.343 46.3107C513.597 46.3107 513.1 45.7837 513.1 44.9482V40.9976H511.549V45.1881C511.549 46.7692 512.449 47.6647 513.743 47.6647C514.728 47.6647 515.423 47.1462 515.722 46.4092H515.791V47.579H517.295V40.9976H515.744V44.811ZM520.562 43.7227C520.562 42.7715 521.136 42.2231 521.954 42.2231C522.755 42.2231 523.235 42.7501 523.235 43.6285V47.579H524.786V43.3885C524.791 41.8117 523.891 40.9119 522.533 40.9119C521.547 40.9119 520.87 41.3833 520.57 42.116H520.493V40.9976H519.011V47.579H520.562V43.7227Z" fill="#585A61"/>
</g>
</g>
<defs>
<filter id="filter0_d_2149_28718" x="-449.442" y="0.799763" width="1125.67" height="455.528" filterUnits="userSpaceOnUse" color-interpolation-filters="sRGB">
<feFlood flood-opacity="0" result="BackgroundImageFix"/>
<feColorMatrix in="SourceAlpha" type="matrix" values="0 0 0 0 0 0 0 0 0 0 0 0 0 0 0 0 0 0 127 0" result="hardAlpha"/>
<feOffset dx="17.8218" dy="23.0635"/>
<feGaussianBlur stdDeviation="15.201"/>
<feComposite in2="hardAlpha" operator="out"/>
<feColorMatrix type="matrix" values="0 0 0 0 0.0198347 0 0 0 0 0.0917356 0 0 0 0 0.2 0 0 0 0.1 0"/>
<feBlend mode="normal" in2="BackgroundImageFix" result="effect1_dropShadow_2149_28718"/>
<feBlend mode="normal" in="SourceGraphic" in2="effect1_dropShadow_2149_28718" result="shape"/>
</filter>
<filter id="filter1_d_2149_28718" x="-442.895" y="3.82895" width="1015.25" height="82.7369" filterUnits="userSpaceOnUse" color-interpolation-filters="sRGB">
<feFlood flood-opacity="0" result="BackgroundImageFix"/>
<feColorMatrix in="SourceAlpha" type="matrix" values="0 0 0 0 0 0 0 0 0 0 0 0 0 0 0 0 0 0 127 0" result="hardAlpha"/>
<feOffset dy="1.72368"/>
<feGaussianBlur stdDeviation="3.44737"/>
<feComposite in2="hardAlpha" operator="out"/>
<feColorMatrix type="matrix" values="0 0 0 0 0 0 0 0 0 0 0 0 0 0 0 0 0 0 0.04 0"/>
<feBlend mode="normal" in2="BackgroundImageFix" result="effect1_dropShadow_2149_28718"/>
<feBlend mode="normal" in="SourceGraphic" in2="effect1_dropShadow_2149_28718" result="shape"/>
</filter>
</defs>
</svg>
